<svg width="960" height="540" xmlns="http://www.w3.org/2000/svg" xmlns:xlink="http://www.w3.org/1999/xlink" overflow="hidden"><defs><clipPath id="clip0"><rect x="0" y="0" width="960" height="540"/></clipPath></defs><g clip-path="url(#clip0)"><rect x="0" y="0" width="960" height="540" fill="#305DBF"/><path d="M760.163-237.556C728.344-250.768 687.214-255.095 634.262-245.951 550.144-231.454 486.057-163.001 440.239-95.8962 401.226-38.4382 326.945-30.2155 267.76-14.5554 194.813 5.0448 121.023 32.2921 54.2497 70.6981-82.8026 149.802-120.436 255.6-109.301 388.245-105.785 428.059-97.9291 491.096-27.2914 561.838-0.48494 588.84 29.3149 608.762 61.8208 622.259 144.521 656.598 244.724 649.322 357.662 611.078 393.491 598.897 427.379 580.73 462.518 566.846 499.236 551.968 537.716 541.824 576.685 536.119 667.462 522.985 762.965 534.398 849.437 503.002 895.226 486.486 936.731 457.826 968.681 420.739 1008.8 374.09 1021.3 311.981 998.602 255.492 977.171 202.116 945.787 186.731 915.258 153.585 878.209 112.553 852.951 83.0042 859.895 27.5285 868.878-42.3521 869.298-192.24 760.163-237.556Z" fill="#FFFFFF" fill-rule="evenodd"/><text fill="#305DBF" font-family="Microsoft JhengHei,Microsoft JhengHei_MSFontService,sans-serif" font-weight="700" font-size="37" transform="translate(398.959 92)">網段計算</text><path d="M80.8439 110.504 218.374 110.504 218.374 170.577 80.8439 170.577Z" fill="#353535" fill-rule="evenodd"/><path d="M218.374 110.504 410.343 110.504 410.343 170.577 218.374 170.577Z" fill="#353535" fill-rule="evenodd"/><path d="M410.343 110.504 856.358 110.504 856.358 170.577 410.343 170.577Z" fill="#353535" fill-rule="evenodd"/><path d="M80.8439 170.577 218.374 170.577 218.374 248.761 80.8439 248.761Z" fill="#CECECE" fill-rule="evenodd"/><path d="M218.374 170.577 410.343 170.577 410.343 248.761 218.374 248.761Z" fill="#CECECE" fill-rule="evenodd"/><path d="M410.343 170.577 856.358 170.577 856.358 248.761 410.343 248.761Z" fill="#CECECE" fill-rule="evenodd"/><path d="M80.8439 248.761 218.374 248.761 218.374 326.945 80.8439 326.945Z" fill="#E8E8E8" fill-rule="evenodd"/><path d="M218.374 248.761 410.343 248.761 410.343 326.945 218.374 326.945Z" fill="#E8E8E8" fill-rule="evenodd"/><path d="M410.343 248.761 856.358 248.761 856.358 326.945 410.343 326.945Z" fill="#E8E8E8" fill-rule="evenodd"/><path d="M80.8439 326.945 218.374 326.945 218.374 405.129 80.8439 405.129Z" fill="#CECECE" fill-rule="evenodd"/><path d="M218.374 326.945 410.343 326.945 410.343 405.129 218.374 405.129Z" fill="#CECECE" fill-rule="evenodd"/><path d="M410.343 326.945 856.358 326.945 856.358 405.129 410.343 405.129Z" fill="#CECECE" fill-rule="evenodd"/><path d="M80.8439 405.129 218.374 405.129 218.374 483.312 80.8439 483.312Z" fill="#E8E8E8" fill-rule="evenodd"/><path d="M218.374 405.129 410.343 405.129 410.343 483.312 218.374 483.312Z" fill="#E8E8E8" fill-rule="evenodd"/><path d="M410.343 405.129 856.358 405.129 856.358 483.312 410.343 483.312Z" fill="#E8E8E8" fill-rule="evenodd"/><path d="M218.374 110.004 218.374 483.812" stroke="#FFFFFF" stroke-linejoin="round" stroke-miterlimit="10" fill="none" fill-rule="evenodd"/><path d="M410.343 110.004 410.343 483.812" stroke="#FFFFFF" stroke-linejoin="round" stroke-miterlimit="10" fill="none" fill-rule="evenodd"/><path d="M80.3439 170.577 856.858 170.577" stroke="#FFFFFF" stroke-linejoin="round" stroke-miterlimit="10" fill="none" fill-rule="evenodd"/><path d="M80.3439 248.761 856.858 248.761" stroke="#FFFFFF" stroke-linejoin="round" stroke-miterlimit="10" fill="none" fill-rule="evenodd"/><path d="M80.3439 326.945 856.858 326.945" stroke="#FFFFFF" stroke-linejoin="round" stroke-miterlimit="10" fill="none" fill-rule="evenodd"/><path d="M80.3439 405.129 856.858 405.129" stroke="#FFFFFF" stroke-linejoin="round" stroke-miterlimit="10" fill="none" fill-rule="evenodd"/><path d="M80.8439 110.004 80.8439 483.812" stroke="#FFFFFF" stroke-linejoin="round" stroke-miterlimit="10" fill="none" fill-rule="evenodd"/><path d="M856.358 110.004 856.358 483.812" stroke="#FFFFFF" stroke-linejoin="round" stroke-miterlimit="10" fill="none" fill-rule="evenodd"/><path d="M80.3439 110.504 856.858 110.504" stroke="#FFFFFF" stroke-linejoin="round" stroke-miterlimit="10" fill="none" fill-rule="evenodd"/><path d="M80.3439 483.312 856.858 483.312" stroke="#FFFFFF" stroke-linejoin="round" stroke-miterlimit="10" fill="none" fill-rule="evenodd"/><text fill="#FFFFFF" font-family="Arial,Arial_MSFontService,sans-serif" font-weight="700" font-size="20" transform="translate(149.609 141)">​</text><text fill="#FFFFFF" font-family="Microsoft JhengHei,Microsoft JhengHei_MSFontService,sans-serif" font-weight="700" font-size="20" transform="translate(284.358 141)">十進制</text><text fill="#FFFFFF" font-family="Arial,Arial_MSFontService,sans-serif" font-weight="700" font-size="20" transform="translate(344.358 141)">​</text><text fill="#FFFFFF" font-family="Microsoft JhengHei,Microsoft JhengHei_MSFontService,sans-serif" font-weight="700" font-size="20" transform="translate(603.35 141)">二進制</text><text fill="#FFFFFF" font-family="Arial,Arial_MSFontService,sans-serif" font-weight="700" font-size="20" transform="translate(663.35 141)">​</text><text font-family="Arial,Arial_MSFontService,sans-serif" font-weight="400" font-size="20" transform="translate(100.692 201)">IP Address​</text><text font-family="Arial,Arial_MSFontService,sans-serif" font-weight="400" font-size="20" transform="translate(239.108 201)">140.125.201.161​</text><text font-family="Arial,Arial_MSFontService,sans-serif" font-weight="400" font-size="20" transform="translate(446.434 201)">10001100.01111101.11001001.10100001​</text><text font-family="Microsoft JhengHei,Microsoft JhengHei_MSFontService,sans-serif" font-weight="400" font-size="20" transform="translate(109.609 279)">子網路遮</text><text font-family="Microsoft JhengHei,Microsoft JhengHei_MSFontService,sans-serif" font-weight="400" font-size="20" transform="translate(139.609 306)">罩</text><text font-family="Arial,Arial_MSFontService,sans-serif" font-weight="400" font-size="20" transform="translate(159.609 306)">​</text><text font-family="Arial,Arial_MSFontService,sans-serif" font-weight="400" font-size="20" transform="translate(250.275 279)">255.255.255.0​</text><text font-family="Arial,Arial_MSFontService,sans-serif" font-weight="400" font-size="20" transform="translate(446.434 279)">11111111.11111111.11111111.00000000​</text><text font-family="Arial,Arial_MSFontService,sans-serif" font-weight="400" font-size="20" transform="translate(108.442 358)">AND</text><text font-family="Microsoft JhengHei,Microsoft JhengHei_MSFontService,sans-serif" font-weight="400" font-size="20" transform="translate(150.776 358)">運算</text><text font-family="Arial,Arial_MSFontService,sans-serif" font-weight="400" font-size="20" transform="translate(190.776 358)">​</text><text font-family="Arial,Arial_MSFontService,sans-serif" font-weight="400" font-size="20" transform="translate(237.692 358)">-----------------------</text><text font-family="Arial,Arial_MSFontService,sans-serif" font-weight="400" font-size="20" transform="translate(391.025 358)">​</text><text font-family="Arial,Arial_MSFontService,sans-serif" font-weight="400" font-size="20" transform="translate(443.35 358)">---------------------------------------------------------</text><text font-family="Arial,Arial_MSFontService,sans-serif" font-weight="400" font-size="20" transform="translate(823.35 358)">​</text><text font-family="Arial,Arial_MSFontService,sans-serif" font-weight="400" font-size="20" transform="translate(100.692 436)">Network IP​</text><text font-family="Arial,Arial_MSFontService,sans-serif" font-weight="400" font-size="20" transform="translate(250.275 436)">140.125.201.0​</text><text font-family="Arial,Arial_MSFontService,sans-serif" font-weight="400" font-size="20" transform="translate(446.434 436)">10001100.01111101.11001001.00000000​</text></g></svg>