<svg width="960" height="540" xmlns="http://www.w3.org/2000/svg" xmlns:xlink="http://www.w3.org/1999/xlink" overflow="hidden"><defs><clipPath id="clip0"><rect x="0" y="0" width="960" height="540"/></clipPath></defs><g clip-path="url(#clip0)"><rect x="0" y="0" width="960" height="540" fill="#305DBF"/><path d="M760.163-237.556C728.344-250.768 687.214-255.095 634.262-245.951 550.144-231.454 486.057-163.001 440.239-95.8962 401.226-38.4382 326.945-30.2155 267.76-14.5554 194.813 5.0448 121.023 32.2921 54.2497 70.6981-82.8026 149.802-120.436 255.6-109.301 388.245-105.785 428.059-97.9291 491.096-27.2914 561.838-0.48494 588.84 29.3149 608.762 61.8208 622.259 144.521 656.598 244.724 649.322 357.662 611.078 393.491 598.897 427.379 580.73 462.518 566.846 499.236 551.968 537.716 541.824 576.685 536.119 667.462 522.985 762.965 534.398 849.437 503.002 895.226 486.486 936.731 457.826 968.681 420.739 1008.8 374.09 1021.3 311.981 998.602 255.492 977.171 202.116 945.787 186.731 915.258 153.585 878.209 112.553 852.951 83.0042 859.895 27.5285 868.878-42.3521 869.298-192.24 760.163-237.556Z" fill="#FFFFFF" fill-rule="evenodd"/><text fill="#305DBF" font-family="Noto Sans,Noto Sans_MSFontService,sans-serif" font-weight="700" font-size="37" transform="translate(334.793 92)">DHCP Spoofing</text><path d="M164.113 172.315 226.113 172.315 226.113 200.315 164.113 200.315Z" fill="#FFFFFF" fill-rule="evenodd"/><path d="M226.113 172.315 231.446 172.315 231.446 200.315 226.113 200.315Z" fill="#FFFFFF" fill-rule="evenodd"/><path d="M231.446 172.315 259.78 172.315 259.78 200.315 231.446 200.315Z" fill="#FFFFFF" fill-rule="evenodd"/><path d="M259.78 172.315 445.78 172.315 445.78 200.315 259.78 200.315Z" fill="#FFFFFF" fill-rule="evenodd"/><path d="M445.78 172.315 451.113 172.315 451.113 200.315 445.78 200.315Z" fill="#FFFFFF" fill-rule="evenodd"/><path d="M451.113 172.315 579.946 172.315 579.946 200.315 451.113 200.315Z" fill="#FFFFFF" fill-rule="evenodd"/><path d="M579.946 172.315 745.28 172.315 745.28 200.315 579.946 200.315Z" fill="#FFFFFF" fill-rule="evenodd"/><path d="M745.28 172.315 750.613 172.315 750.613 200.315 745.28 200.315Z" fill="#FFFFFF" fill-rule="evenodd"/><path d="M750.613 172.315 778.946 172.315 778.946 200.315 750.613 200.315Z" fill="#FFFFFF" fill-rule="evenodd"/><path d="M164.113 214.315 784.113 214.315 784.113 242.315 164.113 242.315Z" fill="#FFFFFF" fill-rule="evenodd"/><path d="M164.113 256.315 308.78 256.315 308.78 284.315 164.113 284.315Z" fill="#FFFFFF" fill-rule="evenodd"/><path d="M212.113 325.315 377.446 325.315 377.446 353.315 212.113 353.315Z" fill="#FFFFFF" fill-rule="evenodd"/><path d="M212.113 367.315 439.446 367.315 439.446 395.315 212.113 395.315Z" fill="#FFFFFF" fill-rule="evenodd"/><path d="M212.113 409.315 418.78 409.315 418.78 437.315 212.113 437.315Z" fill="#FFFFFF" fill-rule="evenodd"/><text fill="#303233" font-family="Microsoft JhengHei,Microsoft JhengHei_MSFontService,sans-serif" font-weight="700" font-size="21" transform="translate(164.113 195)">當一個</text><text fill="#303233" font-family="Noto Sans,Noto Sans_MSFontService,sans-serif" font-weight="700" font-size="21" transform="translate(226.113 195)"></text><text fill="#303233" font-family="Noto Sans,Noto Sans_MSFontService,sans-serif" font-weight="700" font-size="21" transform="translate(231.446 195)">L2</text><text fill="#303233" font-family="Microsoft JhengHei,Microsoft JhengHei_MSFontService,sans-serif" font-weight="700" font-size="21" transform="translate(259.78 195)">網段中同時存在兩台</text><text fill="#303233" font-family="Noto Sans,Noto Sans_MSFontService,sans-serif" font-weight="700" font-size="21" transform="translate(445.78 195)"></text><text fill="#303233" font-family="Noto Sans,Noto Sans_MSFontService,sans-serif" font-weight="700" font-size="21" transform="translate(451.113 195)">DHCP Server</text><text fill="#303233" font-family="Microsoft JhengHei,Microsoft JhengHei_MSFontService,sans-serif" font-weight="700" font-size="21" transform="translate(579.946 195)">，且派發的是不同</text><text fill="#303233" font-family="Noto Sans,Noto Sans_MSFontService,sans-serif" font-weight="700" font-size="21" transform="translate(745.28 195)"></text><text fill="#303233" font-family="Noto Sans,Noto Sans_MSFontService,sans-serif" font-weight="700" font-size="21" transform="translate(750.613 195)">L3</text><text fill="#303233" font-family="Microsoft JhengHei,Microsoft JhengHei_MSFontService,sans-serif" font-weight="700" font-size="21" transform="translate(164.113 237)">網段的設定這樣就極有可能造成終端設備拿到錯誤的設定，可能發生</text><text fill="#303233" font-family="Microsoft JhengHei,Microsoft JhengHei_MSFontService,sans-serif" font-weight="700" font-size="21" transform="translate(164.113 279)">一下幾種情況：</text><text fill="#303233" font-family="Noto Sans,Noto Sans_MSFontService,sans-serif" font-weight="700" font-size="21" transform="translate(177.78 348)">1.</text><text fill="#303233" font-family="Microsoft JhengHei,Microsoft JhengHei_MSFontService,sans-serif" font-weight="700" font-size="21" transform="translate(212.113 348)">終端設備無法上網</text><text fill="#303233" font-family="Noto Sans,Noto Sans_MSFontService,sans-serif" font-weight="700" font-size="21" transform="translate(177.78 390)">2.</text><text fill="#303233" font-family="Microsoft JhengHei,Microsoft JhengHei_MSFontService,sans-serif" font-weight="700" font-size="21" transform="translate(212.113 390)">所有對非區網流量遭劫持</text><text fill="#303233" font-family="Noto Sans,Noto Sans_MSFontService,sans-serif" font-weight="700" font-size="21" transform="translate(177.78 432)">3.</text><text fill="#303233" font-family="Microsoft JhengHei,Microsoft JhengHei_MSFontService,sans-serif" font-weight="700" font-size="21" transform="translate(212.113 432)">特定流量、設定遭竄改</text></g></svg>