<svg width="960" height="540" xmlns="http://www.w3.org/2000/svg" xmlns:xlink="http://www.w3.org/1999/xlink" overflow="hidden"><defs><clipPath id="clip0"><rect x="0" y="0" width="960" height="540"/></clipPath></defs><g clip-path="url(#clip0)"><rect x="0" y="0" width="960" height="540" fill="#FFFFFF"/><path d="M779.608-186.317C750.398-198.431 712.683-202.48 664.18-194.295 587.127-181.319 528.621-119.163 486.856-58.1852 451.296-5.97311 383.238 1.31641 329.044 15.4178 262.249 33.0701 194.707 57.6829 133.635 92.4745 8.28661 164.135-25.8426 260.365-15.1786 381.168-11.8177 417.428-4.39978 474.844 60.5909 539.443 85.2548 564.099 112.638 582.317 142.479 594.693 218.401 626.178 310.221 619.819 413.608 585.298 446.406 574.302 477.406 557.852 509.566 545.303 543.171 531.854 578.406 522.721 614.104 517.629 697.266 505.912 784.843 516.557 863.995 488.201 905.907 473.285 943.852 447.3 973.009 413.616 1009.62 371.249 1020.87 314.732 999.864 263.238 980.036 214.582 951.216 200.491 923.119 170.23 889.019 132.771 865.765 105.8 871.938 55.308 879.931-8.29471 879.798-144.767 779.608-186.317Z" fill="#305DBF" fill-rule="evenodd"/><text fill="#FFFFFF" font-family="Noto Sans,Noto Sans_MSFontService,sans-serif" font-weight="700" font-size="37" transform="translate(395.417 91)">MAC</text><text fill="#FFFFFF" font-family="Microsoft JhengHei,Microsoft JhengHei_MSFontService,sans-serif" font-weight="700" font-size="37" transform="translate(489.917 91)">位址</text><text fill="#FFFFFF" font-family="Noto Sans,Noto Sans_MSFontService,sans-serif" font-weight="700" font-size="60" transform="translate(217.167 246)">08</text><text fill="#FFFFFF" font-family="Noto Sans,Noto Sans_MSFontService,sans-serif" font-weight="700" font-size="60" transform="translate(283.167 246)">-</text><text fill="#FFFFFF" font-family="Noto Sans,Noto Sans_MSFontService,sans-serif" font-weight="700" font-size="60" transform="translate(305.167 246)">20</text><text fill="#FFFFFF" font-family="Noto Sans,Noto Sans_MSFontService,sans-serif" font-weight="700" font-size="60" transform="translate(371.167 246)">-</text><text fill="#FFFFFF" font-family="Noto Sans,Noto Sans_MSFontService,sans-serif" font-weight="700" font-size="60" transform="translate(393.167 246)">12</text><text fill="#FFFFFF" font-family="Noto Sans,Noto Sans_MSFontService,sans-serif" font-weight="700" font-size="60" transform="translate(459.167 246)">-</text><text fill="#FFFFFF" font-family="Noto Sans,Noto Sans_MSFontService,sans-serif" font-weight="700" font-size="60" transform="translate(481.167 246)">6A</text><text fill="#FFFFFF" font-family="Noto Sans,Noto Sans_MSFontService,sans-serif" font-weight="700" font-size="60" transform="translate(555.5 246)">-</text><text fill="#FFFFFF" font-family="Noto Sans,Noto Sans_MSFontService,sans-serif" font-weight="700" font-size="60" transform="translate(577.5 246)">34</text><text fill="#FFFFFF" font-family="Noto Sans,Noto Sans_MSFontService,sans-serif" font-weight="700" font-size="60" transform="translate(643.5 246)">-</text><text fill="#FFFFFF" font-family="Noto Sans,Noto Sans_MSFontService,sans-serif" font-weight="700" font-size="60" transform="translate(665.5 246)">8D</text><path d="M455 261C455 269.837 447.837 277 439 277L358 277C349.163 277 342 284.163 342 293 342 284.163 334.837 277 326 277L245 277C236.163 277 229 269.837 229 261" stroke="#FFFFFF" stroke-width="12" stroke-linejoin="round" stroke-miterlimit="10" fill="none" fill-rule="evenodd"/><path d="M725 261C725 269.837 717.837 277 709 277L628 277C619.163 277 612 284.163 612 293 612 284.163 604.837 277 596 277L515 277C506.163 277 499 269.837 499 261" stroke="#FFFFFF" stroke-width="12" stroke-linejoin="round" stroke-miterlimit="10" fill="none" fill-rule="evenodd"/><text fill="#FFFFFF" font-family="Microsoft JhengHei,Microsoft JhengHei_MSFontService,sans-serif" font-weight="700" font-size="25" transform="translate(278.926 343)">製造商代號</text><text fill="#FFFFFF" font-family="Microsoft JhengHei,Microsoft JhengHei_MSFontService,sans-serif" font-weight="700" font-size="25" transform="translate(557.005 343)">網卡序號</text><text fill="#E0E0E0" font-family="Microsoft JhengHei,Microsoft JhengHei_MSFontService,sans-serif" font-weight="700" font-size="20" transform="translate(168.755 415)">每一張網路卡都有唯一的一個</text><text fill="#E0E0E0" font-family="Noto Sans,Noto Sans_MSFontService,sans-serif" font-weight="700" font-size="20" transform="translate(433.922 415)">MAC</text><text fill="#E0E0E0" font-family="Microsoft JhengHei,Microsoft JhengHei_MSFontService,sans-serif" font-weight="700" font-size="20" transform="translate(484.422 415)">位址</text><text fill="#E0E0E0" font-family="Noto Sans,Noto Sans_MSFontService,sans-serif" font-weight="700" font-size="20" transform="translate(524.422 415)">,</text><text fill="#E0E0E0" font-family="Microsoft JhengHei,Microsoft JhengHei_MSFontService,sans-serif" font-weight="700" font-size="20" transform="translate(530.255 415)">它是由</text><text fill="#E0E0E0" font-family="Noto Sans,Noto Sans_MSFontService,sans-serif" font-weight="700" font-size="20" transform="translate(595.422 415)">6</text><text fill="#E0E0E0" font-family="Microsoft JhengHei,Microsoft JhengHei_MSFontService,sans-serif" font-weight="700" font-size="20" transform="translate(611.589 415)">組數字組成</text><text fill="#E0E0E0" font-family="Noto Sans,Noto Sans_MSFontService,sans-serif" font-weight="700" font-size="20" transform="translate(711.589 415)">,</text><text fill="#E0E0E0" font-family="Microsoft JhengHei,Microsoft JhengHei_MSFontService,sans-serif" font-weight="700" font-size="20" transform="translate(722.589 415)">每組數字佔用</text><text fill="#E0E0E0" font-family="Noto Sans,Noto Sans_MSFontService,sans-serif" font-weight="700" font-size="20" transform="translate(162.255 451)">1byte,</text><text fill="#E0E0E0" font-family="Microsoft JhengHei,Microsoft JhengHei_MSFontService,sans-serif" font-weight="700" font-size="20" transform="translate(228.755 451)">總長度為</text><text fill="#E0E0E0" font-family="Noto Sans,Noto Sans_MSFontService,sans-serif" font-weight="700" font-size="20" transform="translate(313.922 451)">6bytes,</text><text fill="#E0E0E0" font-family="Microsoft JhengHei,Microsoft JhengHei_MSFontService,sans-serif" font-weight="700" font-size="20" transform="translate(390.422 451)">通常以</text><text fill="#E0E0E0" font-family="Noto Sans,Noto Sans_MSFontService,sans-serif" font-weight="700" font-size="20" transform="translate(450.422 451)">16</text><text fill="#E0E0E0" font-family="Microsoft JhengHei,Microsoft JhengHei_MSFontService,sans-serif" font-weight="700" font-size="20" transform="translate(472.422 451)">進位表示</text><text fill="#E0E0E0" font-family="Noto Sans,Noto Sans_MSFontService,sans-serif" font-weight="700" font-size="20" transform="translate(552.422 451)">,</text><text fill="#E0E0E0" font-family="Microsoft JhengHei,Microsoft JhengHei_MSFontService,sans-serif" font-weight="700" font-size="20" transform="translate(563.422 451)">每一個</text><text fill="#E0E0E0" font-family="Noto Sans,Noto Sans_MSFontService,sans-serif" font-weight="700" font-size="20" transform="translate(628.589 451)">byte</text><text fill="#E0E0E0" font-family="Microsoft JhengHei,Microsoft JhengHei_MSFontService,sans-serif" font-weight="700" font-size="20" transform="translate(678.255 451)">的範圍為</text><text fill="#E0E0E0" font-family="Noto Sans,Noto Sans_MSFontService,sans-serif" font-weight="700" font-size="20" transform="translate(763.422 451)">00 ~ FF</text><text fill="#E0E0E0" font-family="Microsoft JhengHei,Microsoft JhengHei_MSFontService,sans-serif" font-weight="700" font-size="20" transform="translate(829.089 451)">。</text></g></svg>