<svg width="960" height="540" xmlns="http://www.w3.org/2000/svg" xmlns:xlink="http://www.w3.org/1999/xlink" overflow="hidden"><defs><clipPath id="clip0"><rect x="0" y="0" width="960" height="540"/></clipPath></defs><g clip-path="url(#clip0)"><rect x="0" y="0" width="960" height="540" fill="#305DBF"/><path d="M445 165.5C445 145.894 460.67 130 480 130 499.33 130 515 145.894 515 165.5 515 185.106 499.33 201 480 201 460.67 201 445 185.106 445 165.5Z" fill="#FFFFFF" fill-rule="evenodd"/><path d="M729 165.5C729 145.894 744.67 130 764 130 783.33 130 799 145.894 799 165.5 799 185.106 783.33 201 764 201 744.67 201 729 185.106 729 165.5Z" fill="#FFFFFF" fill-rule="evenodd"/><path d="M729 359C729 339.67 744.67 324 764 324 783.33 324 799 339.67 799 359 799 378.33 783.33 394 764 394 744.67 394 729 378.33 729 359Z" fill="#FFFFFF" fill-rule="evenodd"/><path d="M445 359C445 339.67 460.67 324 480 324 499.33 324 515 339.67 515 359 515 378.33 499.33 394 480 394 460.67 394 445 378.33 445 359Z" fill="#FFFFFF" fill-rule="evenodd"/><path d="M161 359C161 339.67 176.67 324 196 324 215.33 324 231 339.67 231 359 231 378.33 215.33 394 196 394 176.67 394 161 378.33 161 359Z" fill="#FFFFFF" fill-rule="evenodd"/><path d="M161 165.5C161 145.894 176.67 130 196 130 215.33 130 231 145.894 231 165.5 231 185.106 215.33 201 196 201 176.67 201 161 185.106 161 165.5Z" fill="#FFFFFF" fill-rule="evenodd"/><text fill="#FFFFFF" font-family="Microsoft JhengHei,Microsoft JhengHei_MSFontService,sans-serif" font-weight="700" font-size="37" transform="translate(368 91)">網路基本知識</text><text fill="#FFFFFF" font-family="Microsoft JhengHei,Microsoft JhengHei_MSFontService,sans-serif" font-weight="700" font-size="33" transform="translate(112.667 241)">網路是甚麼</text><text fill="#FFFFFF" font-family="Microsoft JhengHei,Microsoft JhengHei_MSFontService,sans-serif" font-weight="700" font-size="33" transform="translate(413.333 241)">傳輸媒介</text><text fill="#FFFFFF" font-family="Microsoft JhengHei,Microsoft JhengHei_MSFontService,sans-serif" font-weight="700" font-size="33" transform="translate(697.333 241)">網路架構</text><text fill="#FFFFFF" font-family="Microsoft JhengHei,Microsoft JhengHei_MSFontService,sans-serif" font-weight="700" font-size="33" transform="translate(129.333 434)">網路拓樸</text><text fill="#FFFFFF" font-family="Microsoft JhengHei,Microsoft JhengHei_MSFontService,sans-serif" font-weight="700" font-size="33" transform="translate(413.333 434)">網路硬體</text><text fill="#FFFFFF" font-family="Microsoft JhengHei,Microsoft JhengHei_MSFontService,sans-serif" font-weight="700" font-size="33" transform="translate(697.333 434)">基本運作</text><text fill="#305DBF" font-family="Fredoka One,Fredoka One_MSFontService,sans-serif" font-weight="400" font-size="35" transform="translate(174.323 177)">1</text><text fill="#305DBF" font-family="Fredoka One,Fredoka One_MSFontService,sans-serif" font-weight="400" font-size="35" transform="translate(188.489 177)">-</text><text fill="#305DBF" font-family="Fredoka One,Fredoka One_MSFontService,sans-serif" font-weight="400" font-size="35" transform="translate(203.489 177)">1</text><text fill="#305DBF" font-family="Fredoka One,Fredoka One_MSFontService,sans-serif" font-weight="400" font-size="35" transform="translate(171.198 374)">1</text><text fill="#305DBF" font-family="Fredoka One,Fredoka One_MSFontService,sans-serif" font-weight="400" font-size="35" transform="translate(185.365 374)">-</text><text fill="#305DBF" font-family="Fredoka One,Fredoka One_MSFontService,sans-serif" font-weight="400" font-size="35" transform="translate(200.365 374)">4</text><text fill="#305DBF" font-family="Fredoka One,Fredoka One_MSFontService,sans-serif" font-weight="400" font-size="35" transform="translate(454.828 177)">1</text><text fill="#305DBF" font-family="Fredoka One,Fredoka One_MSFontService,sans-serif" font-weight="400" font-size="35" transform="translate(468.995 177)">-</text><text fill="#305DBF" font-family="Fredoka One,Fredoka One_MSFontService,sans-serif" font-weight="400" font-size="35" transform="translate(483.995 177)">2</text><text fill="#305DBF" font-family="Fredoka One,Fredoka One_MSFontService,sans-serif" font-weight="400" font-size="35" transform="translate(456.25 376)">1</text><text fill="#305DBF" font-family="Fredoka One,Fredoka One_MSFontService,sans-serif" font-weight="400" font-size="35" transform="translate(470.417 376)">-</text><text fill="#305DBF" font-family="Fredoka One,Fredoka One_MSFontService,sans-serif" font-weight="400" font-size="35" transform="translate(485.417 376)">5</text><text fill="#305DBF" font-family="Fredoka One,Fredoka One_MSFontService,sans-serif" font-weight="400" font-size="35" transform="translate(738.922 177)">1</text><text fill="#305DBF" font-family="Fredoka One,Fredoka One_MSFontService,sans-serif" font-weight="400" font-size="35" transform="translate(753.089 177)">-</text><text fill="#305DBF" font-family="Fredoka One,Fredoka One_MSFontService,sans-serif" font-weight="400" font-size="35" transform="translate(768.089 177)">3</text><text fill="#305DBF" font-family="Fredoka One,Fredoka One_MSFontService,sans-serif" font-weight="400" font-size="35" transform="translate(739.734 376)">1</text><text fill="#305DBF" font-family="Fredoka One,Fredoka One_MSFontService,sans-serif" font-weight="400" font-size="35" transform="translate(753.901 376)">-</text><text fill="#305DBF" font-family="Fredoka One,Fredoka One_MSFontService,sans-serif" font-weight="400" font-size="35" transform="translate(768.901 376)">6</text><path d="M227 130C227 127.239 229.239 125 232 125 234.761 125 237 127.239 237 130 237 132.761 234.761 135 232 135 229.239 135 227 132.761 227 130Z" fill="#FFFFFF" fill-rule="evenodd"/><path d="M724 334C724 331.239 726.239 329 729 329 731.761 329 734 331.239 734 334 734 336.761 731.761 339 729 339 726.239 339 724 336.761 724 334Z" fill="#FFFFFF" fill-rule="evenodd"/><path d="M745 314C745 312.895 745.895 312 747 312 748.105 312 749 312.895 749 314 749 315.105 748.105 316 747 316 745.895 316 745 315.105 745 314Z" fill="#FFFFFF" fill-rule="evenodd"/><path d="M443.531 327.692C439.749 324.315 434.185 324.629 430.811 328.407 427.529 332.082 427.844 337.645 431.625 341.022 435.3 344.304 440.864 343.99 444.145 340.315 447.519 336.537 447.205 330.973 443.531 327.692Z" fill="#FFFFFF" fill-rule="evenodd"/></g></svg>