<svg width="960" height="540" xmlns="http://www.w3.org/2000/svg" xmlns:xlink="http://www.w3.org/1999/xlink" overflow="hidden"><defs><clipPath id="clip0"><rect x="0" y="0" width="960" height="540"/></clipPath></defs><g clip-path="url(#clip0)"><rect x="0" y="0" width="960" height="540" fill="#305DBF"/><path d="M760.888 49.6479C744.09 34.6461 719.681 23.0716 685.145 17.1913 630.288 7.83179 576.357 35.8961 533.96 67.0965 497.792 93.859 450.319 82.7871 410.567 79.5494 361.51 75.7422 310.316 76.44 261.084 85.5008 159.977 104.267 114.439 160.964 93.2518 244.699 87 269.87 78.5099 310.219 107.046 368.911 117.843 391.279 131.979 409.957 149.14 425.283 192.799 464.274 256.033 481.548 333.655 482.601 358.291 482.905 382.996 479.119 407.567 478.229 433.32 477.073 459.157 479.201 484.356 484.156 543.025 495.796 599.414 523.509 659.293 523.019 690.977 522.826 722.591 514.259 750.104 498.453 784.666 478.556 805.496 443.192 803.461 403.637 801.55 366.266 785.479 350.026 773.69 323.083 759.554 289.891 750.249 266.298 766.252 233.794 786.557 192.902 818.503 101.103 760.888 49.6479Z" fill="#FFFFFF" fill-rule="evenodd"/><path d="M510.792 28.7037C502.397 21.2059 489.677 21.9211 482.272 30.213 474.771 38.6121 475.493 51.3312 483.889 58.829 492.184 66.2374 504.9 65.5191 512.401 57.1201 519.806 48.8281 519.088 36.1121 510.792 28.7037Z" fill="#FFFFFF" fill-rule="evenodd"/><path d="M544.977 28.4963C541.195 25.119 535.631 25.4333 532.257 29.2115 528.976 32.8861 529.29 38.4497 533.072 41.827 536.746 45.1087 542.31 44.7944 545.591 41.1198 548.966 37.3416 548.651 31.778 544.977 28.4963Z" fill="#FFFFFF" fill-rule="evenodd"/><text fill="#305DBF" font-family="Microsoft JhengHei,Microsoft JhengHei_MSFontService,sans-serif" font-weight="700" font-size="96" transform="translate(267.291 253)">加分時間</text><text font-family="Microsoft JhengHei,Microsoft JhengHei_MSFontService,sans-serif" font-weight="700" font-size="24" transform="translate(140.887 320)">小明今天看到一個遮罩</text><text font-family="Noto Sans,Noto Sans_MSFontService,sans-serif" font-weight="700" font-size="24" transform="translate(387.054 320)">255.255.248.0</text><text font-family="Microsoft JhengHei,Microsoft JhengHei_MSFontService,sans-serif" font-weight="700" font-size="24" transform="translate(539.22 320)">，他想知道這一段</text><text font-family="Microsoft JhengHei,Microsoft JhengHei_MSFontService,sans-serif" font-weight="700" font-size="24" transform="translate(140.887 364)">網路有多少主機可以使用，請問要怎麼計算呢？</text><text fill="#FF0000" font-family="Microsoft JhengHei,Microsoft JhengHei_MSFontService,sans-serif" font-weight="700" font-size="25" transform="translate(567.654 466)">會的可獲得</text><text fill="#FF0000" font-family="Noto Sans,Noto Sans_MSFontService,sans-serif" font-weight="700" font-size="25" transform="translate(700.82 466)">300</text><text fill="#FF0000" font-family="Microsoft JhengHei,Microsoft JhengHei_MSFontService,sans-serif" font-weight="700" font-size="25" transform="translate(749.32 466)">分</text></g></svg>