<svg width="960" height="540" xmlns="http://www.w3.org/2000/svg" xmlns:xlink="http://www.w3.org/1999/xlink" overflow="hidden"><defs><clipPath id="clip0"><rect x="0" y="0" width="960" height="540"/></clipPath></defs><g clip-path="url(#clip0)"><rect x="0" y="0" width="960" height="540" fill="#305DBF"/><path d="M760.888 49.6479C744.09 34.6461 719.681 23.0716 685.145 17.1913 630.288 7.83179 576.357 35.8961 533.96 67.0965 497.792 93.859 450.319 82.7871 410.567 79.5494 361.51 75.7422 310.316 76.44 261.084 85.5008 159.977 104.267 114.439 160.964 93.2518 244.699 87 269.87 78.5099 310.219 107.046 368.911 117.843 391.279 131.979 409.957 149.14 425.283 192.799 464.274 256.033 481.548 333.655 482.601 358.291 482.905 382.996 479.119 407.567 478.229 433.32 477.073 459.157 479.201 484.356 484.156 543.025 495.796 599.414 523.509 659.293 523.019 690.977 522.826 722.591 514.259 750.104 498.453 784.666 478.556 805.496 443.192 803.461 403.637 801.55 366.266 785.479 350.026 773.69 323.083 759.554 289.891 750.249 266.298 766.252 233.794 786.557 192.902 818.503 101.103 760.888 49.6479Z" fill="#FFFFFF" fill-rule="evenodd"/><path d="M810.086 254.983C801.691 247.485 788.971 248.201 781.566 256.493 774.065 264.892 774.787 277.611 783.183 285.109 791.478 292.517 804.194 291.799 811.695 283.4 819.1 275.108 818.382 262.392 810.086 254.983Z" fill="#FFFFFF" fill-rule="evenodd"/><path d="M807.969 218.474C804.187 215.097 798.624 215.411 795.249 219.189 791.968 222.864 792.282 228.427 796.064 231.805 799.738 235.086 805.302 234.772 808.584 231.097 811.958 227.319 811.643 221.756 807.969 218.474Z" fill="#FFFFFF" fill-rule="evenodd"/><text fill="#305DBF" font-family="Microsoft JhengHei,Microsoft JhengHei_MSFontService,sans-serif" font-weight="700" font-size="63" transform="translate(401.912 271)">外修通靈</text><text fill="#263238" font-family="PMingLiU,PMingLiU_MSFontService,sans-serif" font-weight="700" font-size="27" transform="translate(386.667 328)">通靈是基本技術</text><path d="M386.587 321.268 480.087 321.268 573.587 321.268 573.587 322.268 480.087 322.268 386.587 322.268Z" fill="#263238" fill-rule="evenodd"/><text fill="#305DBF" font-family="Fredoka One,Fredoka One_MSFontService,sans-serif" font-weight="400" font-size="67" transform="translate(280.472 273)">3</text><path d="M17.1835 0C12.6051 0 7.9505 2.33641 6.13439 6.49619 3.95283 11.4933 6.13439 17.2987 8.86079 22.0226 12.8136 29.1118 17.7888 35.5925 23.5802 41.1958 24.6026 42.2086 25.7618 43.3546 26.0353 44.7737 26.4434 47.4055 23.6497 49.431 21.0601 49.9041 20.3673 50.0151 19.67 50.0595 18.9727 50.0595 16.7149 50.0595 14.4369 49.602 12.1993 49.4976 11.9773 49.4888 11.7553 49.4821 11.5289 49.4821 8.71729 49.4821 5.74651 50.2949 4.29363 52.6713 2.18157 56.2492 4.70393 60.7044 7.43033 63.8092 12.8809 70.0212 19.4233 75.2181 26.6474 79.2691 29.237 80.686 32.0329 82.0363 33.9409 84.3305 35.849 86.627 36.6651 90.136 34.8938 92.5679 33.7347 94.1137 31.8132 94.7933 29.8222 94.7933 28.7729 94.7933 27.7034 94.6045 26.7169 94.2558 23.921 93.2431 21.6049 91.2842 19.0153 89.8673 16.5467 88.4548 13.5984 87.5886 10.7711 87.5886 8.05363 87.5886 5.44607 88.3882 3.4775 90.2715 0.887873 92.8367 0.0022421 96.821 0.547073 100.466 1.0919 104.11 2.86317 107.419 4.77119 110.524 11.4504 121.393 20.7865 130.777 32.0329 136.784 40.5462 141.282 48.8644 144 57.844 144 60.7251 144 63.6757 143.72 66.7205 143.129L66.7878 143.129C88.3232 132.8 96.7064 108.634 99.5 86.2206 99.9776 82.4405 101 78.5939 99.7736 75.016 98.6592 71.9356 95.6772 69.4082 92.5652 69.4082 92.0607 69.4082 91.554 69.4748 91.0495 69.6147 88.0519 70.492 86.2806 73.5302 84.3031 75.9599 81.6462 79.1336 78.1014 81.5633 74.1486 82.9136 72.9064 83.3023 71.5567 83.5821 70.2451 83.5821 68.8213 83.5821 67.4469 83.2512 66.3124 82.3739 63.382 80.0797 63.6533 75.6223 64.2676 71.8423 65.4246 64.9575 66.5837 58.0726 67.7429 51.1855 68.355 47.4722 68.9693 43.6922 68.4245 39.981 67.8102 36.2676 65.7654 32.6209 62.3596 31.0684 61.4134 30.6376 60.3686 30.431 59.3238 30.431 56.5996 30.431 53.871 31.8391 52.8867 34.3776 52.3396 35.7946 52.4091 37.4136 51.9988 38.9683 51.658 40.4518 50.7052 42.0731 49.1379 42.2752 49.0258 42.2885 48.9182 42.2974 48.8083 42.2974 47.3891 42.2974 46.2075 41.1048 45.3219 39.9121 42.0506 35.5236 40.2099 30.3267 38.5059 25.1297 36.8019 19.9305 35.2346 14.6647 32.3715 10.0075 29.5106 5.41682 25.2169 1.43471 19.9009 0.286499 19.013 0.0954996 18.1005 0 17.1835 0Z" fill="#EBEBEB" fill-rule="evenodd" transform="matrix(-1 0 0 1 702 400)"/><path d="M0.00222746 0 0.00222746 0C0.0690512 0.136267 0.135875 0.272534 0.27175 0.408801L1.22065 1.56372C2.10049 2.58014 3.31891 4.14386 4.80908 6.11191 9.20831 11.6788 13.1353 17.5874 16.5901 23.6971 18.8242 27.6354 21.0584 31.9825 23.3593 36.734 25.6625 41.4877 28.1662 46.581 30.5362 52.0116 33.0421 57.6477 35.2762 63.487 37.1718 69.3957 38.1875 72.5187 38.9315 75.6416 39.8114 78.9009 40.6244 82.1601 41.4374 85.4864 42.2482 88.8148 45.4981 101.309 48.073 114.006 49.8995 126.838 51.3897 138.653 51.0511 133.899 50.5098 142.998L51.0511 142.931C51.5924 133.899 51.9978 138.586 50.5098 126.704 48.7479 113.87 46.1752 101.173 42.9944 88.6786 42.1145 85.2831 41.3015 82.0238 40.4885 78.7646 39.6755 75.5054 38.8647 72.3154 37.849 69.1902 35.9534 63.2838 33.7193 57.4444 31.1465 51.7413 28.7765 46.3085 26.2706 41.2174 23.9006 36.4637 21.5997 31.71 19.2965 27.3651 16.9955 23.4938 13.4739 17.3149 9.48006 11.4755 5.0786 5.90863 3.45479 4.00759 2.23637 2.51312 1.35429 1.49447L0.340801 0.408801C0.204926 0.272534 0.135875 0.136267 0.00222746 0Z" fill="#E0E0E0" fill-rule="evenodd" transform="matrix(-1 0 0 1 689 402)"/><path d="M12 0 12 0C11.7264 0.474256 11.4528 1.01531 11.2487 1.48956 10.8406 2.50487 10.2956 3.92541 9.6139 5.68661 8.3177 9.27359 6.81966 14.2811 5.31938 19.8297 3.8191 25.4473 2.52514 30.3212 1.50252 34.1108L0.343113 38.4414C0.139039 38.9157 0.00224257 39.4567 0.00224257 39.9978 0.206317 39.5235 0.410391 38.9825 0.616707 38.4414 0.957578 37.4929 1.433 36.0056 1.97795 34.2444 3.13736 30.6596 4.50084 25.5831 6.00112 20.0323 7.49916 14.4169 8.93216 9.40718 10.0916 5.82021 10.7038 4.06123 11.1815 2.57167 11.5223 1.62538 11.7264 1.08433 11.8632 0.541052 12 0Z" fill="#E0E0E0" fill-rule="evenodd" transform="matrix(-1 0 0 1 652 431)"/><path d="M0.0022092 0.00215692 0.0022092 0.00215692C0.605321 0.198436 1.27692 0.394716 1.88224 0.526287 3.09067 0.787274 4.83594 1.2467 6.91701 1.83769 11.1476 2.95066 16.991 4.72149 23.3689 6.95174 29.7491 9.17983 35.3892 11.4079 39.4188 13.1788 41.4999 14.0307 43.1126 14.7533 44.2525 15.2774 44.7894 15.6053 45.3947 15.8016 46 15.9978 45.461 15.67 44.9241 15.3421 44.321 15.0812 43.2451 14.4902 41.6346 13.6382 39.6198 12.7193 35.5902 10.8838 29.9501 8.52413 23.57 6.29604 18.1309 4.39364 12.6256 2.75438 7.05177 1.37827 4.90222 0.854139 3.09067 0.526287 1.88224 0.263144 1.27692 0.131572 0.671597 0.0668644 0.0022092 0.00215692Z" fill="#E0E0E0" fill-rule="evenodd" transform="matrix(-1 0 0 1 698 455)"/><path d="M32.9978 0 32.9978 0C32.9978 0 32.8673 0.207505 32.6019 0.55034 32.3365 0.89092 31.9405 1.50892 31.5446 2.19459 30.6178 3.56593 29.3626 5.69061 27.7745 8.22804 24.6679 13.3683 20.6323 20.7054 16.203 28.7936 11.839 36.8841 7.80566 44.2189 4.82959 49.4314 3.37418 52.0365 2.18419 54.0912 1.25961 55.6701 0.861494 56.2858 0.59826 56.9038 0.33285 57.382 0.200145 57.5895 0.0674402 57.7948 0.00217549 58 0.200145 57.8624 0.33285 57.6572 0.398115 57.4519L1.52284 55.8054C2.4496 54.4341 3.70486 52.3793 5.22553 49.7742 8.3343 44.6317 12.4329 37.2968 16.797 29.2064 21.2284 21.1159 25.1965 13.7811 28.1726 8.57087L31.7426 2.33218 32.7346 0.618005C32.8673 0.412755 32.9326 0.207505 32.9978 0Z" fill="#E0E0E0" fill-rule="evenodd" transform="matrix(-1 0 0 1 639 470)"/><path d="M0.00225483 0 0.00225483 0C0.207445 0.137637 0.412634 0.275275 0.617824 0.342965L2.3315 1.30417 8.9111 4.66388C14.3949 7.47529 22.0027 11.4532 30.2959 15.8441 38.6569 20.165 46.2647 24.1407 51.8837 26.8167 54.6256 28.1886 56.8872 29.2175 58.4633 29.9711L60.3145 30.7247C60.5197 30.8624 60.7249 30.9323 61 31 61 31 60.7948 30.8624 60.3822 30.657L58.6708 29.6958 52.1588 26.4061C46.6074 23.5924 39.0672 19.6145 30.7063 15.1582 22.413 10.7673 14.7376 6.85931 9.18619 4.18327 6.37667 2.81141 4.11507 1.78252 2.53669 1.0289L0.755369 0.275275C0.482534 0.137637 0.27509 0.0699469 0.00225483 0Z" fill="#E0E0E0" fill-rule="evenodd" transform="matrix(-1 0 0 1 700 497)"/><path d="M42.777 0.00223647C41.0652 0.00223647 36.8211 1.18309 34.8666 12.323 32.385 26.5313 32.1842 34.2806 32.1842 34.2806 32.1842 34.2806 31.5644 36.5082 30.0401 36.5082 29.7577 36.5082 29.4445 36.4321 29.1004 36.251 27.2298 35.3027 24.4084 32.3841 21.9003 32.3841 21.3532 32.3841 20.8216 32.5228 20.3164 32.8515 17.5017 34.6877 17.5679 38.4271 19.6458 43.3898 21.7922 48.2832 26.0827 59.2956 26.418 60.2483 26.7709 61.0825 26.7114 62.4401 25.5599 62.4401 25.3989 62.4401 25.2158 62.4132 25.0106 62.3551 23.815 61.9682 18.1304 58.5799 13.9877 58.5799 12.3156 58.5799 10.8972 59.1301 10.1251 60.6554 7.37656 65.8909 15.5561 78.6031 16.3612 80.0299 17.2326 81.4568 17.1664 82.1367 16.562 82.7495 16.4936 82.8255 16.3921 82.8613 16.2598 82.8613 15.2098 82.8613 12.2604 80.6561 9.52071 79.1465 7.7648 78.1781 5.76846 77.2992 4.12726 77.2992 2.88754 77.2992 1.85076 77.8002 1.27502 79.1465 0 82.3402 2.48165 93.0149 17.4333 106.95L24.7415 113 33.5938 109.737C52.2337 101.444 58 92.1986 57.7971 88.7991 57.6118 86.3927 55.5823 85.6882 53.2154 85.6882 52.172 85.6882 51.0646 85.8246 50.019 86.0125 47.2793 86.4933 44.2484 87.3946 42.8807 87.3946 42.5101 87.3946 42.2608 87.3275 42.1748 87.1687 41.8395 86.3524 41.9741 85.6032 43.2469 84.5856 44.5219 83.5658 56.2551 74.1838 55.3838 68.3376 54.9183 65.2111 51.2698 64.4954 47.7094 64.4954 44.6984 64.4954 41.7513 65.0075 40.8424 65.0075 40.8138 65.0075 40.7895 65.0075 40.7674 65.0075 39.0248 65.0075 39.4262 63.4442 40.0968 62.6279 40.7674 61.8116 48.2763 52.8389 51.8984 48.896 55.5184 44.9531 56.6588 41.283 54.7132 38.6999 54.0448 37.8411 53.061 37.5459 51.9514 37.5459 49.719 37.5459 46.9837 38.7446 45.327 38.9705 45.2013 38.9884 45.0822 38.9951 44.9697 38.9951 42.8586 38.9951 42.98 36.1146 42.98 36.1146 42.98 36.1146 45.327 28.7051 47.5396 14.4991 49.7521 0.290741 43.4498 0.0178918 43.4498 0.0178918L43.4498 0.0178918 43.516 0.0872224C43.516 0.0872224 43.238 0.00223647 42.777 0.00223647Z" fill="#407BFF" fill-rule="evenodd" transform="matrix(-1 0 0 1 653 432)"/><path d="M17 0C17 0.069144 16.9304 0.136057 16.9304 0.272115 16.9304 0.408172 16.863 0.678057 16.7956 1.01709 16.6586 1.69514 16.4542 2.64531 16.2476 3.93228 15.7714 6.44154 15.156 10.1017 14.2689 14.576 12.6989 23.6606 10.5832 36.1355 8.33043 49.9665 6.07544 63.7976 3.9597 76.2702 2.45937 85.3549L0.615405 96.0677C0.411019 97.2878 0.274012 98.3049 0.137006 98.9829 0.0696261 99.255 0 99.5249 0 99.7279 0 99.797 0 99.8639 0 100 0.0696261 99.8639 0.0696261 99.797 0.0696261 99.7279 0.137006 99.5249 0.204386 99.3219 0.274012 98.9829 0.411019 98.3049 0.545779 97.2878 0.819791 96.0677 1.22856 93.4915 1.91135 89.8983 2.73114 85.3549 4.3011 76.3394 6.41683 63.7976 8.7392 50.0335 10.9919 36.2047 13.1077 23.7298 14.6103 14.6451L16.4542 3.93228C16.6586 2.71223 16.7956 1.69514 16.9304 1.01709 16.9304 0.678057 17 0.408172 17 0.272115L17 0Z" fill="#263238" fill-rule="evenodd" transform="matrix(-1 0 0 1 628 445)"/><path d="M0.00222469 0C0.137931 0.202018 0.273637 0.404036 0.476085 0.539455 0.814238 0.876892 1.28587 1.34975 1.89544 1.8892 3.04561 2.96811 4.73637 4.38668 6.69633 5.93845 8.58954 7.49021 10.416 8.77114 11.7686 9.65025 12.4449 10.1209 12.9855 10.4583 13.3904 10.6626 13.5261 10.7958 13.7286 10.9312 14 11 13.3237 10.4583 12.6474 9.91887 11.9043 9.44601 10.6185 8.50252 8.79199 7.15277 6.89878 5.66761 5.00556 4.11584 3.24805 2.6995 2.03115 1.68718 1.42158 1.07891 0.745273 0.539455 0.00222469 0Z" fill="#263238" fill-rule="evenodd" transform="matrix(-1 0 0 1 636 499)"/><path d="M15 0.00232558 15 0.00232558C14.1924 0.213953 13.4533 0.497674 12.7121 0.851163 11.3667 1.48605 9.4837 2.33488 7.39932 3.32326 5.38132 4.31395 3.4983 5.16279 2.15297 5.86977 1.41393 6.15116 0.672666 6.57674 0 7 0.807641 6.78837 1.5489 6.43488 2.28795 6.0814 3.63328 5.51628 5.5163 4.66744 7.60068 3.67674 9.61868 2.68837 11.5017 1.83953 12.847 1.13256 13.5861 0.77907 14.2587 0.425581 15 0.00232558Z" fill="#263238" fill-rule="evenodd" transform="matrix(-1 0 0 1 622 503)"/><path d="M19 0.0023678 19 0.0023678C18.7334 0.0734017 18.4689 0.146803 18.2701 0.291239L16.2092 1.22652C14.4172 2.01736 12.0919 3.09708 9.43444 4.32123 6.84254 5.54302 4.45169 6.69613 2.72521 7.56038L0.732114 8.56669C0.465493 8.71113 0.266621 8.85556 0.00218542 8.99763 0.266621 8.9266 0.533241 8.85556 0.797677 8.71113L2.85852 7.84688C4.65056 7.05604 6.97585 5.90292 9.63331 4.68114 12.2252 3.45698 14.6161 2.30624 16.277 1.44199L18.3356 0.433307C18.5345 0.362273 18.8011 0.217837 19 0.0023678Z" fill="#263238" fill-rule="evenodd" transform="matrix(-1 0 0 1 626 525)"/><path d="M0 0C0.200179 0.196757 0.398183 0.395676 0.596186 0.592432 0.992193 0.985946 1.58838 1.57838 2.31512 2.23568 3.77077 3.61514 5.82043 5.45514 8.20082 7.42703 10.5159 9.33189 12.6983 11.0422 14.352 12.1578 15.1462 12.7503 15.8076 13.2757 16.2711 13.5395 16.5344 13.7362 16.7345 13.8681 16.9978 13.9978 16.7998 13.8011 16.6018 13.6043 16.3364 13.4724L14.4847 11.9611C12.8985 10.7784 10.7814 9.07027 8.401 7.09838 6.08588 5.19135 3.96877 3.41838 2.51312 2.10378L0.728913 0.525405C0.463458 0.328649 0.265455 0.131892 0 0Z" fill="#263238" fill-rule="evenodd" transform="matrix(-1 0 0 1 643 519)"/><path d="M758.805 504.004C755.549 504.004 752.338 504.683 749.397 505.999 746.811 507.353 745.125 509.72 744.562 512.539 744 514.568 744.226 516.712 745.239 518.515 745.983 520.106 747.581 520.996 749.323 520.996 749.682 520.996 750.045 520.959 750.411 520.885 752.32 520.321 753.444 518.177 755.131 516.938 756.851 515.61 758.96 515.336 761.161 515.336 762.7 515.336 764.287 515.473 765.815 515.473 765.963 515.484 766.114 515.488 766.266 515.488 767.594 515.488 768.978 515.054 770.087 514.345 772 512.654 771.774 509.382 769.977 507.465 768.175 505.777 765.704 504.649 763.229 504.423 761.757 504.141 760.277 504.004 758.805 504.004Z" fill="#407BFF" fill-rule="evenodd"/><path d="M748.793 449.004C748.378 449.004 747.966 449.045 747.559 449.127 744.92 449.813 743.312 452.315 742.164 454.708 738.838 461.652 737 469.393 737 477.135 737 480.775 737.461 484.532 739.525 487.607 740.737 489.33 742.455 490 744.18 490 746.218 490 748.264 489.067 749.51 487.835 751.919 485.558 752.949 482.255 753.87 479.067 755.935 472.011 758 464.382 756.509 457.097 756.048 454.936 755.131 452.884 753.64 451.176 752.424 449.79 750.605 449.004 748.793 449.004Z" fill="#407BFF" fill-rule="evenodd"/><path d="M709.144 461.004C708.899 461.004 708.659 461.011 708.422 461.023 706.281 461.139 704.481 462.28 703.466 464.105 702.004 466.729 703.466 469.923 704.818 472.664 707.296 477.229 710.221 481.677 713.373 485.9 715.961 489.208 718.887 492.519 722.827 494.001 724.431 494.651 726.049 494.996 727.553 494.996 729.745 494.996 731.689 494.257 732.96 492.631L732.96 492.631 732.508 493.089C735.211 489.549 735.996 484.872 734.648 480.536 733.185 476.429 730.708 472.664 727.331 469.811 723.505 466.387 719.002 463.763 714.273 462.051 712.599 461.353 710.84 461.004 709.144 461.004Z" fill="#407BFF" fill-rule="evenodd"/><path d="M758.128 509.004C757.837 509.004 757.547 509.03 757.256 509.086 755.63 509.201 754.116 509.539 752.605 510.216 750.513 511.235 748.535 512.704 747.024 514.511 745.28 516.661 743.77 519.148 742.725 521.748 741.677 524.347 740.863 527.058 740.281 529.884 739.819 532.145 739.47 534.406 739.352 536.667 739.119 538.59 739.119 540.17 739.119 541.301 739.004 541.866 739.119 542.431 739.119 542.996 739.237 542.431 739.352 541.866 739.352 541.301 739.47 540.059 739.7 538.59 739.819 536.667 740.048 534.406 740.4 532.257 740.863 529.999 741.563 527.285 742.373 524.685 743.422 522.086 744.469 519.487 745.862 517.11 747.606 514.853 749.002 513.157 750.746 511.685 752.838 510.67 754.234 509.993 755.745 509.539 757.256 509.312 757.837 509.312 758.419 509.201 759 509.086 758.709 509.03 758.419 509.004 758.128 509.004Z" fill="#263238" fill-rule="evenodd"/><path d="M747.996 464.004C747.996 464.231 747.882 464.455 747.765 464.683 747.651 465.25 747.419 465.929 747.074 466.84 746.843 467.747 746.497 468.881 746.152 470.243 745.807 471.602 745.458 473.076 745.113 474.777 743.155 483.741 741.77 492.585 740.73 501.66 739.577 512.21 739 521.737 739 528.656 739 532.175 739 535.007 739.118 536.936 739.118 537.843 739.231 538.638 739.231 539.205 739.231 539.433 739.349 539.66 739.349 540 739.349 539.66 739.349 539.433 739.349 539.205L739.349 536.936C739.349 535.007 739.349 532.175 739.463 528.656 739.577 521.853 740.271 514.363 741.425 503.817 742.46 493.835 743.959 482.379 745.575 474.893 745.921 473.191 746.266 471.717 746.611 470.355 746.843 468.993 747.074 467.859 747.419 466.952 747.651 465.929 747.765 465.366 747.882 464.799 747.996 464.455 747.996 464.231 747.996 464.004Z" fill="#263238" fill-rule="evenodd"/><path d="M715 470.004 715 470.004C717.283 471.678 719.454 473.58 721.508 475.593 726.188 480.74 729.954 486.554 732.579 492.93 734.179 496.396 735.433 499.976 736.462 503.552 737.488 506.908 738.175 510.039 738.746 512.611 739.2 515.183 739.429 517.31 739.658 518.763 739.658 519.547 739.771 520.33 740 521 740 520.33 740 519.547 740 518.763 739.887 517.31 739.658 515.183 739.2 512.501 738.746 509.48 738.058 506.349 737.146 503.442 736.117 499.752 734.863 496.171 733.266 492.706 730.525 486.219 726.758 480.402 721.85 475.258 721.05 474.474 720.137 473.58 719.225 472.91 718.767 472.576 718.425 472.237 718.083 471.902L717.054 471.233C716.371 470.784 715.687 470.339 715 470.004Z" fill="#263238" fill-rule="evenodd"/></g></svg>