<svg width="960" height="540" xmlns="http://www.w3.org/2000/svg" xmlns:xlink="http://www.w3.org/1999/xlink" overflow="hidden"><defs><clipPath id="clip0"><rect x="0" y="0" width="960" height="540"/></clipPath></defs><g clip-path="url(#clip0)"><rect x="0" y="0" width="960" height="540" fill="#305DBF"/><path d="M760.163-237.556C728.344-250.768 687.214-255.095 634.262-245.951 550.144-231.454 486.057-163.001 440.239-95.8962 401.226-38.4382 326.945-30.2155 267.76-14.5554 194.813 5.0448 121.023 32.2921 54.2497 70.6981-82.8026 149.802-120.436 255.6-109.301 388.245-105.785 428.059-97.9291 491.096-27.2914 561.838-0.48494 588.84 29.3149 608.762 61.8208 622.259 144.521 656.598 244.724 649.322 357.662 611.078 393.491 598.897 427.379 580.73 462.518 566.846 499.236 551.968 537.716 541.824 576.685 536.119 667.462 522.985 762.965 534.398 849.437 503.002 895.226 486.486 936.731 457.826 968.681 420.739 1008.8 374.09 1021.3 311.981 998.602 255.492 977.171 202.116 945.787 186.731 915.258 153.585 878.209 112.553 852.951 83.0042 859.895 27.5285 868.878-42.3521 869.298-192.24 760.163-237.556Z" fill="#FFFFFF" fill-rule="evenodd"/><text fill="#305DBF" font-family="Microsoft JhengHei,Microsoft JhengHei_MSFontService,sans-serif" font-weight="700" font-size="37" transform="translate(302.876 92)">為什麼不使用</text><text fill="#305DBF" font-family="Noto Sans,Noto Sans_MSFontService,sans-serif" font-weight="700" font-size="37" transform="translate(536.543 92)">NAT ?</text><text fill="#FF0000" font-family="Microsoft JhengHei,Microsoft JhengHei_MSFontService,sans-serif" font-weight="700" font-size="63" transform="translate(255.667 317)">雲科</text><text fill="#FF0000" font-family="Noto Sans,Noto Sans_MSFontService,sans-serif" font-weight="700" font-size="63" transform="translate(397.333 317)">IP</text><text fill="#FF0000" font-family="Microsoft JhengHei,Microsoft JhengHei_MSFontService,sans-serif" font-weight="700" font-size="63" transform="translate(477.333 317)">多</text><text fill="#FF0000" font-family="Noto Sans,Noto Sans_MSFontService,sans-serif" font-weight="700" font-size="63" transform="translate(556.333 317)">94</text><text fill="#FF0000" font-family="Microsoft JhengHei,Microsoft JhengHei_MSFontService,sans-serif" font-weight="700" font-size="63" transform="translate(641.667 317)">爽</text><path d="M255.667 300.929 405.333 300.929 555 300.929 704.667 300.929 704.667 303.929 555 303.929 405.333 303.929 255.667 303.929Z" fill="#FF0000" fill-rule="evenodd"/></g></svg>