<svg width="960" height="540" xmlns="http://www.w3.org/2000/svg" xmlns:xlink="http://www.w3.org/1999/xlink" overflow="hidden"><defs><clipPath id="clip0"><rect x="0" y="0" width="960" height="540"/></clipPath></defs><g clip-path="url(#clip0)"><rect x="0" y="0" width="960" height="540" fill="#305DBF"/><path d="M445 165.5C445 145.894 460.67 130 480 130 499.33 130 515 145.894 515 165.5 515 185.106 499.33 201 480 201 460.67 201 445 185.106 445 165.5Z" fill="#FFFFFF" fill-rule="evenodd"/><path d="M729 165.5C729 145.894 744.67 130 764 130 783.33 130 799 145.894 799 165.5 799 185.106 783.33 201 764 201 744.67 201 729 185.106 729 165.5Z" fill="#FFFFFF" fill-rule="evenodd"/><path d="M161 359C161 339.67 176.67 324 196 324 215.33 324 231 339.67 231 359 231 378.33 215.33 394 196 394 176.67 394 161 378.33 161 359Z" fill="#FFFFFF" fill-rule="evenodd"/><path d="M161 165.5C161 145.894 176.67 130 196 130 215.33 130 231 145.894 231 165.5 231 185.106 215.33 201 196 201 176.67 201 161 185.106 161 165.5Z" fill="#FFFFFF" fill-rule="evenodd"/><text fill="#FFFFFF" font-family="Microsoft JhengHei,Microsoft JhengHei_MSFontService,sans-serif" font-weight="700" font-size="37" transform="translate(368 91)">網路基本知識</text><text fill="#FFFFFF" font-family="Noto Sans,Noto Sans_MSFontService,sans-serif" font-weight="700" font-size="33" transform="translate(108.083 241)">IP Address</text><text fill="#FFFFFF" font-family="Microsoft JhengHei,Microsoft JhengHei_MSFontService,sans-serif" font-weight="700" font-size="33" transform="translate(413.333 241)">網路遮罩</text><text fill="#FFFFFF" font-family="Noto Sans,Noto Sans_MSFontService,sans-serif" font-weight="700" font-size="33" transform="translate(728.917 241)">DNS</text><text fill="#FFFFFF" font-family="Microsoft JhengHei,Microsoft JhengHei_MSFontService,sans-serif" font-weight="700" font-size="33" transform="translate(129.333 434)">常見服務</text><text fill="#305DBF" font-family="Fredoka One,Fredoka One_MSFontService,sans-serif" font-weight="400" font-size="35" transform="translate(171.656 177)">1</text><text fill="#305DBF" font-family="Fredoka One,Fredoka One_MSFontService,sans-serif" font-weight="400" font-size="35" transform="translate(185.823 177)">-</text><text fill="#305DBF" font-family="Fredoka One,Fredoka One_MSFontService,sans-serif" font-weight="400" font-size="35" transform="translate(200.823 177)">7</text><text fill="#305DBF" font-family="Fredoka One,Fredoka One_MSFontService,sans-serif" font-weight="400" font-size="27" transform="translate(171.365 368)">1</text><text fill="#305DBF" font-family="Fredoka One,Fredoka One_MSFontService,sans-serif" font-weight="400" font-size="27" transform="translate(182.198 368)">-</text><text fill="#305DBF" font-family="Fredoka One,Fredoka One_MSFontService,sans-serif" font-weight="400" font-size="27" transform="translate(193.698 368)">10</text><text fill="#305DBF" font-family="Fredoka One,Fredoka One_MSFontService,sans-serif" font-weight="400" font-size="35" transform="translate(455.328 177)">1</text><text fill="#305DBF" font-family="Fredoka One,Fredoka One_MSFontService,sans-serif" font-weight="400" font-size="35" transform="translate(469.495 177)">-</text><text fill="#305DBF" font-family="Fredoka One,Fredoka One_MSFontService,sans-serif" font-weight="400" font-size="35" transform="translate(484.495 177)">8</text><text fill="#305DBF" font-family="Fredoka One,Fredoka One_MSFontService,sans-serif" font-weight="400" font-size="35" transform="translate(739.755 177)">1</text><text fill="#305DBF" font-family="Fredoka One,Fredoka One_MSFontService,sans-serif" font-weight="400" font-size="35" transform="translate(753.922 177)">-</text><text fill="#305DBF" font-family="Fredoka One,Fredoka One_MSFontService,sans-serif" font-weight="400" font-size="35" transform="translate(768.922 177)">9</text><path d="M227 130C227 127.239 229.239 125 232 125 234.761 125 237 127.239 237 130 237 132.761 234.761 135 232 135 229.239 135 227 132.761 227 130Z" fill="#FFFFFF" fill-rule="evenodd"/></g></svg>