<svg width="960" height="540" xmlns="http://www.w3.org/2000/svg" xmlns:xlink="http://www.w3.org/1999/xlink" overflow="hidden"><defs><clipPath id="clip0"><rect x="0" y="0" width="960" height="540"/></clipPath></defs><g clip-path="url(#clip0)"><rect x="0" y="0" width="960" height="540" fill="#FFFFFF"/><path d="M654.774 0.00739559C618.965 0.00739559 577.76 12.1879 530.576 41.9256 455.608 89.1391 421.375 179.95 404.14 262.226 389.593 332.587 321.567 369.905 270.997 408.34 208.788 455.997 148.817 511.294 100.028 574.468 0 704.393 6.04425 820.386 69.6009 942.679 88.8453 979.317 121.511 1036.42 217.512 1075.98 254.006 1091.14 290.551 1098.35 327.133 1098.35 420.204 1098.35 513.489 1051.65 606.656 970.324 636.192 944.476 661.481 913.681 689.678 886.48 718.993 857.704 751.887 832.751 787.019 811.844 868.922 763.292 965.144 736.313 1035.64 672.023 1073.01 638.084 1101.42 594.243 1117.31 546.142 1137.22 485.669 1124.47 421.379 1080.17 376.421 1038.32 333.933 1002.06 331.685 959.548 312.131 907.631 287.629 871.609 269.421 856.163 213.673 836.933 143.356 777.595 0.00739559 654.774 0.00739559Z" fill="#305DBF" fill-rule="evenodd" transform="matrix(-0.99674 0.0806791 0.0806791 0.99674 426.587 -531.475)"/><text fill="#FFFFFF" font-family="Microsoft JhengHei,Microsoft JhengHei_MSFontService,sans-serif" font-weight="700" font-size="40" transform="translate(63.0656 179)">第二題</text><text fill="#FFFFFF" font-family="Microsoft JhengHei,Microsoft JhengHei_MSFontService,sans-serif" font-weight="700" font-size="25" transform="translate(63.0656 244)">若要將學校電腦教室內的</text><text fill="#FFFFFF" font-family="Noto Sans,Noto Sans_MSFontService,sans-serif" font-weight="700" font-size="25" transform="translate(341.732 244)">45</text><text fill="#FFFFFF" font-family="Microsoft JhengHei,Microsoft JhengHei_MSFontService,sans-serif" font-weight="700" font-size="25" transform="translate(369.732 244)">台電</text><text fill="#FFFFFF" font-family="Microsoft JhengHei,Microsoft JhengHei_MSFontService,sans-serif" font-weight="700" font-size="25" transform="translate(63.0656 290)">腦</text><text fill="#FFFFFF" font-family="Noto Sans,Noto Sans_MSFontService,sans-serif" font-weight="700" font-size="25" transform="translate(88.3989 290)">,</text><text fill="#FFFFFF" font-family="Microsoft JhengHei,Microsoft JhengHei_MSFontService,sans-serif" font-weight="700" font-size="25" transform="translate(95.7323 290)">以具有</text><text fill="#FFFFFF" font-family="Noto Sans,Noto Sans_MSFontService,sans-serif" font-weight="700" font-size="25" transform="translate(171.732 290)">12</text><text fill="#FFFFFF" font-family="Microsoft JhengHei,Microsoft JhengHei_MSFontService,sans-serif" font-weight="700" font-size="25" transform="translate(199.732 290)">個連接埠的交換器連</text><text fill="#FFFFFF" font-family="Microsoft JhengHei,Microsoft JhengHei_MSFontService,sans-serif" font-weight="700" font-size="25" transform="translate(63.0656 335)">接成一個星狀網路</text><text fill="#FFFFFF" font-family="Noto Sans,Noto Sans_MSFontService,sans-serif" font-weight="700" font-size="25" transform="translate(265.732 335)">,</text><text fill="#FFFFFF" font-family="Microsoft JhengHei,Microsoft JhengHei_MSFontService,sans-serif" font-weight="700" font-size="25" transform="translate(273.066 335)">則至少需要幾</text><text fill="#FFFFFF" font-family="Microsoft JhengHei,Microsoft JhengHei_MSFontService,sans-serif" font-weight="700" font-size="25" transform="translate(63.0656 381)">台交換器設備</text><text fill="#FFFFFF" font-family="Noto Sans,Noto Sans_MSFontService,sans-serif" font-weight="700" font-size="25" transform="translate(215.066 381)">?</text><text fill="#263238" font-family="Noto Sans,Noto Sans_MSFontService,sans-serif" font-weight="700" font-size="36" transform="translate(569.021 199)">(A)</text><text fill="#263238" font-family="Noto Sans,Noto Sans_MSFontService,sans-serif" font-weight="700" font-size="36" transform="translate(630.854 199)">4</text><text fill="#263238" font-family="Noto Sans,Noto Sans_MSFontService,sans-serif" font-weight="700" font-size="36" transform="translate(569.021 263)">(B)</text><text fill="#263238" font-family="Noto Sans,Noto Sans_MSFontService,sans-serif" font-weight="700" font-size="36" transform="translate(630.188 263)">5</text><text fill="#263238" font-family="Noto Sans,Noto Sans_MSFontService,sans-serif" font-weight="700" font-size="36" transform="translate(569.021 328)">(C)</text><text fill="#263238" font-family="Noto Sans,Noto Sans_MSFontService,sans-serif" font-weight="700" font-size="36" transform="translate(629.021 328)">6</text><text fill="#263238" font-family="Noto Sans,Noto Sans_MSFontService,sans-serif" font-weight="700" font-size="36" transform="translate(569.021 393)">(D)</text><text fill="#263238" font-family="Noto Sans,Noto Sans_MSFontService,sans-serif" font-weight="700" font-size="36" transform="translate(632.688 393)">7</text><text fill="#E3E9ED" font-family="Microsoft JhengHei,Microsoft JhengHei_MSFontService,sans-serif" font-weight="700" font-size="28" transform="translate(805.21 524)">此題</text><text fill="#E3E9ED" font-family="Noto Sans,Noto Sans_MSFontService,sans-serif" font-weight="700" font-size="28" transform="translate(868.543 524)">250</text><text fill="#E3E9ED" font-family="Microsoft JhengHei,Microsoft JhengHei_MSFontService,sans-serif" font-weight="700" font-size="28" transform="translate(922.377 524)">分</text></g></svg>