<svg width="960" height="540" xmlns="http://www.w3.org/2000/svg" xmlns:xlink="http://www.w3.org/1999/xlink" overflow="hidden"><defs><clipPath id="clip0"><rect x="0" y="0" width="960" height="540"/></clipPath></defs><g clip-path="url(#clip0)"><rect x="0" y="0" width="960" height="540" fill="#305DBF"/><path d="M760.163-237.556C728.344-250.768 687.214-255.095 634.262-245.951 550.144-231.454 486.057-163.001 440.239-95.8962 401.226-38.4382 326.945-30.2155 267.76-14.5554 194.813 5.0448 121.023 32.2921 54.2497 70.6981-82.8026 149.802-120.436 255.6-109.301 388.245-105.785 428.059-97.9291 491.096-27.2914 561.838-0.48494 588.84 29.3149 608.762 61.8208 622.259 144.521 656.598 244.724 649.322 357.662 611.078 393.491 598.897 427.379 580.73 462.518 566.846 499.236 551.968 537.716 541.824 576.685 536.119 667.462 522.985 762.965 534.398 849.437 503.002 895.226 486.486 936.731 457.826 968.681 420.739 1008.8 374.09 1021.3 311.981 998.602 255.492 977.171 202.116 945.787 186.731 915.258 153.585 878.209 112.553 852.951 83.0042 859.895 27.5285 868.878-42.3521 869.298-192.24 760.163-237.556Z" fill="#FFFFFF" fill-rule="evenodd"/><text fill="#305DBF" font-family="Noto Sans,Noto Sans_MSFontService,sans-serif" font-weight="700" font-size="37" transform="translate(375.126 92)">IP</text><text fill="#305DBF" font-family="Microsoft JhengHei,Microsoft JhengHei_MSFontService,sans-serif" font-weight="700" font-size="37" transform="translate(422.793 92)">是甚麼</text><text fill="#305DBF" font-family="Microsoft JhengHei,Microsoft JhengHei_MSFontService,sans-serif" font-weight="700" font-size="37" transform="translate(534.793 92)">？</text><text font-family="Microsoft JhengHei,Microsoft JhengHei_MSFontService,sans-serif" font-weight="700" font-size="31" transform="translate(91.3465 241)">在</text><text font-family="Noto Sans,Noto Sans_MSFontService,sans-serif" font-weight="700" font-size="31" transform="translate(122.013 241)">IP</text><text font-family="Microsoft JhengHei,Microsoft JhengHei_MSFontService,sans-serif" font-weight="700" font-size="31" transform="translate(153.346 241)">網路中可以利用</text><text font-family="Noto Sans,Noto Sans_MSFontService,sans-serif" font-weight="700" font-size="31" transform="translate(368.013 241)">IP Address</text><text font-family="Microsoft JhengHei,Microsoft JhengHei_MSFontService,sans-serif" font-weight="700" font-size="31" transform="translate(529.68 241)">的</text><text fill="#FF0000" font-family="Microsoft JhengHei,Microsoft JhengHei_MSFontService,sans-serif" font-weight="700" font-size="31" transform="translate(560.346 241)">唯一性</text><text font-family="Microsoft JhengHei,Microsoft JhengHei_MSFontService,sans-serif" font-weight="700" font-size="31" transform="translate(652.346 241)">來辨識每個設備</text><text font-family="Noto Sans,Noto Sans_MSFontService,sans-serif" font-weight="700" font-size="31" transform="translate(867.013 241)">​</text><text font-family="Microsoft JhengHei,Microsoft JhengHei_MSFontService,sans-serif" font-weight="700" font-size="31" transform="translate(91.3465 283)">每台主機</text><text font-family="Noto Sans,Noto Sans_MSFontService,sans-serif" font-weight="700" font-size="31" transform="translate(214.013 283)">(</text><text font-family="Microsoft JhengHei,Microsoft JhengHei_MSFontService,sans-serif" font-weight="700" font-size="31" transform="translate(225.846 283)">電腦</text><text font-family="Microsoft JhengHei,Microsoft JhengHei_MSFontService,sans-serif" font-weight="700" font-size="31" transform="translate(287.18 283)">，</text><text font-family="Microsoft JhengHei,Microsoft JhengHei_MSFontService,sans-serif" font-weight="700" font-size="31" transform="translate(317.846 283)">網路設備</text><text font-family="Microsoft JhengHei,Microsoft JhengHei_MSFontService,sans-serif" font-weight="700" font-size="31" transform="translate(440.513 283)">，</text><text font-family="Microsoft JhengHei,Microsoft JhengHei_MSFontService,sans-serif" font-weight="700" font-size="31" transform="translate(471.18 283)">週邊設備</text><text font-family="Noto Sans,Noto Sans_MSFontService,sans-serif" font-weight="700" font-size="31" transform="translate(593.846 283)">)</text><text font-family="Microsoft JhengHei,Microsoft JhengHei_MSFontService,sans-serif" font-weight="700" font-size="31" transform="translate(605.68 283)">必須擁有一個唯一</text><text font-family="Microsoft JhengHei,Microsoft JhengHei_MSFontService,sans-serif" font-weight="700" font-size="31" transform="translate(91.3465 325)">的位址</text><text font-family="Noto Sans,Noto Sans_MSFontService,sans-serif" font-weight="700" font-size="31" transform="translate(183.346 325)">​</text><text font-family="Microsoft JhengHei,Microsoft JhengHei_MSFontService,sans-serif" font-weight="700" font-size="31" transform="translate(183.346 325)">。</text></g></svg>