<svg width="960" height="540" xmlns="http://www.w3.org/2000/svg" xmlns:xlink="http://www.w3.org/1999/xlink" overflow="hidden"><defs><clipPath id="clip0"><rect x="0" y="0" width="960" height="540"/></clipPath></defs><g clip-path="url(#clip0)"><rect x="0" y="0" width="960" height="540" fill="#FFFFFF"/><path d="M654.774 0.00739559C618.965 0.00739559 577.76 12.1879 530.576 41.9256 455.608 89.1391 421.375 179.95 404.14 262.226 389.593 332.587 321.567 369.905 270.997 408.34 208.788 455.997 148.817 511.294 100.028 574.468 0 704.393 6.04425 820.386 69.6009 942.679 88.8453 979.317 121.511 1036.42 217.512 1075.98 254.006 1091.14 290.551 1098.35 327.133 1098.35 420.204 1098.35 513.489 1051.65 606.656 970.324 636.192 944.476 661.481 913.681 689.678 886.48 718.993 857.704 751.887 832.751 787.019 811.844 868.922 763.292 965.144 736.313 1035.64 672.023 1073.01 638.084 1101.42 594.243 1117.31 546.142 1137.22 485.669 1124.47 421.379 1080.17 376.421 1038.32 333.933 1002.06 331.685 959.548 312.131 907.631 287.629 871.609 269.421 856.163 213.673 836.933 143.356 777.595 0.00739559 654.774 0.00739559Z" fill="#305DBF" fill-rule="evenodd" transform="matrix(-0.99674 0.0806791 0.0806791 0.99674 426.587 -531.475)"/><text fill="#FFFFFF" font-family="Microsoft JhengHei,Microsoft JhengHei_MSFontService,sans-serif" font-weight="700" font-size="40" transform="translate(63.0656 238)">第三題</text><text fill="#FFFFFF" font-family="Microsoft JhengHei,Microsoft JhengHei_MSFontService,sans-serif" font-weight="700" font-size="25" transform="translate(63.0656 302)">請問雲科宿舍網路</text><text fill="#FFFFFF" font-family="Microsoft JhengHei,Microsoft JhengHei_MSFontService,sans-serif" font-weight="700" font-size="25" transform="translate(265.732 302)">，</text><text fill="#FFFFFF" font-family="Microsoft JhengHei,Microsoft JhengHei_MSFontService,sans-serif" font-weight="700" font-size="25" transform="translate(291.066 302)">是採用什麼</text><text fill="#FFFFFF" font-family="Microsoft JhengHei,Microsoft JhengHei_MSFontService,sans-serif" font-weight="700" font-size="25" transform="translate(63.0656 348)">方式控制鎖卡</text><text fill="#FFFFFF" font-family="Microsoft JhengHei,Microsoft JhengHei_MSFontService,sans-serif" font-weight="700" font-size="25" transform="translate(215.066 348)">？</text><text fill="#263238" font-family="Noto Sans,Noto Sans_MSFontService,sans-serif" font-weight="700" font-size="36" transform="translate(538.564 199)">(A) MAC source guard</text><text fill="#263238" font-family="Noto Sans,Noto Sans_MSFontService,sans-serif" font-weight="700" font-size="36" transform="translate(538.564 263)">(B) WireGuard</text><text fill="#263238" font-family="Noto Sans,Noto Sans_MSFontService,sans-serif" font-weight="700" font-size="36" transform="translate(538.564 328)">(C) IP source guard</text><text fill="#263238" font-family="Noto Sans,Noto Sans_MSFontService,sans-serif" font-weight="700" font-size="36" transform="translate(538.564 393)">(D) AdGuard</text><text fill="#E3E9ED" font-family="Microsoft JhengHei,Microsoft JhengHei_MSFontService,sans-serif" font-weight="700" font-size="28" transform="translate(693.21 524)">此題不會倒扣</text><text fill="#E3E9ED" font-family="Noto Sans,Noto Sans_MSFontService,sans-serif" font-weight="700" font-size="28" transform="translate(868.543 524)">200</text><text fill="#E3E9ED" font-family="Microsoft JhengHei,Microsoft JhengHei_MSFontService,sans-serif" font-weight="700" font-size="28" transform="translate(922.377 524)">分</text></g></svg>