<svg width="960" height="540" xmlns="http://www.w3.org/2000/svg" xmlns:xlink="http://www.w3.org/1999/xlink" overflow="hidden"><defs><clipPath id="clip0"><rect x="0" y="0" width="960" height="540"/></clipPath></defs><g clip-path="url(#clip0)"><rect x="0" y="0" width="960" height="540" fill="#305DBF"/><path d="M445 256.5C445 236.894 460.67 221 480 221 499.33 221 515 236.894 515 256.5 515 276.106 499.33 292 480 292 460.67 292 445 276.106 445 256.5Z" fill="#FFFFFF" fill-rule="evenodd"/><path d="M729 256.5C729 236.894 744.67 221 764 221 783.33 221 799 236.894 799 256.5 799 276.106 783.33 292 764 292 744.67 292 729 276.106 729 256.5Z" fill="#FFFFFF" fill-rule="evenodd"/><path d="M161 256.5C161 236.894 176.67 221 196 221 215.33 221 231 236.894 231 256.5 231 276.106 215.33 292 196 292 176.67 292 161 276.106 161 256.5Z" fill="#FFFFFF" fill-rule="evenodd"/><text fill="#FFFFFF" font-family="Microsoft JhengHei,Microsoft JhengHei_MSFontService,sans-serif" font-weight="700" font-size="37" transform="translate(349.333 91)">今天你會學到？</text><text fill="#FFFFFF" font-family="Microsoft JhengHei,Microsoft JhengHei_MSFontService,sans-serif" font-weight="700" font-size="33" transform="translate(95.9999 332)">網路基本知識</text><text fill="#FFFFFF" font-family="Microsoft JhengHei,Microsoft JhengHei_MSFontService,sans-serif" font-weight="700" font-size="33" transform="translate(380 332)">雲科宿網架構</text><text fill="#FFFFFF" font-family="Microsoft JhengHei,Microsoft JhengHei_MSFontService,sans-serif" font-weight="700" font-size="33" transform="translate(697.333 332)">外修通靈</text><text fill="#305DBF" font-family="Fredoka One,Fredoka One_MSFontService,sans-serif" font-weight="400" font-size="40" transform="translate(175.656 273)">01</text><text fill="#305DBF" font-family="Fredoka One,Fredoka One_MSFontService,sans-serif" font-weight="400" font-size="40" transform="translate(455.661 273)">02</text><text fill="#305DBF" font-family="Fredoka One,Fredoka One_MSFontService,sans-serif" font-weight="400" font-size="40" transform="translate(739.651 273)">03</text><path d="M227 221C227 218.239 229.239 216 232 216 234.761 216 237 218.239 237 221 237 223.761 234.761 226 232 226 229.239 226 227 223.761 227 221Z" fill="#FFFFFF" fill-rule="evenodd"/></g></svg>