<svg width="960" height="540" xmlns="http://www.w3.org/2000/svg" xmlns:xlink="http://www.w3.org/1999/xlink" overflow="hidden"><g><rect x="0" y="0" width="960" height="540" fill="#37474F"/><path d="M474 305.5C474 302.462 476.686 300 480 300 483.314 300 486 302.462 486 305.5 486 308.538 483.314 311 480 311 476.686 311 474 308.538 474 305.5Z" fill="#FFFFFF" fill-rule="evenodd"/><path d="M492 305.5C492 302.462 494.462 300 497.5 300 500.538 300 503 302.462 503 305.5 503 308.538 500.538 311 497.5 311 494.462 311 492 308.538 492 305.5Z" fill="#FFFFFF" fill-rule="evenodd"/><path d="M457 305.5C457 302.462 459.462 300 462.5 300 465.538 300 468 302.462 468 305.5 468 308.538 465.538 311 462.5 311 459.462 311 457 308.538 457 305.5Z" fill="#FFFFFF" fill-rule="evenodd"/><text fill="#FFFFFF" font-family="Oswald,Oswald_MSFontService,sans-serif" font-weight="400" font-size="93" transform="translate(175.334 254)">Web Development</text><text fill="#FFFFFF" font-family="PMingLiU,PMingLiU_MSFontService,sans-serif" font-weight="400" font-size="33" transform="translate(430 370)">陳柏宇</text><text fill="#FFFFFF" font-family="1,1_MSFontService,sans-serif" font-weight="400" font-size="33" transform="translate(408 406)">2023/11/15</text><text fill="#FFFFFF" font-family="PMingLiU,PMingLiU_MSFontService,sans-serif" font-weight="400" font-size="33" transform="translate(346.667 442)">宿舍網路管理小組</text></g></svg>