<svg width="960" height="540" xmlns="http://www.w3.org/2000/svg" xmlns:xlink="http://www.w3.org/1999/xlink" overflow="hidden"><defs><clipPath id="clip0"><rect x="0" y="0" width="960" height="540"/></clipPath><linearGradient x1="346.033" y1="123.979" x2="345.967" y2="451.021" gradientUnits="userSpaceOnUse" spreadMethod="reflect" id="fill1"><stop offset="0" stop-color="#8BE3FF"/><stop offset="0.027027" stop-color="#8CE4FE"/><stop offset="0.0540541" stop-color="#8EE5FE"/><stop offset="0.0810811" stop-color="#8FE7FE"/><stop offset="0.108108" stop-color="#91E8FE"/><stop offset="0.135135" stop-color="#92E9FE"/><stop offset="0.162162" stop-color="#94EAFD"/><stop offset="0.189189" stop-color="#95ECFD"/><stop offset="0.216216" stop-color="#97EDFC"/><stop offset="0.243243" stop-color="#98EEFC"/><stop offset="0.27027" stop-color="#99EFFB"/><stop offset="0.297297" stop-color="#9AF0FB"/><stop offset="0.324324" stop-color="#9CF1FA"/><stop offset="0.351351" stop-color="#9DF2F9"/><stop offset="0.378378" stop-color="#9EF3F8"/><stop offset="0.405405" stop-color="#9FF4F8"/><stop offset="0.432432" stop-color="#A0F5F7"/><stop offset="0.459459" stop-color="#A1F6F6"/><stop offset="0.486486" stop-color="#A2F6F5"/><stop offset="0.513514" stop-color="#A3F7F4"/><stop offset="0.540541" stop-color="#A4F8F3"/><stop offset="0.567568" stop-color="#A5F9F1"/><stop offset="0.594595" stop-color="#A5F9F0"/><stop offset="0.621622" stop-color="#A6FAEF"/><stop offset="0.648649" stop-color="#A7FBEE"/><stop offset="0.675676" stop-color="#A8FBEC"/><stop offset="0.702703" stop-color="#A8FCEB"/><stop offset="0.72973" stop-color="#A9FCE9"/><stop offset="0.756757" stop-color="#A9FDE8"/><stop offset="0.783784" stop-color="#AAFDE6"/><stop offset="0.810811" stop-color="#AAFDE5"/><stop offset="0.837838" stop-color="#AAFEE3"/><stop offset="0.864865" stop-color="#ABFEE2"/><stop offset="0.891892" stop-color="#ABFEE0"/><stop offset="0.918919" stop-color="#ABFEDE"/><stop offset="0.945946" stop-color="#ABFEDC"/><stop offset="0.972973" stop-color="#ABFEDA"/><stop offset="1" stop-color="#ACFFD9"/></linearGradient><linearGradient x1="602.033" y1="123.979" x2="601.967" y2="451.021" gradientUnits="userSpaceOnUse" spreadMethod="reflect" id="fill2"><stop offset="0" stop-color="#8BE3FF"/><stop offset="0.027027" stop-color="#8CE4FE"/><stop offset="0.0540541" stop-color="#8EE5FE"/><stop offset="0.0810811" stop-color="#8FE7FE"/><stop offset="0.108108" stop-color="#91E8FE"/><stop offset="0.135135" stop-color="#92E9FE"/><stop offset="0.162162" stop-color="#94EAFD"/><stop offset="0.189189" stop-color="#95ECFD"/><stop offset="0.216216" stop-color="#97EDFC"/><stop offset="0.243243" stop-color="#98EEFC"/><stop offset="0.27027" stop-color="#99EFFB"/><stop offset="0.297297" stop-color="#9AF0FB"/><stop offset="0.324324" stop-color="#9CF1FA"/><stop offset="0.351351" stop-color="#9DF2F9"/><stop offset="0.378378" stop-color="#9EF3F8"/><stop offset="0.405405" stop-color="#9FF4F8"/><stop offset="0.432432" stop-color="#A0F5F7"/><stop offset="0.459459" stop-color="#A1F6F6"/><stop offset="0.486486" stop-color="#A2F6F5"/><stop offset="0.513514" stop-color="#A3F7F4"/><stop offset="0.540541" stop-color="#A4F8F3"/><stop offset="0.567568" stop-color="#A5F9F1"/><stop offset="0.594595" stop-color="#A5F9F0"/><stop offset="0.621622" stop-color="#A6FAEF"/><stop offset="0.648649" stop-color="#A7FBEE"/><stop offset="0.675676" stop-color="#A8FBEC"/><stop offset="0.702703" stop-color="#A8FCEB"/><stop offset="0.72973" stop-color="#A9FCE9"/><stop offset="0.756757" stop-color="#A9FDE8"/><stop offset="0.783784" stop-color="#AAFDE6"/><stop offset="0.810811" stop-color="#AAFDE5"/><stop offset="0.837838" stop-color="#AAFEE3"/><stop offset="0.864865" stop-color="#ABFEE2"/><stop offset="0.891892" stop-color="#ABFEE0"/><stop offset="0.918919" stop-color="#ABFEDE"/><stop offset="0.945946" stop-color="#ABFEDC"/><stop offset="0.972973" stop-color="#ABFEDA"/><stop offset="1" stop-color="#ACFFD9"/></linearGradient></defs><g clip-path="url(#clip0)"><rect x="0" y="0" width="960" height="540" fill="#FFFFFF"/><path d="M25 63 968.654 63.0001 968.654 65.0001 25 65ZM25 68C22.7909 68 21 66.2091 21 64 21 61.7909 22.7909 60 25 60 27.2091 60 29 61.7909 29 64 29 66.2091 27.2091 68 25 68Z" fill="#ACFFD9"/><text fill="#1F1C51" font-family="Microsoft JhengHei,Microsoft JhengHei_MSFontService,sans-serif" font-weight="700" font-size="32" transform="translate(75.3858 76)">鎖卡套餐隱藏版</text><rect x="243" y="124" width="206" height="327" fill="url(#fill1)"/><path d="M398 222 398 222C398 242.435 381.434 259 361 259L243 259 243 185 361 185C381.434 185 398 201.566 398 222Z" fill="#FFFFFF" fill-rule="evenodd"/><text fill="#1F1C51" font-family="Microsoft JhengHei,Microsoft JhengHei_MSFontService,sans-serif" font-weight="700" font-size="19" transform="translate(298.869 162)">網路攻擊款</text><text fill="#1F1C51" font-family="Microsoft JhengHei,Microsoft JhengHei_MSFontService,sans-serif" font-weight="700" font-size="24" transform="translate(267.206 230)">無論幾</text><text fill="#1F1C51" font-family="Calibri,Calibri_MSFontService,sans-serif" font-weight="400" font-size="24" transform="translate(344.706 230)">GB</text><rect x="499" y="124" width="206" height="327" fill="url(#fill2)"/><path d="M654 219 654 219C654 239.435 637.435 256 617 256L499 256 499 182 617 182C637.435 182 654 198.566 654 219Z" fill="#FFFFFF" fill-rule="evenodd"/><text fill="#1F1C51" font-family="Microsoft JhengHei,Microsoft JhengHei_MSFontService,sans-serif" font-weight="700" font-size="19" transform="translate(573.535 162)">中毒款</text><text fill="#1F1C51" font-family="Microsoft JhengHei,Microsoft JhengHei_MSFontService,sans-serif" font-weight="700" font-size="24" transform="translate(523.206 230)">無論幾</text><text fill="#1F1C51" font-family="Calibri,Calibri_MSFontService,sans-serif" font-weight="400" font-size="24" transform="translate(600.706 230)">GB</text><path d="M538 403.5C538 391.626 547.626 382 559.5 382L644.5 382C656.374 382 666 391.626 666 403.5L666 403.5C666 415.374 656.374 425 644.5 425L559.5 425C547.626 425 538 415.374 538 403.5Z" stroke="#FF0000" stroke-width="2" stroke-linejoin="round" stroke-miterlimit="10" fill="none" fill-rule="evenodd"/><text fill="#FF0000" font-family="Microsoft JhengHei,Microsoft JhengHei_MSFontService,sans-serif" font-weight="700" font-size="19" transform="translate(564.202 410)">永久鎖卡</text><path d="M277 403C277 391.402 286.402 382 298 382L384 382C395.598 382 405 391.402 405 403L405 403C405 414.598 395.598 424 384 424L298 424C286.402 424 277 414.598 277 403Z" stroke="#FF0000" stroke-width="2" stroke-linejoin="round" stroke-miterlimit="10" fill="none" fill-rule="evenodd"/><text fill="#FF0000" font-family="Microsoft JhengHei,Microsoft JhengHei_MSFontService,sans-serif" font-weight="700" font-size="19" transform="translate(303.39 410)">永久鎖卡</text><text fill="#1F1C51" font-family="Microsoft JhengHei,Microsoft JhengHei_MSFontService,sans-serif" font-weight="700" font-size="21" transform="translate(287.39 306)">親送報告至</text><text fill="#1F1C51" font-family="Microsoft JhengHei,Microsoft JhengHei_MSFontService,sans-serif" font-weight="700" font-size="21" transform="translate(276.723 344)">資訊中心解卡</text><text fill="#1F1C51" font-family="Microsoft JhengHei,Microsoft JhengHei_MSFontService,sans-serif" font-weight="700" font-size="21" transform="translate(546.294 306)">親送報告至</text><text fill="#1F1C51" font-family="Microsoft JhengHei,Microsoft JhengHei_MSFontService,sans-serif" font-weight="700" font-size="21" transform="translate(535.627 344)">資訊中心解卡</text><g><g><g><path d="M891.271 491.773 924.257 491.773 924.257 498.271 891.271 498.271Z" stroke="#231815" stroke-width="1.99316" stroke-miterlimit="10" fill="#EFEFEF"/><path d="M894.639 451.282 920.5 451.282C923.51 451.282 925.952 453.724 925.952 456.734L925.952 492.77 889.188 492.77 889.188 456.734C889.188 453.724 891.629 451.282 894.639 451.282Z" stroke="#231815" stroke-width="1.99316" stroke-linejoin="round" fill="#EFEFEF"/><path d="M920.221 455.169C921.262 455.169 922.105 456.012 922.105 457.053L922.105 477.462C922.105 478.503 921.262 479.346 920.221 479.346L895.387 479.346C894.346 479.346 893.503 478.503 893.503 477.462L893.503 457.053C893.503 456.012 894.346 455.169 895.387 455.169Z" stroke="#231815" stroke-width="1.02648" stroke-miterlimit="10" fill="#65B2D2"/><path d="M907.565 461.577 907.535 468.354 904.764 468.354" stroke="#231815" stroke-width="1.99316" stroke-linejoin="round" fill="none"/><path d="M912.219 473.795 910.854 471.832 904.057 471.951 902.761 473.755" stroke="#231815" stroke-width="1.99316" stroke-linejoin="round" fill="none"/><path d="M893.842 486.402 896.732 486.402" stroke="#231815" stroke-width="1.99316" stroke-linejoin="round" fill="none"/><path d="M910.854 485.435 920.172 485.435" stroke="#231815" stroke-width="1.99316" stroke-linejoin="round" fill="none"/><path d="M897.778 461.906 897.778 465.513" stroke="#231815" stroke-width="1.99316" stroke-linejoin="round" fill="none"/><path d="M911.292 461.577 911.292 465.195" stroke="#231815" stroke-width="1.99316" stroke-linejoin="round" fill="none"/><path d="M889.188 478.389 874.997 489.192 890.772 495.809 886.677 497.374" stroke="#231815" stroke-width="1.99316" stroke-linejoin="round" fill="none"/><path d="M925.942 478.389 940.003 486.87 924.257 496.049 928.692 498.281" stroke="#231815" stroke-width="1.99316" stroke-linejoin="round" fill="none"/><path d="M900.639 498.281 898.476 514.715 893.503 515.193" stroke="#231815" stroke-width="1.99316" stroke-linejoin="round" fill="none"/><path d="M916.046 498.281 918.457 515.193 923.64 516.758" stroke="#231815" stroke-width="1.99316" stroke-linejoin="round" fill="none"/></g></g></g></g></svg>