<svg width="960" height="540" xmlns="http://www.w3.org/2000/svg" xmlns:xlink="http://www.w3.org/1999/xlink" overflow="hidden"><defs><linearGradient x1="480.001" y1="-0.00166181" x2="479.999" y2="540.002" gradientUnits="userSpaceOnUse" spreadMethod="reflect" id="fill0"><stop offset="0" stop-color="#8BE3FF"/><stop offset="0.027027" stop-color="#8CE4FE"/><stop offset="0.0540541" stop-color="#8EE5FE"/><stop offset="0.0810811" stop-color="#8FE7FE"/><stop offset="0.108108" stop-color="#91E8FE"/><stop offset="0.135135" stop-color="#92E9FE"/><stop offset="0.162162" stop-color="#94EAFD"/><stop offset="0.189189" stop-color="#95ECFD"/><stop offset="0.216216" stop-color="#97EDFC"/><stop offset="0.243243" stop-color="#98EEFC"/><stop offset="0.27027" stop-color="#99EFFB"/><stop offset="0.297297" stop-color="#9AF0FB"/><stop offset="0.324324" stop-color="#9CF1FA"/><stop offset="0.351351" stop-color="#9DF2F9"/><stop offset="0.378378" stop-color="#9EF3F8"/><stop offset="0.405405" stop-color="#9FF4F8"/><stop offset="0.432432" stop-color="#A0F5F7"/><stop offset="0.459459" stop-color="#A1F6F6"/><stop offset="0.486486" stop-color="#A2F6F5"/><stop offset="0.513514" stop-color="#A3F7F4"/><stop offset="0.540541" stop-color="#A4F8F3"/><stop offset="0.567568" stop-color="#A5F9F1"/><stop offset="0.594595" stop-color="#A5F9F0"/><stop offset="0.621622" stop-color="#A6FAEF"/><stop offset="0.648649" stop-color="#A7FBEE"/><stop offset="0.675676" stop-color="#A8FBEC"/><stop offset="0.702703" stop-color="#A8FCEB"/><stop offset="0.72973" stop-color="#A9FCE9"/><stop offset="0.756757" stop-color="#A9FDE8"/><stop offset="0.783784" stop-color="#AAFDE6"/><stop offset="0.810811" stop-color="#AAFDE5"/><stop offset="0.837838" stop-color="#AAFEE3"/><stop offset="0.864865" stop-color="#ABFEE2"/><stop offset="0.891892" stop-color="#ABFEE0"/><stop offset="0.918919" stop-color="#ABFEDE"/><stop offset="0.945946" stop-color="#ABFEDC"/><stop offset="0.972973" stop-color="#ABFEDA"/><stop offset="1" stop-color="#ACFFD9"/></linearGradient><clipPath id="clip1"><rect x="571" y="227" width="303" height="226"/></clipPath><clipPath id="clip2"><rect x="571" y="227" width="303" height="226"/></clipPath><clipPath id="clip3"><rect x="571" y="227" width="303" height="226"/></clipPath></defs><g><rect x="0" y="0" width="960" height="540" fill="url(#fill0)"/><text fill="#1F1C51" font-family="Microsoft JhengHei,Microsoft JhengHei_MSFontService,sans-serif" font-weight="700" font-size="64" transform="translate(101.601 285)">值班的一些規範</text><text fill="#1F1C51" font-family="Microsoft JhengHei,Microsoft JhengHei_MSFontService,sans-serif" font-weight="700" font-size="27" transform="translate(108.741 335)">其實不只一些</text><text fill="#1F1C51" font-family="Microsoft JhengHei,Microsoft JhengHei_MSFontService,sans-serif" font-weight="700" font-size="27" transform="translate(268.741 335)">，但你必須知道</text><path d="M108.741 328.475 188.741 328.475 268.741 328.475 268.741 329.475 188.741 329.475 108.741 329.475Z" fill="#1F1C51" fill-rule="evenodd"/><path d="M825.4 430.002C766.988 430.002 718.474 433.818 708.648 438.843 706.438 438.833 704.221 438.829 701.995 438.829 589.331 438.829 498.002 449.833 498.002 463.415 498.002 476.994 589.331 487.998 701.995 487.998 814.657 487.998 905.989 476.994 905.989 463.415 905.989 458.651 894.745 454.206 875.299 450.442 915.859 448.739 944 445.028 944 440.722 944 434.802 890.902 430.002 825.4 430.002Z" fill="#FFFFFF" fill-rule="evenodd"/><g clip-path="url(#clip1)"><g clip-path="url(#clip2)"><g clip-path="url(#clip3)"><path d="M105.807 69.2658 144.879 69.2658" stroke="#3F3D56" stroke-width="0.542661" stroke-miterlimit="10" fill="none" transform="matrix(1.00073 0 0 1 571 227.05)"/><path d="M78.2499 120.346C78.2499 122.204 73.4511 123.71 67.5314 123.71 61.6117 123.71 56.8129 122.204 56.8129 120.346 56.8129 118.487 61.6117 116.981 67.5314 116.981 73.4511 116.981 78.2499 118.487 78.2499 120.346Z" fill="#2F2E41" transform="matrix(0.357255 -0.934007 0.934684 0.356996 490.547 358.348)"/><path d="M312.947 147.336C317.196 178.97 311.409 210.639 281.969 222.97 252.529 235.302 218.666 221.433 206.335 191.993 194.003 162.553 223.099 144.938 237.312 116.359 266.175 58.323 299.747 49.0972 312.947 147.336Z" fill="#F2F2F2" transform="matrix(1.00073 0 0 1 559.584 217.901)"/><path d="M294.665 215.555C294.665 219.02 274.013 221.83 248.539 221.83 223.064 221.83 202.412 219.02 202.412 215.555 202.412 212.089 223.064 209.28 248.539 209.28 274.013 209.28 294.665 212.089 294.665 215.555Z" fill="#3F3D56" transform="matrix(1.00073 0 0 1 571 227.05)"/><path d="M233.018 204.494 239.53 204.494 239.53 216.162 233.018 216.162Z" fill="#2F2E41" transform="matrix(-0.266615 -0.963803 0.964502 -0.266422 656.149 711.974)"/><path d="M231.147 210.9C231.147 213.897 230.236 216.327 229.112 216.327 227.988 216.327 227.077 213.897 227.077 210.9 227.077 207.903 227.988 205.473 229.112 205.473 230.236 205.473 231.147 207.903 231.147 210.9Z" fill="#2F2E41" transform="matrix(0.964502 -0.266422 0.266615 0.963803 511.643 286.565)"/><path d="M272.653 186.696C272.653 188.555 267.854 190.061 261.935 190.061 256.016 190.061 251.218 188.555 251.218 186.696 251.218 184.838 256.016 183.332 261.935 183.332 267.854 183.332 272.653 184.838 272.653 186.696Z" fill="#2F2E41" transform="matrix(0.134409 -0.990926 0.991645 0.134311 601.363 639.079)"/><path d="M269.861 197.61C269.861 209.448 260.264 219.045 248.426 219.045 236.588 219.045 226.991 209.448 226.991 197.61 226.991 185.771 236.588 176.175 248.426 176.175 260.264 176.175 269.861 185.771 269.861 197.61Z" fill="#2F2E41" transform="matrix(1.00073 0 0 1 571 227.05)"/><path d="M233.018 200.695 239.53 200.695 239.53 212.363 233.018 212.363Z" fill="#2F2E41" transform="matrix(-0.266615 -0.963803 0.964502 -0.266422 659.813 707.164)"/><path d="M231.147 207.101C231.147 210.098 230.236 212.528 229.112 212.528 227.988 212.528 227.077 210.098 227.077 207.101 227.077 204.104 227.988 201.674 229.112 201.674 230.236 201.674 231.147 204.104 231.147 207.101Z" fill="#2F2E41" transform="matrix(0.964502 -0.266422 0.266615 0.963803 512.655 286.427)"/><path d="M261.38 185.33C261.38 189.376 258.101 192.656 254.055 192.656 250.009 192.656 246.729 189.376 246.729 185.33 246.729 181.284 250.009 178.004 254.055 178.004 258.101 178.004 261.38 181.284 261.38 185.33Z" fill="#FFFFFF" transform="matrix(1.00073 0 0 1 571 227.05)"/><path d="M258.839 182.094C258.839 183.443 257.746 184.536 256.397 184.536 255.049 184.536 253.955 183.443 253.955 182.094 253.955 180.746 255.049 179.652 256.397 179.652 257.746 179.652 258.839 180.746 258.839 182.094Z" fill="#3F3D56" transform="matrix(1.00073 0 0 1 571 227.05)"/><path d="M284.588 221.489C292.519 221.092 298.594 213.672 298.157 204.917 297.717 196.161 290.931 189.386 283 189.783 275.067 190.18 273.824 196.406 274.261 205.162 274.7 213.917 276.654 221.886 284.588 221.489Z" fill="#00BFA6" transform="matrix(1.00073 0 0 1 559.584 217.901)"/><path d="M251.073 197.689C248.385 197.906 246.029 195.902 245.812 193.214 245.596 190.526 247.598 188.171 250.285 187.953 252.974 187.735 253.707 189.87 253.925 192.559 254.142 195.247 253.762 197.472 251.073 197.689Z" fill="#FFFFFF" transform="matrix(1.00073 0 0 1 559.584 217.901)"/><path d="M13.4211 97.9571 133.483 97.9571 152.097 107.025 181.755 121.474 201.146 85.1671 256.02 85.1671" stroke="#3F3D56" stroke-width="0.542661" stroke-miterlimit="10" fill="none" transform="matrix(1.00073 0 0 1 571 227.05)"/><path d="M64.1687 101.756C64.1687 103.806 62.5062 105.469 60.4554 105.469 58.4046 105.469 56.7421 103.806 56.7421 101.756 56.7421 99.7049 58.4046 98.0424 60.4554 98.0424 62.5062 98.0424 64.1687 99.7049 64.1687 101.756Z" fill="#00BFA6" transform="matrix(1.00073 0 0 1 571 227.05)"/><path d="M98.8257 97.9571C98.8257 100.008 97.1632 101.67 95.1124 101.67 93.0617 101.67 91.3992 100.008 91.3992 97.9571 91.3992 95.9063 93.0617 94.2438 95.1124 94.2438 97.1632 94.2438 98.8257 95.9063 98.8257 97.9571Z" fill="#00BFA6" transform="matrix(1.00073 0 0 1 571 227.05)"/><path d="M155.762 107.034C155.762 109.085 154.1 110.747 152.049 110.747 149.998 110.747 148.336 109.085 148.336 107.034 148.336 104.983 149.998 103.321 152.049 103.321 154.1 103.321 155.762 104.983 155.762 107.034Z" fill="#00BFA6" transform="matrix(1.00073 0 0 1 571 227.05)"/><path d="M235.804 85.1671C235.804 87.2179 234.141 88.8804 232.09 88.8804 230.04 88.8804 228.377 87.2179 228.377 85.1671 228.377 83.1163 230.04 81.4538 232.09 81.4538 234.141 81.4538 235.804 83.1163 235.804 85.1671Z" fill="#00BFA6" transform="matrix(1.00073 0 0 1 571 227.05)"/><path d="M197.021 99.6076C197.021 101.658 195.358 103.321 193.307 103.321 191.257 103.321 189.594 101.658 189.594 99.6076 189.594 97.5568 191.257 95.8943 193.307 95.8943 195.358 95.8943 197.021 97.5568 197.021 99.6076Z" fill="#00BFA6" transform="matrix(1.00073 0 0 1 571 227.05)"/><path d="M120.018 157.763C120.018 159.974 118.226 161.766 116.014 161.766 113.803 161.766 112.011 159.974 112.011 157.763 112.011 155.551 113.803 153.759 116.014 153.759 118.226 153.759 120.018 155.551 120.018 157.763Z" stroke="#3F3D56" stroke-width="0.542661" stroke-miterlimit="10" fill="none" transform="matrix(1.00073 0 0 1 571 227.05)"/><path d="M92.2523 219.625C92.2523 223.09 71.601 225.9 46.1262 225.9 20.6514 225.9 0 223.09 0 219.625-7.71167e-15 216.159 20.6514 213.349 46.1262 213.349 71.601 213.349 92.2523 216.159 92.2523 219.625Z" fill="#3F3D56" transform="matrix(1.00073 0 0 1 571 227.05)"/><path d="M65.0664 188.964C65.0664 200.803 55.4696 210.399 43.6313 210.399 31.793 210.399 22.1962 200.803 22.1962 188.964 22.1962 177.126 31.793 167.529 43.6313 167.529 55.4696 167.529 65.0664 177.126 65.0664 188.964Z" fill="#2F2E41" transform="matrix(1.00073 0 0 1 571 227.05)"/><path d="M33.8634 205.787 40.3753 205.787 40.3753 217.454 33.8634 217.454Z" fill="#2F2E41" transform="matrix(1.00073 0 0 1 571 227.05)"/><path d="M46.8872 205.787 53.3992 205.787 53.3992 217.454 46.8872 217.454Z" fill="#2F2E41" transform="matrix(1.00073 0 0 1 571 227.05)"/><path d="M44.7166 217.59C44.7166 218.714 42.287 219.625 39.29 219.625 36.293 219.625 33.8634 218.714 33.8634 217.59 33.8634 216.466 36.293 215.555 39.29 215.555 42.287 215.555 44.7166 216.466 44.7166 217.59Z" fill="#2F2E41" transform="matrix(1.00073 0 0 1 571 227.05)"/><path d="M57.7405 217.318C57.7405 218.442 55.3109 219.353 52.3139 219.353 49.3168 219.353 46.8872 218.442 46.8872 217.318 46.8872 216.194 49.3168 215.283 52.3139 215.283 55.3109 215.283 57.7405 216.194 57.7405 217.318Z" fill="#2F2E41" transform="matrix(1.00073 0 0 1 571 227.05)"/><path d="M51.4999 183.538C51.4999 187.584 48.2199 190.864 44.1739 190.864 40.128 190.864 36.848 187.584 36.848 183.538 36.848 179.492 40.128 176.212 44.1739 176.212 48.2199 176.212 51.4999 179.492 51.4999 183.538Z" fill="#FFFFFF" transform="matrix(1.00073 0 0 1 571 227.05)"/><path d="M46.6159 183.538C46.6159 184.886 45.5226 185.98 44.1739 185.98 42.8253 185.98 41.732 184.886 41.732 183.538 41.732 182.189 42.8253 181.096 44.1739 181.096 45.5226 181.096 46.6159 182.189 46.6159 183.538Z" fill="#3F3D56" transform="matrix(1.00073 0 0 1 571 227.05)"/><path d="M34.246 178.179C32.5152 170.428 38.0479 162.596 46.6034 160.685 55.159 158.775 63.4978 163.51 65.2286 171.261 66.9595 179.012 61.2892 181.871 52.7336 183.781 44.178 185.692 35.9768 185.93 34.246 178.179Z" fill="#00BFA6" transform="matrix(1.00073 0 0 1 559.584 217.901)"/><path d="M57.7405 127.372C57.7405 139.211 48.1436 148.807 36.3054 148.807 24.4671 148.807 14.8703 139.211 14.8703 127.372 14.8703 115.534 24.4671 105.937 36.3054 105.937 48.1436 105.937 57.7405 115.534 57.7405 127.372Z" fill="#2F2E41" transform="matrix(1.00073 0 0 1 571 227.05)"/><path d="M26.5374 144.195 33.0493 144.195 33.0493 155.862 26.5374 155.862Z" fill="#2F2E41" transform="matrix(1.00073 0 0 1 571 227.05)"/><path d="M39.5613 144.195 46.0733 144.195 46.0733 155.862 39.5613 155.862Z" fill="#2F2E41" transform="matrix(1.00073 0 0 1 571 227.05)"/><path d="M37.3907 155.998C37.3907 157.122 34.9611 158.033 31.9641 158.033 28.967 158.033 26.5375 157.122 26.5375 155.998 26.5375 154.874 28.967 153.963 31.9641 153.963 34.9611 153.963 37.3907 154.874 37.3907 155.998Z" fill="#2F2E41" transform="matrix(1.00073 0 0 1 571 227.05)"/><path d="M50.4145 155.726C50.4145 156.85 47.985 157.761 44.9879 157.761 41.9909 157.761 39.5613 156.85 39.5613 155.726 39.5613 154.602 41.9909 153.691 44.9879 153.691 47.985 153.691 50.4145 154.602 50.4145 155.726Z" fill="#2F2E41" transform="matrix(1.00073 0 0 1 571 227.05)"/><path d="M44.1739 121.946C44.1739 125.992 40.894 129.272 36.848 129.272 32.802 129.272 29.5221 125.992 29.5221 121.946 29.5221 117.9 32.802 114.62 36.848 114.62 40.894 114.62 44.1739 117.9 44.1739 121.946Z" fill="#FFFFFF" transform="matrix(1.00073 0 0 1 571 227.05)"/><path d="M39.29 121.946C39.29 123.294 38.1967 124.388 36.848 124.388 35.4994 124.388 34.4061 123.294 34.4061 121.946 34.4061 120.597 35.4994 119.504 36.848 119.504 38.1967 119.504 39.29 120.597 39.29 121.946Z" fill="#3F3D56" transform="matrix(1.00073 0 0 1 571 227.05)"/><path d="M26.92 116.587C25.1893 108.836 30.7219 101.004 39.2775 99.0931 47.8331 97.1827 56.1719 101.918 57.9027 109.669 59.6335 117.42 53.9633 120.279 45.4077 122.189 36.8521 124.1 28.6509 124.338 26.92 116.587Z" fill="#00BFA6" transform="matrix(1.00073 0 0 1 559.584 217.901)"/><path d="M26.9379 126.592C26.9379 132.512 25.4313 137.311 23.5729 137.311 21.7144 137.311 20.2079 132.512 20.2079 126.592 20.2079 120.672 21.7144 115.873 23.5729 115.873 25.4313 115.873 26.9379 120.672 26.9379 126.592Z" fill="#2F2E41" transform="matrix(0.428783 -0.903408 0.904063 0.428472 458.616 311.531)"/><path d="M37.1839 144.254C37.1839 146.352 42.5858 150.495 48.5798 150.495 54.5738 150.495 60.1941 144.588 60.1941 142.491 60.1941 140.393 54.5738 142.898 48.5798 142.898 42.5858 142.898 37.1839 142.156 37.1839 144.254Z" fill="#FFFFFF" transform="matrix(1.00073 0 0 1 559.584 217.901)"/><path d="M226.69 153.223 260.912 153.223 260.912 170.632 226.69 170.632Z" fill="#00BFA6" transform="matrix(1.00073 0 0 1 571 227.05)"/><path d="M224.011 156.05 258.234 156.05 258.234 173.459 224.011 173.459Z" stroke="#3F3D56" stroke-width="0.542661" stroke-miterlimit="10" fill="none" transform="matrix(1.00073 0 0 1 571 227.05)"/><path d="M61.4843 53.9948 71.2522 53.9948 71.2522 63.7626 61.4843 63.7626Z" fill="#FF6584" transform="matrix(1.00073 0 0 1 571 227.05)"/><path d="M59.0423 50.7388 68.8102 50.7388 68.8102 60.5067 59.0423 60.5067Z" stroke="#3F3D56" stroke-width="0.542661" stroke-miterlimit="10" fill="none" transform="matrix(1.00073 0 0 1 571 227.05)"/><path d="M267.275 51.409C267.275 63.2473 257.678 72.8441 245.839 72.8441 234.001 72.8441 224.404 63.2473 224.404 51.409 224.404 39.5707 234.001 29.9739 245.839 29.9739 257.678 29.9739 267.275 39.5707 267.275 51.409Z" fill="#2F2E41" transform="matrix(1.00073 0 0 1 571 227.05)"/><path d="M264.441 75.86 270.954 75.86 270.954 87.5275 264.441 87.5275Z" fill="#2F2E41" transform="matrix(-0.984698 0.178125 -0.178255 -0.983984 1105.63 332.293)"/><path d="M251.625 78.1796 258.137 78.1796 258.137 89.8471 251.625 89.8471Z" fill="#2F2E41" transform="matrix(-0.984698 0.178129 -0.178258 -0.983984 1080.6 339.179)"/><path d="M260.302 91.2226C260.302 92.3468 257.872 93.2582 254.874 93.2582 251.876 93.2582 249.446 92.3468 249.446 91.2226 249.446 90.0984 251.876 89.187 254.874 89.187 257.872 89.187 260.302 90.0984 260.302 91.2226Z" fill="#2F2E41" transform="matrix(0.76343 -0.646075 0.646544 0.762877 561.008 404.172)"/><path d="M272.855 88.9503C272.855 90.0745 270.424 90.9859 267.426 90.9859 264.428 90.9859 261.998 90.0745 261.998 88.9503 261.998 87.8261 264.428 86.9147 267.426 86.9147 270.424 86.9147 272.855 87.8261 272.855 88.9503Z" fill="#2F2E41" transform="matrix(0.76343 -0.646075 0.646544 0.762877 565.452 411.744)"/><path d="M251.665 46.1658C251.665 50.2118 248.385 53.4917 244.339 53.4917 240.293 53.4917 237.013 50.2118 237.013 46.1658 237.013 42.1198 240.293 38.8399 244.339 38.8399 248.385 38.8399 251.665 42.1198 251.665 46.1658Z" fill="#FFFFFF" transform="matrix(1.00073 0 0 1 571 227.05)"/><path d="M243.77 43.5398C243.77 44.8885 242.676 45.9818 241.328 45.9818 239.979 45.9818 238.886 44.8885 238.886 43.5398 238.886 42.1912 239.979 41.0979 241.328 41.0979 242.676 41.0979 243.77 42.1912 243.77 43.5398Z" fill="#3F3D56" transform="matrix(1.00073 0 0 1 571 227.05)"/><path d="M274.158 37.2387C274.478 29.3031 267.639 22.5816 258.88 22.2258 250.121 21.87 242.759 28.0146 242.437 35.9502 242.114 43.8858 248.203 45.6888 256.962 46.0448 265.721 46.4005 273.835 45.1743 274.158 37.2387Z" fill="#00BFA6" transform="matrix(1.00073 0 0 1 559.584 217.901)"/><path d="M240.828 56.6548C240.828 62.5741 239.322 67.3727 237.463 67.3727 235.605 67.3727 234.099 62.5741 234.099 56.6548 234.099 50.7354 235.605 45.9368 237.463 45.9368 239.322 45.9368 240.828 50.7354 240.828 56.6548Z" fill="#2F2E41" transform="matrix(0.223576 -0.974687 0.975394 0.223414 688.859 493.349)"/><path d="M282.905 63.6521C282.905 69.5714 281.398 74.37 279.54 74.37 277.682 74.37 276.175 69.5714 276.175 63.6521 276.175 57.7327 277.682 52.9341 279.54 52.9341 281.398 52.9341 282.905 57.7327 282.905 63.6521Z" fill="#2F2E41" transform="matrix(0.223576 -0.974687 0.975394 0.223414 714.733 539.796)"/><path d="M263.134 69.005C263.615 71.6592 261.853 74.2005 259.198 74.681 256.544 75.1615 254.003 73.3992 253.522 70.7451 253.042 68.0909 255.094 67.1516 257.748 66.6713 260.403 66.1908 262.654 66.3509 263.134 69.005Z" fill="#FFFFFF" transform="matrix(1.00073 0 0 1 559.584 217.901)"/><path d="M193.351 26.8617 218.042 45.8548" stroke="#3F3D56" stroke-width="0.542661" stroke-miterlimit="10" fill="none" transform="matrix(1.00073 0 0 1 571 227.05)"/><path d="M200.134 18.4505C200.134 28.6404 191.874 36.9009 181.684 36.9009 171.494 36.9009 163.233 28.6404 163.233 18.4505 163.233 8.26056 171.494 0 181.684 0 191.874-3.85584e-15 200.134 8.26056 200.134 18.4505Z" fill="#FF6584" transform="matrix(1.00073 0 0 1 571 227.05)"/><path d="M264.608 191.79C264.608 193.648 259.809 195.154 253.89 195.154 247.971 195.154 243.172 193.648 243.172 191.79 243.172 189.931 247.971 188.425 253.89 188.425 259.809 188.425 264.608 189.931 264.608 191.79Z" fill="#2F2E41" transform="matrix(0.134409 -0.990926 0.991645 0.134311 589.342 635.516)"/><path d="M22.3839 213.272C22.3839 215.323 20.7214 216.986 18.6706 216.986 16.6198 216.986 14.9574 215.323 14.9574 213.272 14.9574 211.222 16.6198 209.559 18.6706 209.559 20.7214 209.559 22.3839 211.222 22.3839 213.272Z" fill="#00BFA6" transform="matrix(1.00073 0 0 1 571 227.05)"/><path d="M69.6242 208.924 79.3921 208.924 79.3921 218.692 69.6242 218.692Z" fill="#FF6584" transform="matrix(1.00073 0 0 1 571 227.05)"/><path d="M73.3939 215.443C73.3939 217.494 71.7314 219.156 69.6806 219.156 67.6299 219.156 65.9674 217.494 65.9674 215.443 65.9674 213.392 67.6299 211.73 69.6806 211.73 71.7314 211.73 73.3939 213.392 73.3939 215.443Z" fill="#00BFA6" transform="matrix(1.00073 0 0 1 571 227.05)"/><path d="M129.056 69.196C129.056 71.2468 127.394 72.9093 125.343 72.9093 123.292 72.9093 121.63 71.2468 121.63 69.196 121.63 67.1453 123.292 65.4828 125.343 65.4828 127.394 65.4828 129.056 67.1453 129.056 69.196Z" fill="#00BFA6" transform="matrix(1.00073 0 0 1 571 227.05)"/><path d="M199.226 184.302C199.226 185.281 198.432 186.075 197.453 186.075 196.473 186.075 195.68 185.281 195.68 184.302 195.68 183.322 196.473 182.528 197.453 182.528 198.432 182.528 199.226 183.322 199.226 184.302Z" fill="#FF6584" transform="matrix(1.00073 0 0 1 571 227.05)"/><path d="M206.14 213.734 206.14 193.544" stroke="#3F3D56" stroke-width="0.542661" stroke-miterlimit="10" fill="none" transform="matrix(1.00073 0 0 1 571 227.05)"/><path d="M208.995 193.544C208.995 195.12 207.717 196.399 206.14 196.399 204.563 196.399 203.285 195.12 203.285 193.544 203.285 191.967 204.563 190.688 206.14 190.688 207.717 190.688 208.995 191.967 208.995 193.544Z" fill="#3F3D56" transform="matrix(1.00073 0 0 1 571 227.05)"/><path d="M217.548 215.136C217.548 215.136 217.14 206.363 208.778 207.383" fill="#3F3D56" transform="matrix(1.00073 0 0 1 559.584 217.901)"/></g></g></g><text fill="#FF7C80" font-family="Microsoft JhengHei,Microsoft JhengHei_MSFontService,sans-serif" font-weight="700" font-size="48" transform="translate(108.741 210)">Part 1</text></g></svg>