<svg width="960" height="540" xmlns="http://www.w3.org/2000/svg" xmlns:xlink="http://www.w3.org/1999/xlink" overflow="hidden"><defs><clipPath id="clip0"><rect x="0" y="0" width="960" height="540"/></clipPath><linearGradient x1="224.033" y1="140.979" x2="223.967" y2="468.021" gradientUnits="userSpaceOnUse" spreadMethod="reflect" id="fill1"><stop offset="0" stop-color="#8BE3FF"/><stop offset="0.027027" stop-color="#8CE4FE"/><stop offset="0.0540541" stop-color="#8EE5FE"/><stop offset="0.0810811" stop-color="#8FE7FE"/><stop offset="0.108108" stop-color="#91E8FE"/><stop offset="0.135135" stop-color="#92E9FE"/><stop offset="0.162162" stop-color="#94EAFD"/><stop offset="0.189189" stop-color="#95ECFD"/><stop offset="0.216216" stop-color="#97EDFC"/><stop offset="0.243243" stop-color="#98EEFC"/><stop offset="0.27027" stop-color="#99EFFB"/><stop offset="0.297297" stop-color="#9AF0FB"/><stop offset="0.324324" stop-color="#9CF1FA"/><stop offset="0.351351" stop-color="#9DF2F9"/><stop offset="0.378378" stop-color="#9EF3F8"/><stop offset="0.405405" stop-color="#9FF4F8"/><stop offset="0.432432" stop-color="#A0F5F7"/><stop offset="0.459459" stop-color="#A1F6F6"/><stop offset="0.486486" stop-color="#A2F6F5"/><stop offset="0.513514" stop-color="#A3F7F4"/><stop offset="0.540541" stop-color="#A4F8F3"/><stop offset="0.567568" stop-color="#A5F9F1"/><stop offset="0.594595" stop-color="#A5F9F0"/><stop offset="0.621622" stop-color="#A6FAEF"/><stop offset="0.648649" stop-color="#A7FBEE"/><stop offset="0.675676" stop-color="#A8FBEC"/><stop offset="0.702703" stop-color="#A8FCEB"/><stop offset="0.72973" stop-color="#A9FCE9"/><stop offset="0.756757" stop-color="#A9FDE8"/><stop offset="0.783784" stop-color="#AAFDE6"/><stop offset="0.810811" stop-color="#AAFDE5"/><stop offset="0.837838" stop-color="#AAFEE3"/><stop offset="0.864865" stop-color="#ABFEE2"/><stop offset="0.891892" stop-color="#ABFEE0"/><stop offset="0.918919" stop-color="#ABFEDE"/><stop offset="0.945946" stop-color="#ABFEDC"/><stop offset="0.972973" stop-color="#ABFEDA"/><stop offset="1" stop-color="#ACFFD9"/></linearGradient><linearGradient x1="480.033" y1="140.979" x2="479.967" y2="468.021" gradientUnits="userSpaceOnUse" spreadMethod="reflect" id="fill2"><stop offset="0" stop-color="#8BE3FF"/><stop offset="0.027027" stop-color="#8CE4FE"/><stop offset="0.0540541" stop-color="#8EE5FE"/><stop offset="0.0810811" stop-color="#8FE7FE"/><stop offset="0.108108" stop-color="#91E8FE"/><stop offset="0.135135" stop-color="#92E9FE"/><stop offset="0.162162" stop-color="#94EAFD"/><stop offset="0.189189" stop-color="#95ECFD"/><stop offset="0.216216" stop-color="#97EDFC"/><stop offset="0.243243" stop-color="#98EEFC"/><stop offset="0.27027" stop-color="#99EFFB"/><stop offset="0.297297" stop-color="#9AF0FB"/><stop offset="0.324324" stop-color="#9CF1FA"/><stop offset="0.351351" stop-color="#9DF2F9"/><stop offset="0.378378" stop-color="#9EF3F8"/><stop offset="0.405405" stop-color="#9FF4F8"/><stop offset="0.432432" stop-color="#A0F5F7"/><stop offset="0.459459" stop-color="#A1F6F6"/><stop offset="0.486486" stop-color="#A2F6F5"/><stop offset="0.513514" stop-color="#A3F7F4"/><stop offset="0.540541" stop-color="#A4F8F3"/><stop offset="0.567568" stop-color="#A5F9F1"/><stop offset="0.594595" stop-color="#A5F9F0"/><stop offset="0.621622" stop-color="#A6FAEF"/><stop offset="0.648649" stop-color="#A7FBEE"/><stop offset="0.675676" stop-color="#A8FBEC"/><stop offset="0.702703" stop-color="#A8FCEB"/><stop offset="0.72973" stop-color="#A9FCE9"/><stop offset="0.756757" stop-color="#A9FDE8"/><stop offset="0.783784" stop-color="#AAFDE6"/><stop offset="0.810811" stop-color="#AAFDE5"/><stop offset="0.837838" stop-color="#AAFEE3"/><stop offset="0.864865" stop-color="#ABFEE2"/><stop offset="0.891892" stop-color="#ABFEE0"/><stop offset="0.918919" stop-color="#ABFEDE"/><stop offset="0.945946" stop-color="#ABFEDC"/><stop offset="0.972973" stop-color="#ABFEDA"/><stop offset="1" stop-color="#ACFFD9"/></linearGradient><linearGradient x1="736.033" y1="140.979" x2="735.967" y2="468.021" gradientUnits="userSpaceOnUse" spreadMethod="reflect" id="fill3"><stop offset="0" stop-color="#8BE3FF"/><stop offset="0.027027" stop-color="#8CE4FE"/><stop offset="0.0540541" stop-color="#8EE5FE"/><stop offset="0.0810811" stop-color="#8FE7FE"/><stop offset="0.108108" stop-color="#91E8FE"/><stop offset="0.135135" stop-color="#92E9FE"/><stop offset="0.162162" stop-color="#94EAFD"/><stop offset="0.189189" stop-color="#95ECFD"/><stop offset="0.216216" stop-color="#97EDFC"/><stop offset="0.243243" stop-color="#98EEFC"/><stop offset="0.27027" stop-color="#99EFFB"/><stop offset="0.297297" stop-color="#9AF0FB"/><stop offset="0.324324" stop-color="#9CF1FA"/><stop offset="0.351351" stop-color="#9DF2F9"/><stop offset="0.378378" stop-color="#9EF3F8"/><stop offset="0.405405" stop-color="#9FF4F8"/><stop offset="0.432432" stop-color="#A0F5F7"/><stop offset="0.459459" stop-color="#A1F6F6"/><stop offset="0.486486" stop-color="#A2F6F5"/><stop offset="0.513514" stop-color="#A3F7F4"/><stop offset="0.540541" stop-color="#A4F8F3"/><stop offset="0.567568" stop-color="#A5F9F1"/><stop offset="0.594595" stop-color="#A5F9F0"/><stop offset="0.621622" stop-color="#A6FAEF"/><stop offset="0.648649" stop-color="#A7FBEE"/><stop offset="0.675676" stop-color="#A8FBEC"/><stop offset="0.702703" stop-color="#A8FCEB"/><stop offset="0.72973" stop-color="#A9FCE9"/><stop offset="0.756757" stop-color="#A9FDE8"/><stop offset="0.783784" stop-color="#AAFDE6"/><stop offset="0.810811" stop-color="#AAFDE5"/><stop offset="0.837838" stop-color="#AAFEE3"/><stop offset="0.864865" stop-color="#ABFEE2"/><stop offset="0.891892" stop-color="#ABFEE0"/><stop offset="0.918919" stop-color="#ABFEDE"/><stop offset="0.945946" stop-color="#ABFEDC"/><stop offset="0.972973" stop-color="#ABFEDA"/><stop offset="1" stop-color="#ACFFD9"/></linearGradient></defs><g clip-path="url(#clip0)"><rect x="0" y="0" width="960" height="540" fill="#FFFFFF"/><path d="M25 63 968.654 63.0001 968.654 65.0001 25 65ZM25 68C22.7909 68 21 66.2091 21 64 21 61.7909 22.7909 60 25 60 27.2091 60 29 61.7909 29 64 29 66.2091 27.2091 68 25 68Z" fill="#ACFFD9"/><text fill="#1F1C51" font-family="Microsoft JhengHei,Microsoft JhengHei_MSFontService,sans-serif" font-weight="700" font-size="32" transform="translate(75.3858 76)">鎖卡套餐</text><rect x="121" y="141" width="206" height="327" fill="url(#fill1)"/><path d="M276 239 276 239C276 259.435 259.434 276 239 276L121 276 121 202 239 202C259.434 202 276 218.566 276 239Z" fill="#FFFFFF" fill-rule="evenodd"/><path d="M160 420.5C160 408.626 169.626 399 181.5 399L266.5 399C278.374 399 288 408.626 288 420.5L288 420.5C288 432.374 278.374 442 266.5 442L181.5 442C169.626 442 160 432.374 160 420.5Z" stroke="#FFC000" stroke-width="2" stroke-linejoin="round" stroke-miterlimit="10" fill="none" fill-rule="evenodd"/><text fill="#FFC000" font-family="Microsoft JhengHei,Microsoft JhengHei_MSFontService,sans-serif" font-weight="700" font-size="19" transform="translate(195.083 427)">鎖</text><text fill="#FFC000" font-family="Microsoft JhengHei,Microsoft JhengHei_MSFontService,sans-serif" font-weight="700" font-size="19" transform="translate(218.417 427)">3</text><text fill="#FFC000" font-family="Microsoft JhengHei,Microsoft JhengHei_MSFontService,sans-serif" font-weight="700" font-size="19" transform="translate(234.25 427)">天</text><text fill="#1F1C51" font-family="Microsoft JhengHei,Microsoft JhengHei_MSFontService,sans-serif" font-weight="700" font-size="19" transform="translate(159.204 325)">如果</text><text fill="#FF0000" font-family="Microsoft JhengHei,Microsoft JhengHei_MSFontService,sans-serif" font-weight="700" font-size="19" transform="translate(196.538 325)">超過</text><text fill="#FF0000" font-family="Microsoft JhengHei,Microsoft JhengHei_MSFontService,sans-serif" font-weight="700" font-size="19" transform="translate(238.538 325)">13GB</text><text fill="#1F1C51" font-family="Microsoft JhengHei,Microsoft JhengHei_MSFontService,sans-serif" font-weight="700" font-size="19" transform="translate(145.204 359)">則每</text><text fill="#FF0000" font-family="Microsoft JhengHei,Microsoft JhengHei_MSFontService,sans-serif" font-weight="700" font-size="19" transform="translate(182.538 359)">多</text><text fill="#FF0000" font-family="Microsoft JhengHei,Microsoft JhengHei_MSFontService,sans-serif" font-weight="700" font-size="19" transform="translate(205.871 359)">1GB</text><text fill="#FF0000" font-family="Microsoft JhengHei,Microsoft JhengHei_MSFontService,sans-serif" font-weight="700" font-size="19" transform="translate(247.704 359)">多</text><text fill="#FF0000" font-family="Microsoft JhengHei,Microsoft JhengHei_MSFontService,sans-serif" font-weight="700" font-size="19" transform="translate(271.038 359)">1</text><text fill="#FF0000" font-family="Microsoft JhengHei,Microsoft JhengHei_MSFontService,sans-serif" font-weight="700" font-size="19" transform="translate(286.871 359)">天</text><text fill="#1F1C51" font-family="Microsoft JhengHei,Microsoft JhengHei_MSFontService,sans-serif" font-weight="700" font-size="19" transform="translate(196 179)">基本款</text><text fill="#1F1C51" font-family="Calibri,Calibri_MSFontService,sans-serif" font-weight="400" font-size="24" transform="translate(124.606 247)">12</text><text fill="#1F1C51" font-family="Calibri,Calibri_MSFontService,sans-serif" font-weight="400" font-size="24" transform="translate(154.44 247)">GB</text><text fill="#1F1C51" font-family="Calibri,Calibri_MSFontService,sans-serif" font-weight="400" font-size="24" transform="translate(188.106 247)">~</text><text fill="#1F1C51" font-family="Calibri,Calibri_MSFontService,sans-serif" font-weight="400" font-size="24" transform="translate(205.606 247)">13</text><text fill="#1F1C51" font-family="Calibri,Calibri_MSFontService,sans-serif" font-weight="400" font-size="24" transform="translate(235.44 247)">GB</text><rect x="377" y="141" width="206" height="327" fill="url(#fill2)"/><path d="M532 236.5 532 236.5C532 256.658 515.658 273 495.5 273L377 273 377 200 495.5 200C515.658 200 532 216.342 532 236.5Z" fill="#FFFFFF" fill-rule="evenodd"/><path d="M416 420.5C416 408.626 425.626 399 437.5 399L522.5 399C534.374 399 544 408.626 544 420.5L544 420.5C544 432.374 534.374 442 522.5 442L437.5 442C425.626 442 416 432.374 416 420.5Z" stroke="#FF7C80" stroke-width="2" stroke-linejoin="round" stroke-miterlimit="10" fill="none" fill-rule="evenodd"/><text fill="#FF7C80" font-family="Microsoft JhengHei,Microsoft JhengHei_MSFontService,sans-serif" font-weight="700" font-size="19" transform="translate(445.5 427)">鎖</text><text fill="#FF7C80" font-family="Microsoft JhengHei,Microsoft JhengHei_MSFontService,sans-serif" font-weight="700" font-size="19" transform="translate(468.833 427)">15</text><text fill="#FF7C80" font-family="Microsoft JhengHei,Microsoft JhengHei_MSFontService,sans-serif" font-weight="700" font-size="19" transform="translate(495.833 427)">天</text><text fill="#1F1C51" font-family="Microsoft JhengHei,Microsoft JhengHei_MSFontService,sans-serif" font-weight="700" font-size="21" transform="translate(423.413 327)">超過</text><text fill="#FF0000" font-family="Microsoft JhengHei,Microsoft JhengHei_MSFontService,sans-serif" font-weight="700" font-size="21" transform="translate(471.413 327)">20GB</text><text fill="#1F1C51" font-family="Microsoft JhengHei,Microsoft JhengHei_MSFontService,sans-serif" font-weight="700" font-size="21" transform="translate(411 365)">視為惡意超流</text><text fill="#1F1C51" font-family="Microsoft JhengHei,Microsoft JhengHei_MSFontService,sans-serif" font-weight="700" font-size="19" transform="translate(452 179)">進階款</text><text fill="#1F1C51" font-family="Calibri,Calibri_MSFontService,sans-serif" font-weight="400" font-size="24" transform="translate(382.118 247)">20GB</text><text fill="#1F1C51" font-family="Calibri,Calibri_MSFontService,sans-serif" font-weight="400" font-size="24" transform="translate(440.118 247)">~</text><text fill="#1F1C51" font-family="Calibri,Calibri_MSFontService,sans-serif" font-weight="400" font-size="24" transform="translate(457.618 247)">50GB</text><rect x="633" y="141" width="206" height="327" fill="url(#fill3)"/><path d="M788 236.5 788 236.5C788 256.658 771.658 273 751.5 273L633 273 633 200 751.5 200C771.658 200 788 216.342 788 236.5Z" fill="#FFFFFF" fill-rule="evenodd"/><path d="M672 420.5C672 408.626 681.626 399 693.5 399L778.5 399C790.374 399 800 408.626 800 420.5L800 420.5C800 432.374 790.374 442 778.5 442L693.5 442C681.626 442 672 432.374 672 420.5Z" stroke="#FF0000" stroke-width="2" stroke-linejoin="round" stroke-miterlimit="10" fill="none" fill-rule="evenodd"/><text fill="#FF0000" font-family="Microsoft JhengHei,Microsoft JhengHei_MSFontService,sans-serif" font-weight="700" font-size="19" transform="translate(698.667 427)">永久鎖卡</text><text fill="#1F1C51" font-family="Microsoft JhengHei,Microsoft JhengHei_MSFontService,sans-serif" font-weight="700" font-size="21" transform="translate(682.185 329)">親送報告至</text><text fill="#1F1C51" font-family="Microsoft JhengHei,Microsoft JhengHei_MSFontService,sans-serif" font-weight="700" font-size="21" transform="translate(671.519 367)">資訊中心解卡</text><text fill="#1F1C51" font-family="Microsoft JhengHei,Microsoft JhengHei_MSFontService,sans-serif" font-weight="700" font-size="19" transform="translate(689.333 179)">超級會員款</text><text fill="#1F1C51" font-family="Calibri,Calibri_MSFontService,sans-serif" font-weight="400" font-size="24" transform="translate(654.754 245)">50GB</text><text fill="#1F1C51" font-family="Microsoft JhengHei,Microsoft JhengHei_MSFontService,sans-serif" font-weight="700" font-size="24" transform="translate(718.254 245)">以上</text><g><g><g><path d="M891.271 491.773 924.257 491.773 924.257 498.271 891.271 498.271Z" stroke="#231815" stroke-width="1.99316" stroke-miterlimit="10" fill="#EFEFEF"/><path d="M894.639 451.282 920.5 451.282C923.51 451.282 925.952 453.724 925.952 456.734L925.952 492.77 889.188 492.77 889.188 456.734C889.188 453.724 891.629 451.282 894.639 451.282Z" stroke="#231815" stroke-width="1.99316" stroke-linejoin="round" fill="#EFEFEF"/><path d="M920.221 455.169C921.262 455.169 922.105 456.012 922.105 457.053L922.105 477.462C922.105 478.503 921.262 479.346 920.221 479.346L895.387 479.346C894.346 479.346 893.503 478.503 893.503 477.462L893.503 457.053C893.503 456.012 894.346 455.169 895.387 455.169Z" stroke="#231815" stroke-width="1.02648" stroke-miterlimit="10" fill="#65B2D2"/><path d="M907.565 461.577 907.535 468.354 904.764 468.354" stroke="#231815" stroke-width="1.99316" stroke-linejoin="round" fill="none"/><path d="M912.219 473.795 910.854 471.832 904.057 471.951 902.761 473.755" stroke="#231815" stroke-width="1.99316" stroke-linejoin="round" fill="none"/><path d="M893.842 486.402 896.732 486.402" stroke="#231815" stroke-width="1.99316" stroke-linejoin="round" fill="none"/><path d="M910.854 485.435 920.172 485.435" stroke="#231815" stroke-width="1.99316" stroke-linejoin="round" fill="none"/><path d="M897.778 461.906 897.778 465.513" stroke="#231815" stroke-width="1.99316" stroke-linejoin="round" fill="none"/><path d="M911.292 461.577 911.292 465.195" stroke="#231815" stroke-width="1.99316" stroke-linejoin="round" fill="none"/><path d="M889.188 478.389 874.997 489.192 890.772 495.809 886.677 497.374" stroke="#231815" stroke-width="1.99316" stroke-linejoin="round" fill="none"/><path d="M925.942 478.389 940.003 486.87 924.257 496.049 928.692 498.281" stroke="#231815" stroke-width="1.99316" stroke-linejoin="round" fill="none"/><path d="M900.639 498.281 898.476 514.715 893.503 515.193" stroke="#231815" stroke-width="1.99316" stroke-linejoin="round" fill="none"/><path d="M916.046 498.281 918.457 515.193 923.64 516.758" stroke="#231815" stroke-width="1.99316" stroke-linejoin="round" fill="none"/></g></g></g></g></svg>