<svg width="960" height="540" xmlns="http://www.w3.org/2000/svg" xmlns:xlink="http://www.w3.org/1999/xlink" overflow="hidden"><defs><clipPath id="clip0"><rect x="0" y="0" width="960" height="540"/></clipPath><linearGradient x1="596.708" y1="493.233" x2="1088.75" y2="146.67" gradientUnits="userSpaceOnUse" spreadMethod="reflect" id="fill1"><stop offset="0" stop-color="#8BE3FF"/><stop offset="0.027027" stop-color="#8CE4FE"/><stop offset="0.0540541" stop-color="#8EE5FE"/><stop offset="0.0810811" stop-color="#8FE7FE"/><stop offset="0.108108" stop-color="#91E8FE"/><stop offset="0.135135" stop-color="#92E9FE"/><stop offset="0.162162" stop-color="#94EAFD"/><stop offset="0.189189" stop-color="#95ECFD"/><stop offset="0.216216" stop-color="#97EDFC"/><stop offset="0.243243" stop-color="#98EEFC"/><stop offset="0.27027" stop-color="#99EFFB"/><stop offset="0.297297" stop-color="#9AF0FB"/><stop offset="0.324324" stop-color="#9CF1FA"/><stop offset="0.351351" stop-color="#9DF2F9"/><stop offset="0.378378" stop-color="#9EF3F8"/><stop offset="0.405405" stop-color="#9FF4F8"/><stop offset="0.432432" stop-color="#A0F5F7"/><stop offset="0.459459" stop-color="#A1F6F6"/><stop offset="0.486486" stop-color="#A2F6F5"/><stop offset="0.513514" stop-color="#A3F7F4"/><stop offset="0.540541" stop-color="#A4F8F3"/><stop offset="0.567568" stop-color="#A5F9F1"/><stop offset="0.594595" stop-color="#A5F9F0"/><stop offset="0.621622" stop-color="#A6FAEF"/><stop offset="0.648649" stop-color="#A7FBEE"/><stop offset="0.675676" stop-color="#A8FBEC"/><stop offset="0.702703" stop-color="#A8FCEB"/><stop offset="0.72973" stop-color="#A9FCE9"/><stop offset="0.756757" stop-color="#A9FDE8"/><stop offset="0.783784" stop-color="#AAFDE6"/><stop offset="0.810811" stop-color="#AAFDE5"/><stop offset="0.837838" stop-color="#AAFEE3"/><stop offset="0.864865" stop-color="#ABFEE2"/><stop offset="0.891892" stop-color="#ABFEE0"/><stop offset="0.918919" stop-color="#ABFEDE"/><stop offset="0.945946" stop-color="#ABFEDC"/><stop offset="0.972973" stop-color="#ABFEDA"/><stop offset="1" stop-color="#ACFFD9"/></linearGradient><clipPath id="clip2"><rect x="631" y="280" width="303" height="227"/></clipPath><clipPath id="clip3"><rect x="631" y="280" width="303" height="227"/></clipPath><clipPath id="clip4"><rect x="631" y="280" width="303" height="227"/></clipPath><clipPath id="clip5"><rect x="95" y="118" width="305" height="49"/></clipPath><clipPath id="clip6"><rect x="95" y="118" width="305" height="49"/></clipPath><clipPath id="clip7"><rect x="95" y="118" width="305" height="49"/></clipPath></defs><g clip-path="url(#clip0)"><rect x="0" y="0" width="960" height="540" fill="#FFFFFF"/><path d="M619.733 525.921C626.328 535.285 634.041 544.769 643.019 554.419 698.796 614.353 786.819 634.795 859.421 614.247 932.046 593.732 989.106 536.813 1022.36 468.162 1055.64 399.527 1066.92 319.92 1067.15 240.543 1067.38 175.786 1059.2 106.736 1021.6 51.3887 1021.09 50.6368 1020.6 49.9019 1020.07 49.1609 981.998-4.89856 908.412-38.3063 855.371-9.76581 809.599 14.889 794.526 72.8981 774.889 122.406 725.048 248.064 507.83 367.044 619.733 525.921Z" fill="url(#fill1)" fill-rule="evenodd"/><g clip-path="url(#clip2)"><g clip-path="url(#clip3)"><g clip-path="url(#clip4)"><path d="M105.884 69.316 144.984 69.316" stroke="#3F3D56" stroke-width="0.543055" stroke-miterlimit="10" fill="none" transform="matrix(1 0 0 1.0037 631 280.05)"/><path d="M78.3362 120.478C78.3362 122.339 73.5321 123.847 67.6058 123.847 61.6796 123.847 56.8755 122.339 56.8755 120.478 56.8755 118.618 61.6796 117.11 67.6058 117.11 73.5321 117.11 78.3362 118.618 78.3362 120.478Z" fill="#2F2E41" transform="matrix(0.356862 -0.937107 0.933655 0.358181 550.547 411.929)"/><path d="M313.174 147.443C317.426 179.1 311.635 210.792 282.174 223.132 252.712 235.473 218.825 221.594 206.485 192.132 194.144 162.671 223.261 145.043 237.484 116.443 266.368 58.3653 299.964 49.1329 313.174 147.443Z" fill="#F2F2F2" transform="matrix(1 0 0 1.0037 619.584 270.861)"/><path d="M294.879 215.711C294.879 219.179 274.212 221.991 248.719 221.991 223.226 221.991 202.559 219.179 202.559 215.711 202.559 212.243 223.226 209.431 248.719 209.431 274.212 209.431 294.879 212.243 294.879 215.711Z" fill="#3F3D56" transform="matrix(1 0 0 1.0037 631 280.05)"/><path d="M233.236 204.685 239.754 204.685 239.754 216.364 233.236 216.364Z" fill="#2F2E41" transform="matrix(-0.266366 -0.967163 0.963601 -0.267351 716.149 767.12)"/><path d="M231.364 211.097C231.364 214.097 230.452 216.529 229.327 216.529 228.202 216.529 227.29 214.097 227.29 211.097 227.29 208.097 228.202 205.665 229.327 205.665 230.452 205.665 231.364 208.097 231.364 211.097Z" fill="#2F2E41" transform="matrix(0.963599 -0.267351 0.266366 0.967161 571.643 339.828)"/><path d="M272.865 186.842C272.865 188.702 268.063 190.209 262.139 190.209 256.215 190.209 251.413 188.702 251.413 186.842 251.413 184.982 256.215 183.475 262.139 183.475 268.063 183.475 272.865 184.982 272.865 186.842Z" fill="#2F2E41" transform="matrix(0.134304 -0.994536 0.990873 0.134801 661.363 693.902)"/><path d="M270.057 197.753C270.057 209.6 260.453 219.204 248.606 219.204 236.759 219.204 227.156 209.6 227.156 197.753 227.156 185.906 236.759 176.302 248.606 176.302 260.453 176.302 270.057 185.906 270.057 197.753Z" fill="#2F2E41" transform="matrix(1 0 0 1.0037 631 280.05)"/><path d="M233.236 200.883 239.754 200.883 239.754 212.561 233.236 212.561Z" fill="#2F2E41" transform="matrix(-0.266366 -0.967163 0.963601 -0.267351 719.813 762.288)"/><path d="M231.364 207.295C231.364 210.295 230.452 212.727 229.327 212.727 228.202 212.727 227.29 210.295 227.29 207.295 227.29 204.295 228.202 201.863 229.327 201.863 230.452 201.863 231.364 204.295 231.364 207.295Z" fill="#2F2E41" transform="matrix(0.963599 -0.267351 0.266366 0.967161 572.655 339.69)"/><path d="M261.57 185.465C261.57 189.514 258.288 192.796 254.239 192.796 250.19 192.796 246.908 189.514 246.908 185.465 246.908 181.416 250.19 178.134 254.239 178.134 258.288 178.134 261.57 181.416 261.57 185.465Z" fill="#FFFFFF" transform="matrix(1 0 0 1.0037 631 280.05)"/><path d="M259.027 182.226C259.027 183.576 257.933 184.67 256.583 184.67 255.234 184.67 254.139 183.576 254.139 182.226 254.139 180.877 255.234 179.783 256.583 179.783 257.933 179.783 259.027 180.877 259.027 182.226Z" fill="#3F3D56" transform="matrix(1 0 0 1.0037 631 280.05)"/><path d="M284.794 221.649C292.731 221.252 298.81 213.827 298.373 205.066 297.933 196.304 291.142 189.523 283.206 189.92 275.266 190.318 274.023 196.549 274.46 205.311 274.9 214.072 276.855 222.047 284.794 221.649Z" fill="#00BFA6" transform="matrix(1 0 0 1.0037 619.584 270.861)"/><path d="M251.255 197.833C248.565 198.05 246.208 196.044 245.991 193.354 245.774 190.664 247.777 188.308 250.467 188.089 253.157 187.872 253.891 190.008 254.109 192.698 254.327 195.389 253.946 197.615 251.255 197.833Z" fill="#FFFFFF" transform="matrix(1 0 0 1.0037 619.584 270.861)"/><path d="M13.4308 98.0281 133.58 98.0281 152.207 107.103 181.887 121.562 201.292 85.2289 256.206 85.2289" stroke="#3F3D56" stroke-width="0.543055" stroke-miterlimit="10" fill="none" transform="matrix(1 0 0 1.0037 631 280.05)"/><path d="M64.2152 101.83C64.2152 103.882 62.5515 105.545 60.4993 105.545 58.447 105.545 56.7833 103.882 56.7833 101.83 56.7833 99.7772 58.447 98.1135 60.4993 98.1135 62.5515 98.1135 64.2152 99.7772 64.2152 101.83Z" fill="#00BFA6" transform="matrix(1 0 0 1.0037 631 280.05)"/><path d="M98.8974 98.0281C98.8974 100.08 97.2337 101.744 95.1814 101.744 93.1292 101.744 91.4655 100.08 91.4655 98.0281 91.4655 95.9759 93.1292 94.3122 95.1814 94.3122 97.2337 94.3122 98.8974 95.9759 98.8974 98.0281Z" fill="#00BFA6" transform="matrix(1 0 0 1.0037 631 280.05)"/><path d="M155.875 107.112C155.875 109.164 154.212 110.827 152.16 110.827 150.107 110.827 148.444 109.164 148.444 107.112 148.444 105.059 150.107 103.396 152.16 103.396 154.212 103.396 155.875 105.059 155.875 107.112Z" fill="#00BFA6" transform="matrix(1 0 0 1.0037 631 280.05)"/><path d="M235.975 85.2289C235.975 87.2811 234.311 88.9448 232.259 88.9448 230.206 88.9448 228.543 87.2811 228.543 85.2289 228.543 83.1766 230.206 81.5129 232.259 81.5129 234.311 81.5129 235.975 83.1766 235.975 85.2289Z" fill="#00BFA6" transform="matrix(1 0 0 1.0037 631 280.05)"/><path d="M197.164 99.6798C197.164 101.732 195.5 103.396 193.448 103.396 191.395 103.396 189.732 101.732 189.732 99.6798 189.732 97.6276 191.395 95.9639 193.448 95.9639 195.5 95.9639 197.164 97.6276 197.164 99.6798Z" fill="#00BFA6" transform="matrix(1 0 0 1.0037 631 280.05)"/><path d="M120.105 157.877C120.105 160.09 118.311 161.884 116.099 161.884 113.886 161.884 112.092 160.09 112.092 157.877 112.092 155.664 113.886 153.871 116.099 153.871 118.311 153.871 120.105 155.664 120.105 157.877Z" stroke="#3F3D56" stroke-width="0.543055" stroke-miterlimit="10" fill="none" transform="matrix(1 0 0 1.0037 631 280.05)"/><path d="M92.3193 219.784C92.3193 223.252 71.6529 226.064 46.1596 226.064 20.6664 226.064 0 223.252 0 219.784-7.71727e-15 216.316 20.6664 213.504 46.1596 213.504 71.6529 213.504 92.3193 216.316 92.3193 219.784Z" fill="#3F3D56" transform="matrix(1 0 0 1.0037 631 280.05)"/><path d="M65.1136 189.101C65.1136 200.948 55.5098 210.552 43.6629 210.552 31.8161 210.552 22.2123 200.948 22.2123 189.101 22.2123 177.254 31.8161 167.651 43.6629 167.651 55.5098 167.651 65.1136 177.254 65.1136 189.101Z" fill="#2F2E41" transform="matrix(1 0 0 1.0037 631 280.05)"/><path d="M33.888 205.936 40.4046 205.936 40.4046 217.612 33.888 217.612Z" fill="#2F2E41" transform="matrix(1 0 0 1.0037 631 280.05)"/><path d="M46.9213 205.936 53.4379 205.936 53.4379 217.612 46.9213 217.612Z" fill="#2F2E41" transform="matrix(1 0 0 1.0037 631 280.05)"/><path d="M44.749 217.747C44.749 218.872 42.3177 219.784 39.3185 219.784 36.3193 219.784 33.888 218.872 33.888 217.747 33.888 216.623 36.3193 215.711 39.3185 215.711 42.3177 215.711 44.749 216.623 44.749 217.747Z" fill="#2F2E41" transform="matrix(1 0 0 1.0037 631 280.05)"/><path d="M57.7824 217.476C57.7824 218.601 55.351 219.512 52.3518 219.512 49.3526 219.512 46.9213 218.601 46.9213 217.476 46.9213 216.351 49.3526 215.439 52.3518 215.439 55.351 215.439 57.7824 216.351 57.7824 217.476Z" fill="#2F2E41" transform="matrix(1 0 0 1.0037 631 280.05)"/><path d="M51.5372 183.671C51.5372 187.72 48.2549 191.002 44.206 191.002 40.1571 191.002 36.8748 187.72 36.8748 183.671 36.8748 179.622 40.1571 176.34 44.206 176.34 48.2549 176.34 51.5372 179.622 51.5372 183.671Z" fill="#FFFFFF" transform="matrix(1 0 0 1.0037 631 280.05)"/><path d="M46.6497 183.671C46.6497 185.02 45.5556 186.115 44.206 186.115 42.8563 186.115 41.7622 185.02 41.7622 183.671 41.7622 182.321 42.8563 181.227 44.206 181.227 45.5556 181.227 46.6497 182.321 46.6497 183.671Z" fill="#3F3D56" transform="matrix(1 0 0 1.0037 631 280.05)"/><path d="M34.2708 178.308C32.5387 170.551 38.0755 162.714 46.6373 160.802 55.199 158.89 63.5439 163.628 65.276 171.385 67.008 179.142 61.3337 182.003 52.7719 183.915 44.2101 185.826 36.0029 186.065 34.2708 178.308Z" fill="#00BFA6" transform="matrix(1 0 0 1.0037 619.584 270.861)"/><path d="M57.7824 127.465C57.7824 139.312 48.1786 148.915 36.3317 148.915 24.4848 148.915 14.881 139.312 14.881 127.465 14.881 115.618 24.4848 106.014 36.3317 106.014 48.1786 106.014 57.7824 115.618 57.7824 127.465Z" fill="#2F2E41" transform="matrix(1 0 0 1.0037 631 280.05)"/><path d="M26.5566 144.299 33.0733 144.299 33.0733 155.975 26.5566 155.975Z" fill="#2F2E41" transform="matrix(1 0 0 1.0037 631 280.05)"/><path d="M39.59 144.299 46.1067 144.299 46.1067 155.975 39.59 155.975Z" fill="#2F2E41" transform="matrix(1 0 0 1.0037 631 280.05)"/><path d="M37.4178 156.111C37.4178 157.236 34.9865 158.147 31.9873 158.147 28.9881 158.147 26.5567 157.236 26.5567 156.111 26.5567 154.986 28.9881 154.074 31.9873 154.074 34.9865 154.074 37.4178 154.986 37.4178 156.111Z" fill="#2F2E41" transform="matrix(1 0 0 1.0037 631 280.05)"/><path d="M50.4511 155.839C50.4511 156.964 48.0198 157.876 45.0206 157.876 42.0214 157.876 39.59 156.964 39.59 155.839 39.59 154.715 42.0214 153.803 45.0206 153.803 48.0198 153.803 50.4511 154.715 50.4511 155.839Z" fill="#2F2E41" transform="matrix(1 0 0 1.0037 631 280.05)"/><path d="M44.206 122.034C44.206 126.083 40.9237 129.365 36.8748 129.365 32.8258 129.365 29.5435 126.083 29.5435 122.034 29.5435 117.985 32.8258 114.703 36.8748 114.703 40.9237 114.703 44.206 117.985 44.206 122.034Z" fill="#FFFFFF" transform="matrix(1 0 0 1.0037 631 280.05)"/><path d="M39.3185 122.034C39.3185 123.384 38.2244 124.478 36.8748 124.478 35.5251 124.478 34.431 123.384 34.431 122.034 34.431 120.684 35.5251 119.59 36.8748 119.59 38.2244 119.59 39.3185 120.684 39.3185 122.034Z" fill="#3F3D56" transform="matrix(1 0 0 1.0037 631 280.05)"/><path d="M26.9396 116.672C25.2075 108.915 30.7442 101.077 39.306 99.165 47.8678 97.2532 56.2127 101.992 57.9447 109.749 59.6768 117.505 54.0024 120.366 45.4406 122.278 36.8788 124.19 28.6716 124.428 26.9396 116.672Z" fill="#00BFA6" transform="matrix(1 0 0 1.0037 619.584 270.861)"/><path d="M26.9721 126.753C26.9721 132.68 25.4636 137.485 23.6028 137.485 21.742 137.485 20.2335 132.68 20.2335 126.753 20.2335 120.825 21.742 116.02 23.6028 116.02 25.4636 116.02 26.9721 120.825 26.9721 126.753Z" fill="#2F2E41" transform="matrix(0.42824 -0.906256 0.902918 0.429823 518.616 364.905)"/><path d="M37.2109 144.359C37.2109 146.458 42.6167 150.604 48.6151 150.604 54.6134 150.604 60.2378 144.693 60.2378 142.594 60.2378 140.494 54.6134 143.001 48.6151 143.001 42.6167 143.001 37.2109 142.259 37.2109 144.359Z" fill="#FFFFFF" transform="matrix(1 0 0 1.0037 619.584 270.861)"/><path d="M226.854 153.334 261.101 153.334 261.101 170.756 226.854 170.756Z" fill="#00BFA6" transform="matrix(1 0 0 1.0037 631 280.05)"/><path d="M224.174 156.163 258.421 156.163 258.421 173.585 224.174 173.585Z" stroke="#3F3D56" stroke-width="0.543055" stroke-miterlimit="10" fill="none" transform="matrix(1 0 0 1.0037 631 280.05)"/><path d="M61.5289 54.0339 71.3039 54.0339 71.3039 63.8089 61.5289 63.8089Z" fill="#FF6584" transform="matrix(1 0 0 1.0037 631 280.05)"/><path d="M59.0851 50.7756 68.8601 50.7756 68.8601 60.5506 59.0851 60.5506Z" stroke="#3F3D56" stroke-width="0.543055" stroke-miterlimit="10" fill="none" transform="matrix(1 0 0 1.0037 631 280.05)"/><path d="M267.468 51.4463C267.468 63.2931 257.865 72.8969 246.018 72.8969 234.171 72.8969 224.567 63.2931 224.567 51.4463 224.567 39.5994 234.171 29.9956 246.018 29.9956 257.865 29.9956 267.468 39.5994 267.468 51.4463Z" fill="#2F2E41" transform="matrix(1 0 0 1.0037 631 280.05)"/><path d="M264.658 75.9222 271.176 75.9222 271.176 87.5993 264.658 87.5993Z" fill="#2F2E41" transform="matrix(-0.983891 0.178767 -0.178109 -0.987529 1165.63 385.759)"/><path d="M251.831 78.2438 258.349 78.2438 258.349 89.9208 251.831 89.9208Z" fill="#2F2E41" transform="matrix(-0.983891 0.178771 -0.178112 -0.987528 1140.6 392.675)"/><path d="M260.815 91.4022C260.815 92.5286 258.38 93.4418 255.376 93.4418 252.372 93.4418 249.937 92.5286 249.937 91.4022 249.937 90.2757 252.372 89.3626 255.376 89.3626 258.38 89.3626 260.815 90.2757 260.815 91.4022Z" fill="#2F2E41" transform="matrix(0.76193 -0.647659 0.645274 0.764747 621.008 457.956)"/><path d="M273.392 89.1254C273.392 90.2519 270.957 91.165 267.953 91.165 264.949 91.165 262.514 90.2519 262.514 89.1254 262.514 87.999 264.949 87.0858 267.953 87.0858 270.957 87.0858 273.392 87.999 273.392 89.1254Z" fill="#2F2E41" transform="matrix(0.76193 -0.647659 0.645274 0.764747 625.452 465.562)"/><path d="M251.847 46.1993C251.847 50.2482 248.565 53.5305 244.516 53.5305 240.467 53.5305 237.185 50.2482 237.185 46.1993 237.185 42.1503 240.467 38.868 244.516 38.868 248.565 38.868 251.847 42.1503 251.847 46.1993Z" fill="#FFFFFF" transform="matrix(1 0 0 1.0037 631 280.05)"/><path d="M243.947 43.5714C243.947 44.9211 242.853 46.0152 241.503 46.0152 240.153 46.0152 239.059 44.9211 239.059 43.5714 239.059 42.2218 240.153 41.1277 241.503 41.1277 242.853 41.1277 243.947 42.2218 243.947 43.5714Z" fill="#3F3D56" transform="matrix(1 0 0 1.0037 631 280.05)"/><path d="M274.357 37.2658C274.677 29.3244 267.833 22.598 259.068 22.2419 250.303 21.8859 242.935 28.0349 242.613 35.9763 242.29 43.9176 248.383 45.7219 257.149 46.0782 265.914 46.4341 274.033 45.2071 274.357 37.2658Z" fill="#00BFA6" transform="matrix(1 0 0 1.0037 619.584 270.861)"/><path d="M241.038 56.7042C241.038 62.6287 239.531 67.4315 237.671 67.4315 235.811 67.4315 234.303 62.6287 234.303 56.7042 234.303 50.7797 235.811 45.9769 237.671 45.9769 239.531 45.9769 241.038 50.7797 241.038 56.7042Z" fill="#2F2E41" transform="matrix(0.223381 -0.978145 0.974543 0.224207 748.859 547.527)"/><path d="M283.152 63.7077C283.152 69.6322 281.644 74.4349 279.784 74.4349 277.924 74.4349 276.417 69.6322 276.417 63.7076 276.417 57.7831 277.924 52.9804 279.784 52.9804 281.644 52.9804 283.152 57.7831 283.152 63.7077Z" fill="#2F2E41" transform="matrix(0.223381 -0.978145 0.974543 0.224207 774.733 594.18)"/><path d="M263.325 69.0551C263.806 71.7112 262.043 74.2543 259.386 74.7352 256.73 75.216 254.187 73.4525 253.706 70.7964 253.226 68.1403 255.279 67.2003 257.935 66.7197 260.591 66.2388 262.844 66.399 263.325 69.0551Z" fill="#FFFFFF" transform="matrix(1 0 0 1.0037 619.584 270.861)"/><path d="M193.491 26.8812 218.2 45.8881" stroke="#3F3D56" stroke-width="0.543055" stroke-miterlimit="10" fill="none" transform="matrix(1 0 0 1.0037 631 280.05)"/><path d="M200.279 18.4639C200.279 28.6612 192.013 36.9277 181.815 36.9277 171.618 36.9277 163.352 28.6612 163.352 18.4639 163.352 8.26655 171.618 0 181.815 0 192.013-3.85863e-15 200.279 8.26655 200.279 18.4639Z" fill="#FF6584" transform="matrix(1 0 0 1.0037 631 280.05)"/><path d="M264.814 191.939C264.814 193.799 260.011 195.306 254.088 195.306 248.164 195.306 243.362 193.799 243.362 191.939 243.362 190.079 248.164 188.572 254.088 188.572 260.011 188.572 264.814 190.079 264.814 191.939Z" fill="#2F2E41" transform="matrix(0.134304 -0.994536 0.990873 0.134801 649.342 690.324)"/><path d="M22.4001 213.427C22.4001 215.479 20.7364 217.143 18.6842 217.143 16.6319 217.143 14.9682 215.48 14.9682 213.427 14.9682 211.375 16.6319 209.711 18.6842 209.711 20.7364 209.711 22.4001 211.375 22.4001 213.427Z" fill="#00BFA6" transform="matrix(1 0 0 1.0037 631 280.05)"/><path d="M69.6747 209.076 79.4497 209.076 79.4497 218.851 69.6747 218.851Z" fill="#FF6584" transform="matrix(1 0 0 1.0037 631 280.05)"/><path d="M73.4471 215.599C73.4471 217.652 71.7835 219.315 69.7312 219.315 67.6789 219.315 66.0152 217.652 66.0152 215.599 66.0152 213.547 67.6789 211.883 69.7312 211.883 71.7835 211.883 73.4471 213.547 73.4471 215.599Z" fill="#00BFA6" transform="matrix(1 0 0 1.0037 631 280.05)"/><path d="M129.15 69.2462C129.15 71.2985 127.486 72.9622 125.434 72.9622 123.382 72.9622 121.718 71.2985 121.718 69.2462 121.718 67.194 123.382 65.5303 125.434 65.5303 127.486 65.5303 129.15 67.194 129.15 69.2462Z" fill="#00BFA6" transform="matrix(1 0 0 1.0037 631 280.05)"/><path d="M199.371 184.435C199.371 185.415 198.576 186.21 197.596 186.21 196.616 186.21 195.822 185.415 195.822 184.435 195.822 183.455 196.616 182.661 197.596 182.661 198.576 182.661 199.371 183.455 199.371 184.435Z" fill="#FF6584" transform="matrix(1 0 0 1.0037 631 280.05)"/><path d="M206.29 213.889 206.29 193.684" stroke="#3F3D56" stroke-width="0.543055" stroke-miterlimit="10" fill="none" transform="matrix(1 0 0 1.0037 631 280.05)"/><path d="M209.147 193.684C209.147 195.262 207.868 196.541 206.29 196.541 204.712 196.541 203.433 195.262 203.433 193.684 203.433 192.106 204.712 190.827 206.29 190.827 207.868 190.827 209.147 192.106 209.147 193.684Z" fill="#3F3D56" transform="matrix(1 0 0 1.0037 631 280.05)"/><path d="M217.706 215.292C217.706 215.292 217.298 206.513 208.93 207.533" fill="#3F3D56" transform="matrix(1 0 0 1.0037 619.584 270.861)"/></g></g></g><text fill="#1F1C51" font-family="Microsoft JhengHei,Microsoft JhengHei_MSFontService,sans-serif" font-weight="700" font-size="32" transform="translate(104.692 220)">感謝各位聆聽</text><text fill="#1F1C51" font-family="Microsoft JhengHei,Microsoft JhengHei_MSFontService,sans-serif" font-weight="700" font-size="32" transform="translate(104.692 278)">記得喔</text><text fill="#1F1C51" font-family="Calibri,Calibri_MSFontService,sans-serif" font-weight="700" font-size="32" transform="translate(200.692 278)">!!</text><text fill="#FF0000" font-family="Microsoft JhengHei,Microsoft JhengHei_MSFontService,sans-serif" font-weight="700" font-size="32" transform="translate(104.692 335)">我們有新訓</text><text fill="#FF0000" font-family="Calibri,Calibri_MSFontService,sans-serif" font-weight="700" font-size="32" transform="translate(264.692 335)">(</text><text fill="#FF0000" font-family="Microsoft JhengHei,Microsoft JhengHei_MSFontService,sans-serif" font-weight="700" font-size="32" transform="translate(274.692 335)">上學期</text><text fill="#FF0000" font-family="Calibri,Calibri_MSFontService,sans-serif" font-weight="700" font-size="32" transform="translate(370.692 335)">)</text><text fill="#FF0000" font-family="Microsoft JhengHei,Microsoft JhengHei_MSFontService,sans-serif" font-weight="700" font-size="32" transform="translate(380.692 335)">、幹訓</text><text fill="#FF0000" font-family="Calibri,Calibri_MSFontService,sans-serif" font-weight="700" font-size="32" transform="translate(476.692 335)">(</text><text fill="#FF0000" font-family="Microsoft JhengHei,Microsoft JhengHei_MSFontService,sans-serif" font-weight="700" font-size="32" transform="translate(486.692 335)">下學期</text><text fill="#FF0000" font-family="Calibri,Calibri_MSFontService,sans-serif" font-weight="700" font-size="32" transform="translate(582.692 335)">)</text><text fill="#FF0000" font-family="Microsoft JhengHei,Microsoft JhengHei_MSFontService,sans-serif" font-weight="700" font-size="32" transform="translate(104.692 393)">然後暑假最後一個禮拜有大檢修</text><text fill="#FF0000" font-family="Calibri,Calibri_MSFontService,sans-serif" font-weight="700" font-size="32" transform="translate(552.692 393)">!!!</text><text fill="#1F1C51" font-family="Microsoft JhengHei,Microsoft JhengHei_MSFontService,sans-serif" font-weight="700" font-size="24" transform="translate(114.484 507)">雲林科技大學</text><text fill="#1F1C51" font-family="Microsoft JhengHei,Microsoft JhengHei_MSFontService,sans-serif" font-weight="700" font-size="24" transform="translate(264.484 507)">網路管理小組</text><g clip-path="url(#clip5)"><g clip-path="url(#clip6)"><g clip-path="url(#clip7)"><path d="M52.0942 156.454C51.4469 156.454 50.8847 156.233 50.4078 155.79 49.9649 155.347 49.7434 154.802 49.7434 154.154L49.7434 141.123 37.5299 124.004C37.2574 123.561 37.1211 123.101 37.1211 122.624 37.1211 121.977 37.3255 121.432 37.7343 120.989 38.1772 120.512 38.7223 120.273 39.3696 120.273 40.2213 120.273 40.9027 120.665 41.4137 121.449L52.0942 136.984 62.7748 121.449C63.2859 120.665 63.9672 120.273 64.8189 120.273 65.4662 120.273 66.0113 120.512 66.4542 120.989 66.8971 121.432 67.1015 121.977 67.0675 122.624 67.0675 123.101 66.9312 123.561 66.6586 124.004L54.394 141.123 54.394 154.154C54.394 154.802 54.1725 155.347 53.7297 155.79 53.2868 156.233 52.7415 156.454 52.0942 156.454Z" fill="#0B2817" transform="matrix(1.0029 0 0 1 147.026 10.1538)"/><path d="M87.747 156.71C85.3281 156.71 82.9944 156.198 80.7459 155.176 78.4974 154.154 76.6577 152.604 75.2268 150.526 73.796 148.414 73.0805 145.842 73.0805 142.81L73.0805 122.624C73.0805 121.977 73.302 121.432 73.7449 120.989 74.1878 120.512 74.7328 120.273 75.3801 120.273 76.0275 120.273 76.5725 120.512 77.0154 120.989 77.4924 121.432 77.7309 121.977 77.7309 122.624L77.7309 142.963C77.7309 145.007 78.1908 146.744 79.1106 148.175 80.0646 149.606 81.3081 150.679 82.8411 151.395 84.3742 152.11 86.0095 152.468 87.747 152.468 89.4845 152.468 91.1198 152.11 92.6528 151.395 94.1859 150.679 95.4124 149.606 96.3322 148.175 97.2862 146.744 97.7631 145.007 97.7631 142.963L97.7631 122.624C97.7631 121.977 97.9846 121.432 98.4274 120.989 98.8703 120.512 99.4154 120.273 100.063 120.273 100.71 120.273 101.255 120.512 101.698 120.989 102.175 121.432 102.413 121.977 102.413 122.624L102.413 142.81C102.413 145.842 101.698 148.414 100.267 150.526 98.8363 152.604 96.9966 154.154 94.7481 155.176 92.4995 156.198 90.1658 156.71 87.747 156.71Z" fill="#0B2817" transform="matrix(1.0029 0 0 1 147.026 10.1538)"/><path d="M114.362 156.454C113.715 156.454 113.17 156.233 112.727 155.79 112.284 155.347 112.062 154.802 112.062 154.154L112.062 123.646C112.062 122.726 112.386 121.943 113.033 121.295 113.681 120.614 114.464 120.273 115.384 120.273L116.048 120.273C117.138 120.273 118.075 120.784 118.859 121.806L138.533 150.219 138.533 122.624C138.533 121.977 138.755 121.432 139.198 120.989 139.641 120.512 140.186 120.273 140.833 120.273 141.48 120.273 142.025 120.512 142.468 120.989 142.945 121.432 143.184 121.977 143.184 122.624L143.184 153.132C143.184 154.052 142.843 154.836 142.162 155.483 141.514 156.13 140.731 156.454 139.811 156.454L139.198 156.454C138.653 156.454 138.142 156.335 137.665 156.096 137.188 155.824 136.796 155.483 136.489 155.074L116.713 126.508 116.713 154.154C116.713 154.802 116.474 155.347 115.997 155.79 115.554 156.233 115.009 156.454 114.362 156.454Z" fill="#0B2817" transform="matrix(1.0029 0 0 1 147.026 10.1538)"/><path d="M155.384 156.454C154.737 156.454 154.192 156.233 153.749 155.79 153.306 155.347 153.084 154.802 153.084 154.154L153.084 123.646C153.084 122.726 153.408 121.943 154.055 121.295 154.703 120.614 155.486 120.273 156.406 120.273L157.07 120.273C158.161 120.273 159.097 120.784 159.881 121.806L179.556 150.219 179.556 122.624C179.556 121.977 179.777 121.432 180.22 120.989 180.663 120.512 181.208 120.273 181.855 120.273 182.503 120.273 183.048 120.512 183.49 120.989 183.967 121.432 184.206 121.977 184.206 122.624L184.206 153.132C184.206 154.052 183.865 154.836 183.184 155.483 182.537 156.13 181.753 156.454 180.833 156.454L180.22 156.454C179.675 156.454 179.164 156.335 178.687 156.096 178.21 155.824 177.818 155.483 177.511 155.074L157.735 126.508 157.735 154.154C157.735 154.802 157.496 155.347 157.019 155.79 156.576 156.233 156.031 156.454 155.384 156.454Z" fill="#2CA05A" transform="matrix(1.0029 0 0 1 147.026 10.1538)"/><path d="M196.406 156.198C195.758 156.198 195.213 155.977 194.77 155.534 194.327 155.091 194.106 154.546 194.106 153.899L194.106 122.88C194.106 122.232 194.327 121.687 194.77 121.244 195.213 120.767 195.758 120.529 196.406 120.529L216.898 120.529C217.511 120.529 218.022 120.75 218.431 121.193 218.874 121.602 219.095 122.113 219.095 122.726 219.095 123.339 218.874 123.85 218.431 124.259 218.022 124.668 217.511 124.873 216.898 124.873L198.756 124.873 198.756 136.166 215.058 136.166C215.671 136.166 216.182 136.388 216.591 136.831 217.034 137.239 217.256 137.75 217.256 138.364 217.256 138.977 217.034 139.488 216.591 139.897 216.182 140.306 215.671 140.51 215.058 140.51L198.756 140.51 198.756 151.855 216.898 151.855C217.511 151.855 218.022 152.076 218.431 152.519 218.874 152.928 219.095 153.439 219.095 154.052 219.095 154.665 218.874 155.176 218.431 155.585 218.022 155.994 217.511 156.198 216.898 156.198Z" fill="#2CA05A" transform="matrix(1.0029 0 0 1 147.026 10.1538)"/><path d="M237.322 156.454C236.675 156.454 236.13 156.233 235.687 155.79 235.244 155.347 235.023 154.802 235.023 154.154L235.023 124.873 224.598 124.873C223.985 124.873 223.474 124.668 223.065 124.259 222.656 123.85 222.451 123.339 222.451 122.726 222.451 122.113 222.656 121.602 223.065 121.193 223.474 120.75 223.985 120.529 224.598 120.529L250.047 120.529C250.66 120.529 251.171 120.75 251.58 121.193 252.023 121.602 252.244 122.113 252.244 122.726 252.244 123.339 252.023 123.85 251.58 124.259 251.171 124.668 250.66 124.873 250.047 124.873L239.673 124.873 239.673 154.154C239.673 154.802 239.435 155.347 238.958 155.79 238.515 156.233 237.97 156.454 237.322 156.454Z" fill="#2CA05A" transform="matrix(1.0029 0 0 1 147.026 10.1538)"/><path d="M66.4591 548.853 61.139 558.07 48.9538 579.173 63.0479 579.173 74.5957 559.17 86.1445 579.173 100.237 579.173 88.0534 558.07 82.7323 548.853Z" stroke="#2CA05A" stroke-width="4.02384" stroke-linejoin="round" fill="#2CA05A" transform="matrix(1.0029 0 0 1 87.7709 -414.61)"/><path d="M52.365 548.853 48.9528 554.762 48.9528 554.764 47.0449 558.07 34.8597 579.173 48.9528 579.173 48.9538 579.173 60.5016 559.17 62.4105 555.865 66.4581 548.853Z" stroke="#37C871" stroke-width="4.02384" stroke-linejoin="round" fill="#37C871" transform="matrix(1.0029 0 0 1 87.7709 -414.61)"/><path d="M9.22 534.76 20.7708 554.764 20.7688 554.764 24.8164 561.776 26.7253 565.083 27.815 566.971 20.7688 579.173 34.8597 579.173 34.8609 579.175 34.8619 579.173 34.8639 579.173 46.4117 559.17 48.3206 555.865 52.368 548.853 60.5036 534.76 46.4107 534.76 34.8617 554.762 23.3151 534.76Z" stroke="#87DEAA" stroke-width="4.02384" stroke-linejoin="round" fill="#87DEAA" transform="matrix(1.0029 0 0 1 87.7709 -414.61)"/></g></g></g></g></svg>