<svg width="960" height="540" xmlns="http://www.w3.org/2000/svg" xmlns:xlink="http://www.w3.org/1999/xlink" overflow="hidden"><defs><clipPath id="clip0"><rect x="0" y="0" width="960" height="540"/></clipPath><linearGradient x1="480.001" y1="-0.00166181" x2="479.999" y2="540.002" gradientUnits="userSpaceOnUse" spreadMethod="reflect" id="fill1"><stop offset="0" stop-color="#8BE3FF"/><stop offset="0.027027" stop-color="#8CE4FE"/><stop offset="0.0540541" stop-color="#8EE5FE"/><stop offset="0.0810811" stop-color="#8FE7FE"/><stop offset="0.108108" stop-color="#91E8FE"/><stop offset="0.135135" stop-color="#92E9FE"/><stop offset="0.162162" stop-color="#94EAFD"/><stop offset="0.189189" stop-color="#95ECFD"/><stop offset="0.216216" stop-color="#97EDFC"/><stop offset="0.243243" stop-color="#98EEFC"/><stop offset="0.27027" stop-color="#99EFFB"/><stop offset="0.297297" stop-color="#9AF0FB"/><stop offset="0.324324" stop-color="#9CF1FA"/><stop offset="0.351351" stop-color="#9DF2F9"/><stop offset="0.378378" stop-color="#9EF3F8"/><stop offset="0.405405" stop-color="#9FF4F8"/><stop offset="0.432432" stop-color="#A0F5F7"/><stop offset="0.459459" stop-color="#A1F6F6"/><stop offset="0.486486" stop-color="#A2F6F5"/><stop offset="0.513514" stop-color="#A3F7F4"/><stop offset="0.540541" stop-color="#A4F8F3"/><stop offset="0.567568" stop-color="#A5F9F1"/><stop offset="0.594595" stop-color="#A5F9F0"/><stop offset="0.621622" stop-color="#A6FAEF"/><stop offset="0.648649" stop-color="#A7FBEE"/><stop offset="0.675676" stop-color="#A8FBEC"/><stop offset="0.702703" stop-color="#A8FCEB"/><stop offset="0.72973" stop-color="#A9FCE9"/><stop offset="0.756757" stop-color="#A9FDE8"/><stop offset="0.783784" stop-color="#AAFDE6"/><stop offset="0.810811" stop-color="#AAFDE5"/><stop offset="0.837838" stop-color="#AAFEE3"/><stop offset="0.864865" stop-color="#ABFEE2"/><stop offset="0.891892" stop-color="#ABFEE0"/><stop offset="0.918919" stop-color="#ABFEDE"/><stop offset="0.945946" stop-color="#ABFEDC"/><stop offset="0.972973" stop-color="#ABFEDA"/><stop offset="1" stop-color="#ACFFD9"/></linearGradient><clipPath id="clip2"><rect x="694" y="270" width="304" height="227"/></clipPath><clipPath id="clip3"><rect x="694" y="270" width="304" height="227"/></clipPath><clipPath id="clip4"><rect x="694" y="270" width="304" height="227"/></clipPath><clipPath id="clip5"><rect x="-99" y="296" width="304" height="227"/></clipPath><clipPath id="clip6"><rect x="-99" y="296" width="304" height="227"/></clipPath><clipPath id="clip7"><rect x="-99" y="296" width="304" height="227"/></clipPath></defs><g clip-path="url(#clip0)"><rect x="0" y="0" width="960" height="540" fill="url(#fill1)"/><path d="M1061.14 380.943C1065.14 369.064 1067.85 356.669 1069.57 343.945 1073.08 318.043 1060.3 291.125 1046.58 269.571 1025.76 236.861 996.415 210.852 975.217 178.416 943.833 130.406 916.509 54.7428 847.552 56.5421 792.581 57.9767 763.548 109.1 746.754 154.832 746.294 156.088 745.854 157.34 745.433 158.589 724.832 219.739 752.167 271.75 741.709 302.793 733.941 325.851 711.419 344.628 696.896 363.455 685.377 378.389 674.655 395.877 668.532 414.051 659.867 439.772 660.416 466.864 680.957 490.033 711.685 524.692 762.243 532.753 804.966 519.481 851.339 505.079 892.016 476.005 941.423 471.081 979.47 467.288 1011 457.837 1036.01 427.125 1047.46 413.068 1055.56 397.507 1061.14 380.943Z" fill="#FFFFFF" fill-rule="evenodd"/><text fill="#1F1C51" font-family="Calibri,Calibri_MSFontService,sans-serif" font-weight="400" font-size="72" transform="translate(330.223 278)">Q&amp;A Time</text><path d="M211.733 336.275C215.735 324.396 218.443 312.001 220.163 299.277 223.668 273.375 210.897 246.457 197.177 224.903 176.349 192.193 147.008 166.184 125.81 133.748 94.4259 85.7381 67.1022 10.0747-1.85471 11.8741-56.8258 13.3087-85.859 64.4325-102.652 110.164-103.113 111.42-103.553 112.672-103.974 113.921-124.575 175.071-97.2396 227.082-107.698 258.125-115.466 281.183-137.988 299.96-152.511 318.787-164.03 333.721-174.752 351.209-180.875 369.383-189.54 395.104-188.991 422.196-168.45 445.365-137.722 480.023-87.1638 488.085-44.4412 474.813 1.93228 460.411 42.6092 431.337 92.0162 426.413 130.064 422.62 161.594 413.169 186.607 382.457 198.056 368.4 206.153 352.839 211.733 336.275Z" fill="#FFFFFF" fill-rule="evenodd"/><g clip-path="url(#clip2)"><g clip-path="url(#clip3)"><g clip-path="url(#clip4)"><path d="M106.233 69.5448 145.462 69.5448" stroke="#3F3D56" stroke-width="0.544847" stroke-miterlimit="10" fill="none" transform="matrix(1 0 0 1.00039 694 270.05)"/><path d="M78.5619 120.825C78.5619 122.691 73.7439 124.204 67.8006 124.204 61.8573 124.204 57.0393 122.691 57.0393 120.825 57.0393 118.959 61.8573 117.447 67.8006 117.447 73.7439 117.447 78.5619 118.959 78.5619 120.825Z" fill="#2F2E41" transform="matrix(0.357011 -0.934415 0.934046 0.357152 613.282 401.929)"/><path d="M314.208 147.93C318.474 179.691 312.663 211.487 283.105 223.869 253.546 236.25 219.547 222.325 207.166 192.767 194.785 163.208 223.997 145.522 238.268 116.827 267.248 58.558 300.954 49.295 314.208 147.93Z" fill="#F2F2F2" transform="matrix(1 0 0 1.00039 682.546 260.861)"/><path d="M295.852 216.423C295.852 219.903 275.117 222.723 249.54 222.723 223.962 222.723 203.228 219.903 203.228 216.423 203.228 212.943 223.962 210.123 249.54 210.123 275.117 210.123 295.852 212.943 295.852 216.423Z" fill="#3F3D56" transform="matrix(1 0 0 1.00039 694 270.05)"/><path d="M233.951 205.313 240.489 205.313 240.489 217.027 233.951 217.027Z" fill="#2F2E41" transform="matrix(-0.266428 -0.964206 0.963826 -0.266534 779.43 757.12)"/><path d="M232.073 211.744C232.073 214.754 231.158 217.193 230.03 217.193 228.901 217.193 227.986 214.754 227.986 211.744 227.986 208.735 228.901 206.296 230.03 206.296 231.158 206.296 232.073 208.735 232.073 211.744Z" fill="#2F2E41" transform="matrix(0.963826 -0.266534 0.266428 0.964206 634.447 329.828)"/><path d="M273.75 187.447C273.75 189.313 268.932 190.826 262.989 190.826 257.046 190.826 252.228 189.313 252.228 187.447 252.228 185.582 257.046 184.069 262.989 184.069 268.932 184.069 273.75 185.582 273.75 187.447Z" fill="#2F2E41" transform="matrix(0.134312 -0.991323 0.990932 0.134365 724.463 683.902)"/><path d="M270.948 198.406C270.948 210.292 261.313 219.927 249.427 219.927 237.541 219.927 227.905 210.292 227.905 198.406 227.905 186.52 237.541 176.884 249.427 176.884 261.313 176.884 270.948 186.52 270.948 198.406Z" fill="#2F2E41" transform="matrix(1 0 0 1.00039 694 270.05)"/><path d="M233.951 201.499 240.489 201.499 240.489 213.213 233.951 213.213Z" fill="#2F2E41" transform="matrix(-0.266428 -0.964206 0.963826 -0.266534 783.106 752.288)"/><path d="M232.073 207.93C232.073 210.94 231.158 213.379 230.03 213.379 228.901 213.379 227.986 210.94 227.986 207.93 227.986 204.921 228.901 202.482 230.03 202.482 231.158 202.482 232.073 204.921 232.073 207.93Z" fill="#2F2E41" transform="matrix(0.963826 -0.266534 0.266428 0.964206 635.463 329.69)"/><path d="M262.433 186.077C262.433 190.139 259.14 193.432 255.078 193.432 251.016 193.432 247.723 190.139 247.723 186.077 247.723 182.015 251.016 178.721 255.078 178.721 259.14 178.721 262.433 182.015 262.433 186.077Z" fill="#FFFFFF" transform="matrix(1 0 0 1.00039 694 270.05)"/><path d="M259.882 182.828C259.882 184.182 258.784 185.28 257.43 185.28 256.076 185.28 254.978 184.182 254.978 182.828 254.978 181.474 256.076 180.376 257.43 180.376 258.784 180.376 259.882 181.474 259.882 182.828Z" fill="#3F3D56" transform="matrix(1 0 0 1.00039 694 270.05)"/><path d="M285.734 222.381C293.697 221.982 299.797 214.533 299.358 205.742 298.917 196.952 292.103 190.149 284.14 190.547 276.175 190.946 274.927 197.198 275.366 205.988 275.807 214.779 277.768 222.779 285.734 222.381Z" fill="#00BFA6" transform="matrix(1 0 0 1.00039 682.546 260.861)"/><path d="M252.085 198.486C249.385 198.703 247.02 196.691 246.803 193.992 246.585 191.294 248.595 188.929 251.293 188.71 253.993 188.492 254.729 190.635 254.947 193.334 255.166 196.033 254.784 198.267 252.085 198.486Z" fill="#FFFFFF" transform="matrix(1 0 0 1.00039 682.546 260.861)"/><path d="M13.4752 98.3517 134.021 98.3517 152.71 107.457 182.487 121.964 201.957 85.5102 257.052 85.5102" stroke="#3F3D56" stroke-width="0.544847" stroke-miterlimit="10" fill="none" transform="matrix(1 0 0 1.00039 694 270.05)"/><path d="M64.4272 102.166C64.4272 104.225 62.758 105.894 60.6989 105.894 58.6399 105.894 56.9707 104.225 56.9707 102.166 56.9707 100.107 58.6399 98.4374 60.6989 98.4374 62.758 98.4374 64.4272 100.107 64.4272 102.166Z" fill="#00BFA6" transform="matrix(1 0 0 1.00039 694 270.05)"/><path d="M99.2238 98.3517C99.2238 100.411 97.5546 102.08 95.4956 102.08 93.4365 102.08 91.7674 100.411 91.7674 98.3517 91.7674 96.2926 93.4365 94.6234 95.4956 94.6234 97.5546 94.6234 99.2238 96.2926 99.2238 98.3517Z" fill="#00BFA6" transform="matrix(1 0 0 1.00039 694 270.05)"/><path d="M156.39 107.465C156.39 109.524 154.721 111.193 152.662 111.193 150.603 111.193 148.933 109.524 148.933 107.465 148.933 105.406 150.603 103.737 152.662 103.737 154.721 103.737 156.39 105.406 156.39 107.465Z" fill="#00BFA6" transform="matrix(1 0 0 1.00039 694 270.05)"/><path d="M236.753 85.5102C236.753 87.5692 235.084 89.2384 233.025 89.2384 230.966 89.2384 229.297 87.5692 229.297 85.5102 229.297 83.4511 230.966 81.7819 233.025 81.7819 235.084 81.7819 236.753 83.4511 236.753 85.5102Z" fill="#00BFA6" transform="matrix(1 0 0 1.00039 694 270.05)"/><path d="M197.814 100.009C197.814 102.068 196.145 103.737 194.086 103.737 192.027 103.737 190.358 102.068 190.358 100.009 190.358 97.9498 192.027 96.2806 194.086 96.2806 196.145 96.2806 197.814 97.9498 197.814 100.009Z" fill="#00BFA6" transform="matrix(1 0 0 1.00039 694 270.05)"/><path d="M120.501 158.398C120.501 160.618 118.702 162.418 116.482 162.418 114.262 162.418 112.462 160.618 112.462 158.398 112.462 156.178 114.262 154.378 116.482 154.378 118.702 154.378 120.501 156.178 120.501 158.398Z" stroke="#3F3D56" stroke-width="0.544847" stroke-miterlimit="10" fill="none" transform="matrix(1 0 0 1.00039 694 270.05)"/><path d="M92.624 220.509C92.624 223.989 71.8894 226.81 46.312 226.81 20.7346 226.81 0 223.989 0 220.509-7.74274e-15 217.03 20.7346 214.209 46.312 214.209 71.8894 214.209 92.624 217.03 92.624 220.509Z" fill="#3F3D56" transform="matrix(1 0 0 1.00039 694 270.05)"/><path d="M65.3285 189.725C65.3285 201.611 55.693 211.247 43.807 211.247 31.9211 211.247 22.2856 201.611 22.2856 189.725 22.2856 177.839 31.9211 168.204 43.807 168.204 55.693 168.204 65.3285 177.839 65.3285 189.725Z" fill="#2F2E41" transform="matrix(1 0 0 1.00039 694 270.05)"/><path d="M33.9998 206.616 40.538 206.616 40.538 218.33 33.9998 218.33Z" fill="#2F2E41" transform="matrix(1 0 0 1.00039 694 270.05)"/><path d="M47.0761 206.616 53.6143 206.616 53.6143 218.33 47.0761 218.33Z" fill="#2F2E41" transform="matrix(1 0 0 1.00039 694 270.05)"/><path d="M44.8967 218.466C44.8967 219.595 42.4574 220.509 39.4483 220.509 36.4392 220.509 33.9998 219.595 33.9998 218.466 33.9998 217.338 36.4392 216.423 39.4483 216.423 42.4574 216.423 44.8967 217.338 44.8967 218.466Z" fill="#2F2E41" transform="matrix(1 0 0 1.00039 694 270.05)"/><path d="M57.9731 218.194C57.9731 219.322 55.5337 220.237 52.5246 220.237 49.5155 220.237 47.0761 219.322 47.0761 218.194 47.0761 217.065 49.5155 216.151 52.5246 216.151 55.5337 216.151 57.9731 217.065 57.9731 218.194Z" fill="#2F2E41" transform="matrix(1 0 0 1.00039 694 270.05)"/><path d="M51.7073 184.277C51.7073 188.339 48.4142 191.632 44.3519 191.632 40.2896 191.632 36.9965 188.339 36.9965 184.277 36.9965 180.215 40.2896 176.922 44.3519 176.922 48.4142 176.922 51.7073 180.215 51.7073 184.277Z" fill="#FFFFFF" transform="matrix(1 0 0 1.00039 694 270.05)"/><path d="M46.8037 184.277C46.8037 185.631 45.706 186.729 44.3519 186.729 42.9978 186.729 41.9001 185.631 41.9001 184.277 41.9001 182.923 42.9978 181.825 44.3519 181.825 45.706 181.825 46.8037 182.923 46.8037 184.277Z" fill="#3F3D56" transform="matrix(1 0 0 1.00039 694 270.05)"/><path d="M34.3839 178.897C32.6461 171.114 38.2011 163.251 46.7912 161.332 55.3812 159.414 63.7536 164.168 65.4914 171.951 67.2292 179.733 61.5361 182.604 52.946 184.522 44.356 186.44 36.1217 186.679 34.3839 178.897Z" fill="#00BFA6" transform="matrix(1 0 0 1.00039 682.546 260.861)"/><path d="M57.9731 127.885C57.9731 139.771 48.3376 149.407 36.4516 149.407 24.5656 149.407 14.9302 139.771 14.9302 127.885 14.9302 115.999 24.5656 106.364 36.4516 106.364 48.3376 106.364 57.9731 115.999 57.9731 127.885Z" fill="#2F2E41" transform="matrix(1 0 0 1.00039 694 270.05)"/><path d="M26.6443 144.776 33.1824 144.776 33.1824 156.49 26.6443 156.49Z" fill="#2F2E41" transform="matrix(1 0 0 1.00039 694 270.05)"/><path d="M39.7207 144.776 46.2589 144.776 46.2589 156.49 39.7207 156.49Z" fill="#2F2E41" transform="matrix(1 0 0 1.00039 694 270.05)"/><path d="M37.5413 156.626C37.5413 157.754 35.1019 158.669 32.0928 158.669 29.0837 158.669 26.6444 157.754 26.6444 156.626 26.6444 155.498 29.0837 154.583 32.0928 154.583 35.1019 154.583 37.5413 155.498 37.5413 156.626Z" fill="#2F2E41" transform="matrix(1 0 0 1.00039 694 270.05)"/><path d="M50.6176 156.354C50.6176 157.482 48.1783 158.397 45.1692 158.397 42.1601 158.397 39.7207 157.482 39.7207 156.354 39.7207 155.225 42.1601 154.31 45.1692 154.31 48.1783 154.31 50.6176 155.225 50.6176 156.354Z" fill="#2F2E41" transform="matrix(1 0 0 1.00039 694 270.05)"/><path d="M44.3519 122.437C44.3519 126.499 41.0588 129.792 36.9965 129.792 32.9342 129.792 29.641 126.499 29.641 122.437 29.641 118.375 32.9342 115.081 36.9965 115.081 41.0588 115.081 44.3519 118.375 44.3519 122.437Z" fill="#FFFFFF" transform="matrix(1 0 0 1.00039 694 270.05)"/><path d="M39.4483 122.437C39.4483 123.791 38.3506 124.889 36.9965 124.889 35.6424 124.889 34.5447 123.791 34.5447 122.437 34.5447 121.083 35.6424 119.985 36.9965 119.985 38.3506 119.985 39.4483 121.083 39.4483 122.437Z" fill="#3F3D56" transform="matrix(1 0 0 1.00039 694 270.05)"/><path d="M27.0285 117.057C25.2907 109.274 30.8457 101.41 39.4357 99.4923 48.0258 97.5742 56.3982 102.328 58.136 110.111 59.8738 117.893 54.1807 120.763 45.5906 122.682 37.0005 124.6 28.7663 124.839 27.0285 117.057Z" fill="#00BFA6" transform="matrix(1 0 0 1.00039 682.546 260.861)"/><path d="M27.0448 127.094C27.0448 133.038 25.5322 137.856 23.6664 137.856 21.8006 137.856 20.288 133.038 20.288 127.094 20.288 121.151 21.8006 116.333 23.6664 116.333 25.5322 116.333 27.0448 121.151 27.0448 127.094Z" fill="#2F2E41" transform="matrix(0.428498 -0.903819 0.903463 0.428667 581.245 354.905)"/><path d="M37.3337 144.835C37.3337 146.942 42.7574 151.101 48.7755 151.101 54.7936 151.101 60.4366 145.171 60.4366 143.065 60.4366 140.958 54.7936 143.473 48.7755 143.473 42.7574 143.473 37.3337 142.729 37.3337 144.835Z" fill="#FFFFFF" transform="matrix(1 0 0 1.00039 682.546 260.861)"/><path d="M227.603 153.84 261.963 153.84 261.963 171.319 227.603 171.319Z" fill="#00BFA6" transform="matrix(1 0 0 1.00039 694 270.05)"/><path d="M224.914 156.679 259.274 156.679 259.274 174.158 224.914 174.158Z" stroke="#3F3D56" stroke-width="0.544847" stroke-miterlimit="10" fill="none" transform="matrix(1 0 0 1.00039 694 270.05)"/><path d="M61.732 54.2123 71.5392 54.2123 71.5392 64.0195 61.732 64.0195Z" fill="#FF6584" transform="matrix(1 0 0 1.00039 694 270.05)"/><path d="M59.2802 50.9432 69.0874 50.9432 69.0874 60.7504 59.2802 60.7504Z" stroke="#3F3D56" stroke-width="0.544847" stroke-miterlimit="10" fill="none" transform="matrix(1 0 0 1.00039 694 270.05)"/><path d="M268.351 51.6161C268.351 63.502 258.716 73.1375 246.83 73.1375 234.944 73.1375 225.308 63.502 225.308 51.6161 225.308 39.7301 234.944 30.0946 246.83 30.0946 258.716 30.0946 268.351 39.7301 268.351 51.6161Z" fill="#2F2E41" transform="matrix(1 0 0 1.00039 694 270.05)"/><path d="M265.504 76.1648 272.042 76.1648 272.042 87.8792 265.504 87.8792Z" fill="#2F2E41" transform="matrix(-0.983995 0.178198 -0.178127 -0.984383 1230.4 375.759)"/><path d="M252.636 78.4938 259.174 78.4938 259.174 90.2081 252.636 90.2081Z" fill="#2F2E41" transform="matrix(-0.983994 0.178201 -0.178131 -0.984383 1205.28 382.675)"/><path d="M261.315 91.5774C261.315 92.706 258.875 93.6209 255.865 93.6209 252.856 93.6209 250.416 92.706 250.416 91.5774 250.416 90.4488 252.856 89.5339 255.865 89.5339 258.875 89.5339 261.315 90.4488 261.315 91.5774Z" fill="#2F2E41" transform="matrix(0.762982 -0.64642 0.646164 0.763283 683.975 447.956)"/><path d="M273.916 89.2963C273.916 90.4249 271.476 91.3398 268.467 91.3398 265.457 91.3398 263.017 90.4249 263.017 89.2963 263.017 88.1677 265.457 87.2528 268.467 87.2528 271.476 87.2528 273.916 88.1677 273.916 89.2963Z" fill="#2F2E41" transform="matrix(0.762982 -0.64642 0.646164 0.763283 688.434 455.562)"/><path d="M252.678 46.3518C252.678 50.414 249.385 53.7072 245.323 53.7072 241.261 53.7072 237.968 50.414 237.968 46.3518 237.968 42.2895 241.261 38.9963 245.323 38.9963 249.385 38.9963 252.678 42.2895 252.678 46.3518Z" fill="#FFFFFF" transform="matrix(1 0 0 1.00039 694 270.05)"/><path d="M244.752 43.7152C244.752 45.0693 243.654 46.1671 242.3 46.1671 240.946 46.1671 239.848 45.0693 239.848 43.7152 239.848 42.3611 240.946 41.2634 242.3 41.2634 243.654 41.2634 244.752 42.3611 244.752 43.7152Z" fill="#3F3D56" transform="matrix(1 0 0 1.00039 694 270.05)"/><path d="M275.262 37.3888C275.584 29.4212 268.717 22.6725 259.923 22.3153 251.129 21.9581 243.737 28.1274 243.414 36.095 243.09 44.0626 249.203 45.8728 257.997 46.2303 266.792 46.5874 274.938 45.3563 275.262 37.3888Z" fill="#00BFA6" transform="matrix(1 0 0 1.00039 682.546 260.861)"/><path d="M241.794 56.882C241.794 62.8251 240.282 67.643 238.416 67.643 236.55 67.643 235.038 62.8251 235.038 56.882 235.038 50.9389 236.55 46.1211 238.416 46.1211 240.282 46.1211 241.794 50.9389 241.794 56.882Z" fill="#2F2E41" transform="matrix(0.223418 -0.975088 0.974703 0.223506 812.248 537.527)"/><path d="M284.04 63.9074C284.04 69.8505 282.527 74.6684 280.662 74.6684 278.796 74.6684 277.283 69.8505 277.283 63.9074 277.283 57.9643 278.796 53.1465 280.662 53.1465 282.527 53.1465 284.04 57.9643 284.04 63.9074Z" fill="#2F2E41" transform="matrix(0.223418 -0.975088 0.974703 0.223506 838.208 584.18)"/><path d="M264.194 69.283C264.677 71.9478 262.907 74.4994 260.243 74.9818 257.578 75.4643 255.026 73.6949 254.544 71.0301 254.061 68.3652 256.122 67.4221 258.787 66.9399 261.452 66.4574 263.712 66.6181 264.194 69.283Z" fill="#FFFFFF" transform="matrix(1 0 0 1.00039 682.546 260.861)"/><path d="M194.13 26.9699 218.92 46.0396" stroke="#3F3D56" stroke-width="0.544847" stroke-miterlimit="10" fill="none" transform="matrix(1 0 0 1.00039 694 270.05)"/><path d="M200.94 18.5248C200.94 28.7558 192.646 37.0496 182.416 37.0496 172.185 37.0496 163.891 28.7558 163.891 18.5248 163.891 8.29383 172.185 0 182.416 0 192.646-3.87137e-15 200.94 8.29383 200.94 18.5248Z" fill="#FF6584" transform="matrix(1 0 0 1.00039 694 270.05)"/><path d="M265.672 192.561C265.672 194.427 260.854 195.939 254.911 195.939 248.968 195.939 244.15 194.427 244.15 192.561 244.15 190.695 248.968 189.183 254.911 189.183 260.854 189.183 265.672 190.695 265.672 192.561Z" fill="#2F2E41" transform="matrix(0.134312 -0.991323 0.990932 0.134365 712.403 680.324)"/><path d="M22.4741 214.132C22.4741 216.191 20.8049 217.86 18.7458 217.86 16.6868 217.86 15.0176 216.191 15.0176 214.132 15.0176 212.073 16.6868 210.403 18.7458 210.403 20.8049 210.403 22.4741 212.073 22.4741 214.132Z" fill="#00BFA6" transform="matrix(1 0 0 1.00039 694 270.05)"/><path d="M69.9047 209.766 79.7119 209.766 79.7119 219.573 69.9047 219.573Z" fill="#FF6584" transform="matrix(1 0 0 1.00039 694 270.05)"/><path d="M73.6896 216.311C73.6896 218.37 72.0204 220.039 69.9613 220.039 67.9023 220.039 66.2331 218.37 66.2331 216.311 66.2331 214.252 67.9023 212.583 69.9613 212.583 72.0204 212.583 73.6896 214.252 73.6896 216.311Z" fill="#00BFA6" transform="matrix(1 0 0 1.00039 694 270.05)"/><path d="M129.576 69.4748C129.576 71.5338 127.907 73.203 125.848 73.203 123.789 73.203 122.12 71.5338 122.12 69.4748 122.12 67.4157 123.789 65.7466 125.848 65.7466 127.907 65.7466 129.576 67.4157 129.576 69.4748Z" fill="#00BFA6" transform="matrix(1 0 0 1.00039 694 270.05)"/><path d="M200.029 185.044C200.029 186.027 199.232 186.825 198.248 186.825 197.265 186.825 196.468 186.027 196.468 185.044 196.468 184.061 197.265 183.264 198.248 183.264 199.232 183.264 200.029 184.061 200.029 185.044Z" fill="#FF6584" transform="matrix(1 0 0 1.00039 694 270.05)"/><path d="M206.971 214.595 206.971 194.323" stroke="#3F3D56" stroke-width="0.544847" stroke-miterlimit="10" fill="none" transform="matrix(1 0 0 1.00039 694 270.05)"/><path d="M209.837 194.323C209.837 195.906 208.554 197.19 206.971 197.19 205.387 197.19 204.104 195.906 204.104 194.323 204.104 192.74 205.387 191.456 206.971 191.456 208.554 191.456 209.837 192.74 209.837 194.323Z" fill="#3F3D56" transform="matrix(1 0 0 1.00039 694 270.05)"/><path d="M218.424 216.003C218.424 216.003 218.015 207.195 209.619 208.218" fill="#3F3D56" transform="matrix(1 0 0 1.00039 682.546 260.861)"/></g></g></g><g clip-path="url(#clip5)"><g clip-path="url(#clip6)"><g clip-path="url(#clip7)"><path d="M106.233 69.5448 145.462 69.5448" stroke="#3F3D56" stroke-width="0.544847" stroke-miterlimit="10" fill="none" transform="matrix(-1 0 0 1.00039 205 296.05)"/><path d="M78.5619 120.825C78.5619 122.691 73.7439 124.204 67.8006 124.204 61.8573 124.204 57.0393 122.691 57.0393 120.825 57.0393 118.959 61.8573 117.447 67.8006 117.447 73.7439 117.447 78.5619 118.959 78.5619 120.825Z" fill="#2F2E41" transform="matrix(-0.357011 -0.934415 -0.934046 0.357152 285.718 427.929)"/><path d="M314.208 147.93C318.474 179.691 312.663 211.487 283.105 223.869 253.546 236.25 219.547 222.325 207.166 192.767 194.785 163.208 223.997 145.522 238.268 116.827 267.248 58.558 300.954 49.295 314.208 147.93Z" fill="#F2F2F2" transform="matrix(-1 0 0 1.00039 216.454 286.861)"/><path d="M295.852 216.423C295.852 219.903 275.117 222.723 249.54 222.723 223.962 222.723 203.228 219.903 203.228 216.423 203.228 212.943 223.962 210.123 249.54 210.123 275.117 210.123 295.852 212.943 295.852 216.423Z" fill="#3F3D56" transform="matrix(-1 0 0 1.00039 205 296.05)"/><path d="M233.951 205.313 240.489 205.313 240.489 217.027 233.951 217.027Z" fill="#2F2E41" transform="matrix(0.266428 -0.964206 -0.963826 -0.266534 119.57 783.12)"/><path d="M232.073 211.744C232.073 214.754 231.158 217.193 230.03 217.193 228.901 217.193 227.986 214.754 227.986 211.744 227.986 208.735 228.901 206.296 230.03 206.296 231.158 206.296 232.073 208.735 232.073 211.744Z" fill="#2F2E41" transform="matrix(-0.963826 -0.266534 -0.266428 0.964206 264.553 355.828)"/><path d="M273.75 187.447C273.75 189.313 268.932 190.826 262.989 190.826 257.046 190.826 252.228 189.313 252.228 187.447 252.228 185.582 257.046 184.069 262.989 184.069 268.932 184.069 273.75 185.582 273.75 187.447Z" fill="#2F2E41" transform="matrix(-0.134312 -0.991323 -0.990932 0.134365 174.537 709.902)"/><path d="M270.948 198.406C270.948 210.292 261.313 219.927 249.427 219.927 237.541 219.927 227.905 210.292 227.905 198.406 227.905 186.52 237.541 176.884 249.427 176.884 261.313 176.884 270.948 186.52 270.948 198.406Z" fill="#2F2E41" transform="matrix(-1 0 0 1.00039 205 296.05)"/><path d="M233.951 201.499 240.489 201.499 240.489 213.213 233.951 213.213Z" fill="#2F2E41" transform="matrix(0.266428 -0.964206 -0.963826 -0.266534 115.894 778.288)"/><path d="M232.073 207.93C232.073 210.94 231.158 213.379 230.03 213.379 228.901 213.379 227.986 210.94 227.986 207.93 227.986 204.921 228.901 202.482 230.03 202.482 231.158 202.482 232.073 204.921 232.073 207.93Z" fill="#2F2E41" transform="matrix(-0.963826 -0.266534 -0.266428 0.964206 263.537 355.69)"/><path d="M262.433 186.077C262.433 190.139 259.14 193.432 255.078 193.432 251.016 193.432 247.723 190.139 247.723 186.077 247.723 182.015 251.016 178.721 255.078 178.721 259.14 178.721 262.433 182.015 262.433 186.077Z" fill="#FFFFFF" transform="matrix(-1 0 0 1.00039 205 296.05)"/><path d="M259.882 182.828C259.882 184.182 258.784 185.28 257.43 185.28 256.076 185.28 254.978 184.182 254.978 182.828 254.978 181.474 256.076 180.376 257.43 180.376 258.784 180.376 259.882 181.474 259.882 182.828Z" fill="#3F3D56" transform="matrix(-1 0 0 1.00039 205 296.05)"/><path d="M285.734 222.381C293.697 221.982 299.797 214.533 299.358 205.742 298.917 196.952 292.103 190.149 284.14 190.547 276.175 190.946 274.927 197.198 275.366 205.988 275.807 214.779 277.768 222.779 285.734 222.381Z" fill="#00BFA6" transform="matrix(-1 0 0 1.00039 216.454 286.861)"/><path d="M252.085 198.486C249.385 198.703 247.02 196.691 246.803 193.992 246.585 191.294 248.595 188.929 251.293 188.71 253.993 188.492 254.729 190.635 254.947 193.334 255.166 196.033 254.784 198.267 252.085 198.486Z" fill="#FFFFFF" transform="matrix(-1 0 0 1.00039 216.454 286.861)"/><path d="M13.4752 98.3517 134.021 98.3517 152.71 107.457 182.487 121.964 201.957 85.5102 257.052 85.5102" stroke="#3F3D56" stroke-width="0.544847" stroke-miterlimit="10" fill="none" transform="matrix(-1 0 0 1.00039 205 296.05)"/><path d="M64.4272 102.166C64.4272 104.225 62.758 105.894 60.6989 105.894 58.6399 105.894 56.9707 104.225 56.9707 102.166 56.9707 100.107 58.6399 98.4374 60.6989 98.4374 62.758 98.4374 64.4272 100.107 64.4272 102.166Z" fill="#00BFA6" transform="matrix(-1 0 0 1.00039 205 296.05)"/><path d="M99.2238 98.3517C99.2238 100.411 97.5546 102.08 95.4956 102.08 93.4365 102.08 91.7674 100.411 91.7674 98.3517 91.7674 96.2926 93.4365 94.6234 95.4956 94.6234 97.5546 94.6234 99.2238 96.2926 99.2238 98.3517Z" fill="#00BFA6" transform="matrix(-1 0 0 1.00039 205 296.05)"/><path d="M156.39 107.465C156.39 109.524 154.721 111.193 152.662 111.193 150.603 111.193 148.933 109.524 148.933 107.465 148.933 105.406 150.603 103.737 152.662 103.737 154.721 103.737 156.39 105.406 156.39 107.465Z" fill="#00BFA6" transform="matrix(-1 0 0 1.00039 205 296.05)"/><path d="M236.753 85.5102C236.753 87.5692 235.084 89.2384 233.025 89.2384 230.966 89.2384 229.297 87.5692 229.297 85.5102 229.297 83.4511 230.966 81.7819 233.025 81.7819 235.084 81.7819 236.753 83.4511 236.753 85.5102Z" fill="#00BFA6" transform="matrix(-1 0 0 1.00039 205 296.05)"/><path d="M197.814 100.009C197.814 102.068 196.145 103.737 194.086 103.737 192.027 103.737 190.358 102.068 190.358 100.009 190.358 97.9498 192.027 96.2806 194.086 96.2806 196.145 96.2806 197.814 97.9498 197.814 100.009Z" fill="#00BFA6" transform="matrix(-1 0 0 1.00039 205 296.05)"/><path d="M120.501 158.398C120.501 160.618 118.702 162.418 116.482 162.418 114.262 162.418 112.462 160.618 112.462 158.398 112.462 156.178 114.262 154.378 116.482 154.378 118.702 154.378 120.501 156.178 120.501 158.398Z" stroke="#3F3D56" stroke-width="0.544847" stroke-miterlimit="10" fill="none" transform="matrix(-1 0 0 1.00039 205 296.05)"/><path d="M92.624 220.509C92.624 223.989 71.8894 226.81 46.312 226.81 20.7346 226.81 0 223.989 0 220.509-7.74274e-15 217.03 20.7346 214.209 46.312 214.209 71.8894 214.209 92.624 217.03 92.624 220.509Z" fill="#3F3D56" transform="matrix(-1 0 0 1.00039 205 296.05)"/><path d="M65.3285 189.725C65.3285 201.611 55.693 211.247 43.807 211.247 31.9211 211.247 22.2856 201.611 22.2856 189.725 22.2856 177.839 31.9211 168.204 43.807 168.204 55.693 168.204 65.3285 177.839 65.3285 189.725Z" fill="#2F2E41" transform="matrix(-1 0 0 1.00039 205 296.05)"/><path d="M33.9998 206.616 40.538 206.616 40.538 218.33 33.9998 218.33Z" fill="#2F2E41" transform="matrix(-1 0 0 1.00039 205 296.05)"/><path d="M47.0761 206.616 53.6143 206.616 53.6143 218.33 47.0761 218.33Z" fill="#2F2E41" transform="matrix(-1 0 0 1.00039 205 296.05)"/><path d="M44.8967 218.466C44.8967 219.595 42.4574 220.509 39.4483 220.509 36.4392 220.509 33.9998 219.595 33.9998 218.466 33.9998 217.338 36.4392 216.423 39.4483 216.423 42.4574 216.423 44.8967 217.338 44.8967 218.466Z" fill="#2F2E41" transform="matrix(-1 0 0 1.00039 205 296.05)"/><path d="M57.9731 218.194C57.9731 219.322 55.5337 220.237 52.5246 220.237 49.5155 220.237 47.0761 219.322 47.0761 218.194 47.0761 217.065 49.5155 216.151 52.5246 216.151 55.5337 216.151 57.9731 217.065 57.9731 218.194Z" fill="#2F2E41" transform="matrix(-1 0 0 1.00039 205 296.05)"/><path d="M51.7073 184.277C51.7073 188.339 48.4142 191.632 44.3519 191.632 40.2896 191.632 36.9965 188.339 36.9965 184.277 36.9965 180.215 40.2896 176.922 44.3519 176.922 48.4142 176.922 51.7073 180.215 51.7073 184.277Z" fill="#FFFFFF" transform="matrix(-1 0 0 1.00039 205 296.05)"/><path d="M46.8037 184.277C46.8037 185.631 45.706 186.729 44.3519 186.729 42.9978 186.729 41.9001 185.631 41.9001 184.277 41.9001 182.923 42.9978 181.825 44.3519 181.825 45.706 181.825 46.8037 182.923 46.8037 184.277Z" fill="#3F3D56" transform="matrix(-1 0 0 1.00039 205 296.05)"/><path d="M34.3839 178.897C32.6461 171.114 38.2011 163.251 46.7912 161.332 55.3812 159.414 63.7536 164.168 65.4914 171.951 67.2292 179.733 61.5361 182.604 52.946 184.522 44.356 186.44 36.1217 186.679 34.3839 178.897Z" fill="#00BFA6" transform="matrix(-1 0 0 1.00039 216.454 286.861)"/><path d="M57.9731 127.885C57.9731 139.771 48.3376 149.407 36.4516 149.407 24.5656 149.407 14.9302 139.771 14.9302 127.885 14.9302 115.999 24.5656 106.364 36.4516 106.364 48.3376 106.364 57.9731 115.999 57.9731 127.885Z" fill="#2F2E41" transform="matrix(-1 0 0 1.00039 205 296.05)"/><path d="M26.6443 144.776 33.1824 144.776 33.1824 156.49 26.6443 156.49Z" fill="#2F2E41" transform="matrix(-1 0 0 1.00039 205 296.05)"/><path d="M39.7207 144.776 46.2589 144.776 46.2589 156.49 39.7207 156.49Z" fill="#2F2E41" transform="matrix(-1 0 0 1.00039 205 296.05)"/><path d="M37.5413 156.626C37.5413 157.754 35.1019 158.669 32.0928 158.669 29.0837 158.669 26.6444 157.754 26.6444 156.626 26.6444 155.498 29.0837 154.583 32.0928 154.583 35.1019 154.583 37.5413 155.498 37.5413 156.626Z" fill="#2F2E41" transform="matrix(-1 0 0 1.00039 205 296.05)"/><path d="M50.6176 156.354C50.6176 157.482 48.1783 158.397 45.1692 158.397 42.1601 158.397 39.7207 157.482 39.7207 156.354 39.7207 155.225 42.1601 154.31 45.1692 154.31 48.1783 154.31 50.6176 155.225 50.6176 156.354Z" fill="#2F2E41" transform="matrix(-1 0 0 1.00039 205 296.05)"/><path d="M44.3519 122.437C44.3519 126.499 41.0588 129.792 36.9965 129.792 32.9342 129.792 29.641 126.499 29.641 122.437 29.641 118.375 32.9342 115.081 36.9965 115.081 41.0588 115.081 44.3519 118.375 44.3519 122.437Z" fill="#FFFFFF" transform="matrix(-1 0 0 1.00039 205 296.05)"/><path d="M39.4483 122.437C39.4483 123.791 38.3506 124.889 36.9965 124.889 35.6424 124.889 34.5447 123.791 34.5447 122.437 34.5447 121.083 35.6424 119.985 36.9965 119.985 38.3506 119.985 39.4483 121.083 39.4483 122.437Z" fill="#3F3D56" transform="matrix(-1 0 0 1.00039 205 296.05)"/><path d="M27.0285 117.057C25.2907 109.274 30.8457 101.41 39.4357 99.4923 48.0258 97.5742 56.3982 102.328 58.136 110.111 59.8738 117.893 54.1807 120.763 45.5906 122.682 37.0005 124.6 28.7663 124.839 27.0285 117.057Z" fill="#00BFA6" transform="matrix(-1 0 0 1.00039 216.454 286.861)"/><path d="M27.0448 127.094C27.0448 133.038 25.5322 137.856 23.6664 137.856 21.8006 137.856 20.288 133.038 20.288 127.094 20.288 121.151 21.8006 116.333 23.6664 116.333 25.5322 116.333 27.0448 121.151 27.0448 127.094Z" fill="#2F2E41" transform="matrix(-0.428498 -0.903819 -0.903463 0.428667 317.755 380.905)"/><path d="M37.3337 144.835C37.3337 146.942 42.7574 151.101 48.7755 151.101 54.7936 151.101 60.4366 145.171 60.4366 143.065 60.4366 140.958 54.7936 143.473 48.7755 143.473 42.7574 143.473 37.3337 142.729 37.3337 144.835Z" fill="#FFFFFF" transform="matrix(-1 0 0 1.00039 216.454 286.861)"/><path d="M227.603 153.84 261.963 153.84 261.963 171.319 227.603 171.319Z" fill="#00BFA6" transform="matrix(-1 0 0 1.00039 205 296.05)"/><path d="M224.914 156.679 259.274 156.679 259.274 174.158 224.914 174.158Z" stroke="#3F3D56" stroke-width="0.544847" stroke-miterlimit="10" fill="none" transform="matrix(-1 0 0 1.00039 205 296.05)"/><path d="M61.732 54.2123 71.5392 54.2123 71.5392 64.0195 61.732 64.0195Z" fill="#FF6584" transform="matrix(-1 0 0 1.00039 205 296.05)"/><path d="M59.2802 50.9432 69.0874 50.9432 69.0874 60.7504 59.2802 60.7504Z" stroke="#3F3D56" stroke-width="0.544847" stroke-miterlimit="10" fill="none" transform="matrix(-1 0 0 1.00039 205 296.05)"/><path d="M268.351 51.6161C268.351 63.502 258.716 73.1375 246.83 73.1375 234.944 73.1375 225.308 63.502 225.308 51.6161 225.308 39.7301 234.944 30.0946 246.83 30.0946 258.716 30.0946 268.351 39.7301 268.351 51.6161Z" fill="#2F2E41" transform="matrix(-1 0 0 1.00039 205 296.05)"/><path d="M265.504 76.1648 272.042 76.1648 272.042 87.8792 265.504 87.8792Z" fill="#2F2E41" transform="matrix(0.983995 0.178198 0.178127 -0.984383 -331.396 401.759)"/><path d="M252.636 78.4938 259.174 78.4938 259.174 90.2081 252.636 90.2081Z" fill="#2F2E41" transform="matrix(0.983994 0.178201 0.178131 -0.984383 -306.282 408.675)"/><path d="M261.315 91.5774C261.315 92.706 258.875 93.6209 255.865 93.6209 252.856 93.6209 250.416 92.706 250.416 91.5774 250.416 90.4488 252.856 89.5339 255.865 89.5339 258.875 89.5339 261.315 90.4488 261.315 91.5774Z" fill="#2F2E41" transform="matrix(-0.762982 -0.64642 -0.646164 0.763283 215.025 473.956)"/><path d="M273.916 89.2963C273.916 90.4249 271.476 91.3398 268.467 91.3398 265.457 91.3398 263.017 90.4249 263.017 89.2963 263.017 88.1677 265.457 87.2528 268.467 87.2528 271.476 87.2528 273.916 88.1677 273.916 89.2963Z" fill="#2F2E41" transform="matrix(-0.762982 -0.64642 -0.646164 0.763283 210.566 481.562)"/><path d="M252.678 46.3518C252.678 50.414 249.385 53.7072 245.323 53.7072 241.261 53.7072 237.968 50.414 237.968 46.3518 237.968 42.2895 241.261 38.9963 245.323 38.9963 249.385 38.9963 252.678 42.2895 252.678 46.3518Z" fill="#FFFFFF" transform="matrix(-1 0 0 1.00039 205 296.05)"/><path d="M244.752 43.7152C244.752 45.0693 243.654 46.1671 242.3 46.1671 240.946 46.1671 239.848 45.0693 239.848 43.7152 239.848 42.3611 240.946 41.2634 242.3 41.2634 243.654 41.2634 244.752 42.3611 244.752 43.7152Z" fill="#3F3D56" transform="matrix(-1 0 0 1.00039 205 296.05)"/><path d="M275.262 37.3888C275.584 29.4212 268.717 22.6725 259.923 22.3153 251.129 21.9581 243.737 28.1274 243.414 36.095 243.09 44.0626 249.203 45.8728 257.997 46.2303 266.792 46.5874 274.938 45.3563 275.262 37.3888Z" fill="#00BFA6" transform="matrix(-1 0 0 1.00039 216.454 286.861)"/><path d="M241.794 56.882C241.794 62.8251 240.282 67.643 238.416 67.643 236.55 67.643 235.038 62.8251 235.038 56.882 235.038 50.9389 236.55 46.1211 238.416 46.1211 240.282 46.1211 241.794 50.9389 241.794 56.882Z" fill="#2F2E41" transform="matrix(-0.223418 -0.975088 -0.974703 0.223506 86.7516 563.527)"/><path d="M284.04 63.9074C284.04 69.8505 282.527 74.6684 280.662 74.6684 278.796 74.6684 277.283 69.8505 277.283 63.9074 277.283 57.9643 278.796 53.1465 280.662 53.1465 282.527 53.1465 284.04 57.9643 284.04 63.9074Z" fill="#2F2E41" transform="matrix(-0.223418 -0.975088 -0.974703 0.223506 60.7924 610.18)"/><path d="M264.194 69.283C264.677 71.9478 262.907 74.4994 260.243 74.9818 257.578 75.4643 255.026 73.6949 254.544 71.0301 254.061 68.3652 256.122 67.4221 258.787 66.9399 261.452 66.4574 263.712 66.6181 264.194 69.283Z" fill="#FFFFFF" transform="matrix(-1 0 0 1.00039 216.454 286.861)"/><path d="M194.13 26.9699 218.92 46.0396" stroke="#3F3D56" stroke-width="0.544847" stroke-miterlimit="10" fill="none" transform="matrix(-1 0 0 1.00039 205 296.05)"/><path d="M200.94 18.5248C200.94 28.7558 192.646 37.0496 182.416 37.0496 172.185 37.0496 163.891 28.7558 163.891 18.5248 163.891 8.29383 172.185 0 182.416 0 192.646-3.87137e-15 200.94 8.29383 200.94 18.5248Z" fill="#FF6584" transform="matrix(-1 0 0 1.00039 205 296.05)"/><path d="M265.672 192.561C265.672 194.427 260.854 195.939 254.911 195.939 248.968 195.939 244.15 194.427 244.15 192.561 244.15 190.695 248.968 189.183 254.911 189.183 260.854 189.183 265.672 190.695 265.672 192.561Z" fill="#2F2E41" transform="matrix(-0.134312 -0.991323 -0.990932 0.134365 186.597 706.324)"/><path d="M22.4741 214.132C22.4741 216.191 20.8049 217.86 18.7458 217.86 16.6868 217.86 15.0176 216.191 15.0176 214.132 15.0176 212.073 16.6868 210.403 18.7458 210.403 20.8049 210.403 22.4741 212.073 22.4741 214.132Z" fill="#00BFA6" transform="matrix(-1 0 0 1.00039 205 296.05)"/><path d="M69.9047 209.766 79.7119 209.766 79.7119 219.573 69.9047 219.573Z" fill="#FF6584" transform="matrix(-1 0 0 1.00039 205 296.05)"/><path d="M73.6896 216.311C73.6896 218.37 72.0204 220.039 69.9613 220.039 67.9023 220.039 66.2331 218.37 66.2331 216.311 66.2331 214.252 67.9023 212.583 69.9613 212.583 72.0204 212.583 73.6896 214.252 73.6896 216.311Z" fill="#00BFA6" transform="matrix(-1 0 0 1.00039 205 296.05)"/><path d="M129.576 69.4748C129.576 71.5338 127.907 73.203 125.848 73.203 123.789 73.203 122.12 71.5338 122.12 69.4748 122.12 67.4157 123.789 65.7466 125.848 65.7466 127.907 65.7466 129.576 67.4157 129.576 69.4748Z" fill="#00BFA6" transform="matrix(-1 0 0 1.00039 205 296.05)"/><path d="M200.029 185.044C200.029 186.027 199.232 186.825 198.248 186.825 197.265 186.825 196.468 186.027 196.468 185.044 196.468 184.061 197.265 183.264 198.248 183.264 199.232 183.264 200.029 184.061 200.029 185.044Z" fill="#FF6584" transform="matrix(-1 0 0 1.00039 205 296.05)"/><path d="M206.971 214.595 206.971 194.323" stroke="#3F3D56" stroke-width="0.544847" stroke-miterlimit="10" fill="none" transform="matrix(-1 0 0 1.00039 205 296.05)"/><path d="M209.837 194.323C209.837 195.906 208.554 197.19 206.971 197.19 205.387 197.19 204.104 195.906 204.104 194.323 204.104 192.74 205.387 191.456 206.971 191.456 208.554 191.456 209.837 192.74 209.837 194.323Z" fill="#3F3D56" transform="matrix(-1 0 0 1.00039 205 296.05)"/><path d="M218.424 216.003C218.424 216.003 218.015 207.195 209.619 208.218" fill="#3F3D56" transform="matrix(-1 0 0 1.00039 216.454 286.861)"/></g></g></g></g></svg>