<svg width="960" height="540" xmlns="http://www.w3.org/2000/svg" xmlns:xlink="http://www.w3.org/1999/xlink" overflow="hidden"><defs><clipPath id="clip0"><rect x="0" y="0" width="960" height="540"/></clipPath></defs><g clip-path="url(#clip0)"><rect x="0" y="0" width="960" height="540" fill="#FFFFFF"/><path d="M25 63 968.654 63.0001 968.654 65.0001 25 65ZM25 68C22.7909 68 21 66.2091 21 64 21 61.7909 22.7909 60 25 60 27.2091 60 29 61.7909 29 64 29 66.2091 27.2091 68 25 68Z" fill="#ACFFD9"/><text fill="#1F1C51" font-family="Microsoft JhengHei,Microsoft JhengHei_MSFontService,sans-serif" font-weight="700" font-size="32" transform="translate(75.3858 76)">工具箱內有什麼</text><text fill="#1F1C51" font-family="Microsoft JhengHei,Microsoft JhengHei_MSFontService,sans-serif" font-weight="700" font-size="32" transform="translate(299.386 76)">???</text><path d="M92.9994 107.034 351 107.034 351 173.278 92.9994 173.278Z" fill="#FFFFFF" fill-rule="evenodd"/><path d="M351 107.034 609 107.034 609 173.278 351 173.278Z" fill="#FFFFFF" fill-rule="evenodd"/><path d="M609 107.034 867.001 107.034 867.001 173.278 609 173.278Z" fill="#FFFFFF" fill-rule="evenodd"/><path d="M92.9994 173.278 351 173.278 351 239.521 92.9994 239.521Z" fill="#FFFFFF" fill-rule="evenodd"/><path d="M351 173.278 609 173.278 609 239.521 351 239.521Z" fill="#FFFFFF" fill-rule="evenodd"/><path d="M609 173.278 867.001 173.278 867.001 239.521 609 239.521Z" fill="#FFFFFF" fill-rule="evenodd"/><path d="M92.9994 239.521 351 239.521 351 305.765 92.9994 305.765Z" fill="#FFFFFF" fill-rule="evenodd"/><path d="M351 239.521 609 239.521 609 305.765 351 305.765Z" fill="#FFFFFF" fill-rule="evenodd"/><path d="M609 239.521 867.001 239.521 867.001 305.765 609 305.765Z" fill="#FFFFFF" fill-rule="evenodd"/><path d="M92.9994 305.765 351 305.765 351 372.009 92.9994 372.009Z" fill="#FFFFFF" fill-rule="evenodd"/><path d="M351 305.765 609 305.765 609 372.009 351 372.009Z" fill="#FFFFFF" fill-rule="evenodd"/><path d="M609 305.765 867.001 305.765 867.001 372.009 609 372.009Z" fill="#FFFFFF" fill-rule="evenodd"/><path d="M92.9994 372.009 351 372.009 351 438.252 92.9994 438.252Z" fill="#FFFFFF" fill-rule="evenodd"/><path d="M351 372.009 609 372.009 609 438.252 351 438.252Z" fill="#FFFFFF" fill-rule="evenodd"/><path d="M609 372.009 867.001 372.009 867.001 438.252 609 438.252Z" fill="#FFFFFF" fill-rule="evenodd"/><path d="M92.9994 438.252 351 438.252 351 504.496 92.9994 504.496Z" fill="#FFFFFF" fill-rule="evenodd"/><path d="M351 438.252 609 438.252 609 504.496 351 504.496Z" fill="#FFFFFF" fill-rule="evenodd"/><path d="M609 438.252 867.001 438.252 867.001 504.496 609 504.496Z" fill="#FFFFFF" fill-rule="evenodd"/><path d="M351 106.034 351 173.278" stroke="#1F1C51" stroke-width="2" stroke-linejoin="round" stroke-miterlimit="10" fill="none" fill-rule="evenodd"/><path d="M351 173.278 351 305.765" stroke="#1F1C51" stroke-width="2" stroke-linejoin="round" stroke-miterlimit="10" fill="none" fill-rule="evenodd"/><path d="M351 305.765 351 505.496" stroke="#1F1C51" stroke-width="2" stroke-linejoin="round" stroke-miterlimit="10" fill="none" fill-rule="evenodd"/><path d="M609 106.034 609 173.278" stroke="#1F1C51" stroke-width="2" stroke-linejoin="round" stroke-miterlimit="10" fill="none" fill-rule="evenodd"/><path d="M609 173.278 609 305.765" stroke="#1F1C51" stroke-width="2" stroke-linejoin="round" stroke-miterlimit="10" fill="none" fill-rule="evenodd"/><path d="M609 305.765 609 505.496" stroke="#1F1C51" stroke-width="2" stroke-linejoin="round" stroke-miterlimit="10" fill="none" fill-rule="evenodd"/><path d="M91.9994 173.278 868.001 173.278" stroke="#1F1C51" stroke-width="2" stroke-linejoin="round" stroke-miterlimit="10" fill="none" fill-rule="evenodd"/><path d="M91.9994 239.521 351 239.521" stroke="#1F1C51" stroke-width="2" stroke-linejoin="round" stroke-miterlimit="10" fill="none" fill-rule="evenodd"/><path d="M351 239.521 868.001 239.521" stroke="#1F1C51" stroke-width="2" stroke-linejoin="round" stroke-miterlimit="10" fill="none" fill-rule="evenodd"/><path d="M91.9994 305.765 351 305.765" stroke="#1F1C51" stroke-width="2" stroke-linejoin="round" stroke-miterlimit="10" fill="none" fill-rule="evenodd"/><path d="M351 305.765 868.001 305.765" stroke="#1F1C51" stroke-width="2" stroke-linejoin="round" stroke-miterlimit="10" fill="none" fill-rule="evenodd"/><path d="M91.9994 372.009 351 372.009" stroke="#1F1C51" stroke-width="2" stroke-linejoin="round" stroke-miterlimit="10" fill="none" fill-rule="evenodd"/><path d="M351 372.009 868.001 372.009" stroke="#1F1C51" stroke-width="2" stroke-linejoin="round" stroke-miterlimit="10" fill="none" fill-rule="evenodd"/><path d="M91.9994 438.252 351 438.252" stroke="#1F1C51" stroke-width="2" stroke-linejoin="round" stroke-miterlimit="10" fill="none" fill-rule="evenodd"/><path d="M351 438.252 868.001 438.252" stroke="#1F1C51" stroke-width="2" stroke-linejoin="round" stroke-miterlimit="10" fill="none" fill-rule="evenodd"/><path d="M92.9994 106.034 92.9994 505.496" stroke="#1F1C51" stroke-width="2" stroke-linejoin="round" stroke-miterlimit="10" fill="none" fill-rule="evenodd"/><path d="M867.001 106.034 867.001 505.496" stroke="#1F1C51" stroke-width="2" stroke-linejoin="round" stroke-miterlimit="10" fill="none" fill-rule="evenodd"/><path d="M91.9994 107.034 868.001 107.034" stroke="#1F1C51" stroke-width="2" stroke-linejoin="round" stroke-miterlimit="10" fill="none" fill-rule="evenodd"/><path d="M91.9994 504.496 868.001 504.496" stroke="#1F1C51" stroke-width="2" stroke-linejoin="round" stroke-miterlimit="10" fill="none" fill-rule="evenodd"/><g><text font-family="Microsoft JhengHei,Microsoft JhengHei_MSFontService,sans-serif" font-weight="700" font-size="24" transform="translate(618.053 149)">資訊插座</text></g><text font-family="Microsoft JhengHei,Microsoft JhengHei_MSFontService,sans-serif" font-weight="700" font-size="24" transform="translate(720.053 149)">x3</text><g><text font-family="Microsoft JhengHei,Microsoft JhengHei_MSFontService,sans-serif" font-weight="700" font-size="24" transform="translate(360.052 149)">資訊盒</text></g><text font-family="Microsoft JhengHei,Microsoft JhengHei_MSFontService,sans-serif" font-weight="700" font-size="24" transform="translate(438.052 149)">x3</text><g><text font-family="Microsoft JhengHei,Microsoft JhengHei_MSFontService,sans-serif" font-weight="700" font-size="24" transform="translate(102.052 149)">RJ45</text></g><text font-family="Microsoft JhengHei,Microsoft JhengHei_MSFontService,sans-serif" font-weight="700" font-size="24" transform="translate(156.719 149)">水晶頭</text><text font-family="Microsoft JhengHei,Microsoft JhengHei_MSFontService,sans-serif" font-weight="700" font-size="24" transform="translate(234.719 149)">x10</text><g><text font-family="Microsoft JhengHei,Microsoft JhengHei_MSFontService,sans-serif" font-weight="700" font-size="24" transform="translate(618.053 215)">原子筆</text></g><g><text font-family="Microsoft JhengHei,Microsoft JhengHei_MSFontService,sans-serif" font-weight="700" font-size="24" transform="translate(360.052 215)">網路線</text></g><g><text font-family="Microsoft JhengHei,Microsoft JhengHei_MSFontService,sans-serif" font-weight="700" font-size="24" transform="translate(102.052 215)">插座蓋板</text></g><text font-family="Microsoft JhengHei,Microsoft JhengHei_MSFontService,sans-serif" font-weight="700" font-size="24" transform="translate(204.052 215)">x3</text><g><text font-family="Microsoft JhengHei,Microsoft JhengHei_MSFontService,sans-serif" font-weight="700" font-size="24" transform="translate(618.053 281)">一字起子</text></g><g><text font-family="Microsoft JhengHei,Microsoft JhengHei_MSFontService,sans-serif" font-weight="700" font-size="24" transform="translate(360.052 281)">十字起子</text></g><text font-family="Microsoft JhengHei,Microsoft JhengHei_MSFontService,sans-serif" font-weight="700" font-size="24" transform="translate(456.052 281)">(</text><text font-family="Microsoft JhengHei,Microsoft JhengHei_MSFontService,sans-serif" font-weight="700" font-size="24" transform="translate(464.552 281)">小</text><text font-family="Microsoft JhengHei,Microsoft JhengHei_MSFontService,sans-serif" font-weight="700" font-size="24" transform="translate(488.552 281)">)</text><g><text font-family="Microsoft JhengHei,Microsoft JhengHei_MSFontService,sans-serif" font-weight="700" font-size="24" transform="translate(102.052 281)">十字起子</text></g><text font-family="Microsoft JhengHei,Microsoft JhengHei_MSFontService,sans-serif" font-weight="700" font-size="24" transform="translate(198.052 281)">(</text><text font-family="Microsoft JhengHei,Microsoft JhengHei_MSFontService,sans-serif" font-weight="700" font-size="24" transform="translate(206.552 281)">大</text><text font-family="Microsoft JhengHei,Microsoft JhengHei_MSFontService,sans-serif" font-weight="700" font-size="24" transform="translate(230.552 281)">)</text><g><text font-family="Microsoft JhengHei,Microsoft JhengHei_MSFontService,sans-serif" font-weight="700" font-size="24" transform="translate(618.053 347)">壓線鉗</text></g><g><text font-family="Microsoft JhengHei,Microsoft JhengHei_MSFontService,sans-serif" font-weight="700" font-size="24" transform="translate(360.052 347)">剝線鉗</text></g><g><text font-family="Microsoft JhengHei,Microsoft JhengHei_MSFontService,sans-serif" font-weight="700" font-size="24" transform="translate(102.052 347)">刷子</text></g><g><text font-family="Microsoft JhengHei,Microsoft JhengHei_MSFontService,sans-serif" font-weight="700" font-size="24" transform="translate(618.053 414)">數位測線器</text></g><g><text font-family="Microsoft JhengHei,Microsoft JhengHei_MSFontService,sans-serif" font-weight="700" font-size="24" transform="translate(360.052 414)">剪刀</text></g><g><text font-family="Microsoft JhengHei,Microsoft JhengHei_MSFontService,sans-serif" font-weight="700" font-size="24" transform="translate(102.052 414)">斜口鉗</text></g><g><text font-family="Microsoft JhengHei,Microsoft JhengHei_MSFontService,sans-serif" font-weight="700" font-size="24" transform="translate(618.053 480)">USB</text></g><text font-family="Microsoft JhengHei,Microsoft JhengHei_MSFontService,sans-serif" font-weight="700" font-size="24" transform="translate(665.719 480)">網卡</text><g><text font-family="Microsoft JhengHei,Microsoft JhengHei_MSFontService,sans-serif" font-weight="700" font-size="24" transform="translate(360.052 480)">泡棉膠</text></g><g><text font-family="Microsoft JhengHei,Microsoft JhengHei_MSFontService,sans-serif" font-weight="700" font-size="24" transform="translate(102.052 480)">戶上機箱鑰匙</text></g></g></svg>