<svg xmlns="http://www.w3.org/2000/svg" xmlns:xlink="http://www.w3.org/1999/xlink" version="1.1" width="720pt" height="405pt" viewBox="0 0 720 405">
<defs>
<clipPath id="clip_110">
<path transform="matrix(1,0,0,-1,0,405)" d="M0 0H720V405H0Z"/>
</clipPath>
</defs>
<g id="layer_1" data-name="Artifact">
<g id="layer_2" data-name="背景">
<path transform="matrix(1,0,0,-1,0,405)" d="M0 0H720V405H0Z" fill="#ffffff"/>
<g clip-path="url(#clip_110)">
<path transform="matrix(1,0,0,-1,19.11,47.910005)" stroke-width="1.5" stroke-linecap="butt" stroke-linejoin="round" fill="none" stroke="#acffd9" d="M0 0H707.74"/>
<path transform="matrix(1,0,0,-1,22.11,47.910005)" d="M0 0C0-1.657-1.343-3-3-3-4.657-3-6-1.657-6 0-6 1.657-4.657 3-3 3-1.343 3 0 1.657 0 0" fill="#acffd9" fill-rule="evenodd"/>
</g>
</g>
</g>
<g id="layer_1" data-name="H2">
</g>
<g id="layer_1" data-name="Span">
</g>
<text fill="#1f1c51" xml:space="preserve" transform="matrix(1 0 -0 1 0 405)" font-size="24" font-family="MicrosoftJhengHeiBold" font-weight="bold"><tspan y="-347.8932" x="56.5394 80.5394 104.5394 128.5394 152.5394 176.5394 200.5394">&#x5de5;&#x5177;&#x7bb1;&#x5167;&#x6709;&#x4ec0;&#x9ebc;</tspan></text>
<text fill="#1f1c51" xml:space="preserve" transform="matrix(1 0 -0 1 0 405)" font-size="24" font-family="MicrosoftJhengHeiBold" font-weight="bold"><tspan y="-347.8932" x="224.5394 236.0594 247.5794">???</tspan></text>
<g id="layer_1" data-name="Artifact">
<path transform="matrix(1,0,0,-1,0,405)" d="M69.75 324.724H263.25V275.04103H69.75Z" fill="#ffffff" fill-rule="evenodd"/>
<path transform="matrix(1,0,0,-1,0,405)" d="M263.25 324.724H456.75V275.04103H263.25Z" fill="#ffffff" fill-rule="evenodd"/>
<path transform="matrix(1,0,0,-1,0,405)" d="M456.75 324.724H650.25V275.04103H456.75Z" fill="#ffffff" fill-rule="evenodd"/>
<path transform="matrix(1,0,0,-1,0,405)" d="M69.75 275.042H263.25V225.359H69.75Z" fill="#ffffff" fill-rule="evenodd"/>
<path transform="matrix(1,0,0,-1,0,405)" d="M263.25 275.042H456.75V225.359H263.25Z" fill="#ffffff" fill-rule="evenodd"/>
<path transform="matrix(1,0,0,-1,0,405)" d="M456.75 275.042H650.25V225.359H456.75Z" fill="#ffffff" fill-rule="evenodd"/>
<path transform="matrix(1,0,0,-1,0,405)" d="M69.75 225.359H263.25V175.676H69.75Z" fill="#ffffff" fill-rule="evenodd"/>
<path transform="matrix(1,0,0,-1,0,405)" d="M263.25 225.359H456.75V175.676H263.25Z" fill="#ffffff" fill-rule="evenodd"/>
<path transform="matrix(1,0,0,-1,0,405)" d="M456.75 225.359H650.25V175.676H456.75Z" fill="#ffffff" fill-rule="evenodd"/>
<path transform="matrix(1,0,0,-1,0,405)" d="M69.75 175.676H263.25V125.993H69.75Z" fill="#ffffff" fill-rule="evenodd"/>
<path transform="matrix(1,0,0,-1,0,405)" d="M263.25 175.676H456.75V125.993H263.25Z" fill="#ffffff" fill-rule="evenodd"/>
<path transform="matrix(1,0,0,-1,0,405)" d="M456.75 175.676H650.25V125.993H456.75Z" fill="#ffffff" fill-rule="evenodd"/>
<path transform="matrix(1,0,0,-1,0,405)" d="M69.75 125.993H263.25V76.31H69.75Z" fill="#ffffff" fill-rule="evenodd"/>
<path transform="matrix(1,0,0,-1,0,405)" d="M263.25 125.993H456.75V76.31H263.25Z" fill="#ffffff" fill-rule="evenodd"/>
<path transform="matrix(1,0,0,-1,0,405)" d="M456.75 125.993H650.25V76.31H456.75Z" fill="#ffffff" fill-rule="evenodd"/>
<path transform="matrix(1,0,0,-1,0,405)" d="M69.75 76.311H263.25V26.627999H69.75Z" fill="#ffffff" fill-rule="evenodd"/>
<path transform="matrix(1,0,0,-1,0,405)" d="M263.25 76.311H456.75V26.627999H263.25Z" fill="#ffffff" fill-rule="evenodd"/>
<path transform="matrix(1,0,0,-1,0,405)" d="M456.75 76.311H650.25V26.627999H456.75Z" fill="#ffffff" fill-rule="evenodd"/>
<path transform="matrix(1,0,0,-1,263.2498,79.52551)" stroke-width="1.5" stroke-linecap="butt" stroke-linejoin="round" fill="none" stroke="#1f1c51" d="M0 0V-50.433"/>
<path transform="matrix(1,0,0,-1,263.2498,129.95832)" stroke-width="1.5" stroke-linecap="butt" stroke-linejoin="round" fill="none" stroke="#1f1c51" d="M0 0V-99.365"/>
<path transform="matrix(1,0,0,-1,263.2498,229.3238)" stroke-width="1.5" stroke-linecap="butt" stroke-linejoin="round" fill="none" stroke="#1f1c51" d="M0 0V-149.798"/>
<path transform="matrix(1,0,0,-1,456.7502,79.52551)" stroke-width="1.5" stroke-linecap="butt" stroke-linejoin="round" fill="none" stroke="#1f1c51" d="M0 0V-50.433"/>
<path transform="matrix(1,0,0,-1,456.7502,129.95832)" stroke-width="1.5" stroke-linecap="butt" stroke-linejoin="round" fill="none" stroke="#1f1c51" d="M0 0V-99.365"/>
<path transform="matrix(1,0,0,-1,456.7502,229.3238)" stroke-width="1.5" stroke-linecap="butt" stroke-linejoin="round" fill="none" stroke="#1f1c51" d="M0 0V-149.798"/>
<path transform="matrix(1,0,0,-1,68.9995,129.95832)" stroke-width="1.5" stroke-linecap="butt" stroke-linejoin="round" fill="none" stroke="#1f1c51" d="M0 0H582.001"/>
<path transform="matrix(1,0,0,-1,68.9995,179.641)" stroke-width="1.5" stroke-linecap="butt" stroke-linejoin="round" fill="none" stroke="#1f1c51" d="M0 0H194.25"/>
<path transform="matrix(1,0,0,-1,263.2498,179.641)" stroke-width="1.5" stroke-linecap="butt" stroke-linejoin="round" fill="none" stroke="#1f1c51" d="M0 0H387.751"/>
<path transform="matrix(1,0,0,-1,68.9995,229.3238)" stroke-width="1.5" stroke-linecap="butt" stroke-linejoin="round" fill="none" stroke="#1f1c51" d="M0 0H194.25"/>
<path transform="matrix(1,0,0,-1,263.2498,229.3238)" stroke-width="1.5" stroke-linecap="butt" stroke-linejoin="round" fill="none" stroke="#1f1c51" d="M0 0H387.751"/>
<path transform="matrix(1,0,0,-1,68.9995,279.0065)" stroke-width="1.5" stroke-linecap="butt" stroke-linejoin="round" fill="none" stroke="#1f1c51" d="M0 0H194.25"/>
<path transform="matrix(1,0,0,-1,263.2498,279.0065)" stroke-width="1.5" stroke-linecap="butt" stroke-linejoin="round" fill="none" stroke="#1f1c51" d="M0 0H387.751"/>
<path transform="matrix(1,0,0,-1,68.9995,328.6893)" stroke-width="1.5" stroke-linecap="butt" stroke-linejoin="round" fill="none" stroke="#1f1c51" d="M0 0H194.25"/>
<path transform="matrix(1,0,0,-1,263.2498,328.6893)" stroke-width="1.5" stroke-linecap="butt" stroke-linejoin="round" fill="none" stroke="#1f1c51" d="M0 0H387.751"/>
<path transform="matrix(1,0,0,-1,69.7495,79.52551)" stroke-width="1.5" stroke-linecap="butt" stroke-linejoin="round" fill="none" stroke="#1f1c51" d="M0 0V-299.597"/>
<path transform="matrix(1,0,0,-1,650.2505,79.52551)" stroke-width="1.5" stroke-linecap="butt" stroke-linejoin="round" fill="none" stroke="#1f1c51" d="M0 0V-299.597"/>
<path transform="matrix(1,0,0,-1,68.9995,80.27551)" stroke-width="1.5" stroke-linecap="butt" stroke-linejoin="round" fill="none" stroke="#1f1c51" d="M0 0H582.001"/>
<path transform="matrix(1,0,0,-1,68.9995,378.372)" stroke-width="1.5" stroke-linecap="butt" stroke-linejoin="round" fill="none" stroke="#1f1c51" d="M0 0H582.001"/>
</g>
<g id="layer_1" data-name="P">
</g>
<g id="layer_1" data-name="Span">
</g>
<g id="layer_1" data-name="Span">
</g>
<g id="layer_1" data-name="P">
</g>
<g id="layer_1" data-name="Span">
</g>
<g id="layer_1" data-name="P">
</g>
<g id="layer_1" data-name="Span">
</g>
<g id="layer_1" data-name="P">
</g>
<g id="layer_1" data-name="Span">
</g>
<g id="layer_1" data-name="P">
</g>
<g id="layer_1" data-name="P">
</g>
<g id="layer_1" data-name="P">
</g>
<g id="layer_1" data-name="Span">
</g>
<g id="layer_1" data-name="Span">
</g>
<g id="layer_1" data-name="Span">
</g>
<g id="layer_1" data-name="P">
</g>
<g id="layer_1" data-name="Span">
</g>
<g id="layer_1" data-name="Span">
</g>
<g id="layer_1" data-name="Span">
</g>
<g id="layer_1" data-name="P">
</g>
<g id="layer_1" data-name="P">
</g>
<g id="layer_1" data-name="P">
</g>
<g id="layer_1" data-name="P">
</g>
<g id="layer_1" data-name="P">
</g>
<g id="layer_1" data-name="P">
</g>
<g id="layer_1" data-name="P">
</g>
<g id="layer_1" data-name="P">
</g>
<g id="layer_1" data-name="P">
</g>
<g id="layer_1" data-name="P">
</g>
<g id="layer_1" data-name="Span">
</g>
<text xml:space="preserve" transform="matrix(1 0 -0 1 0 405)" font-size="18" font-family="MicrosoftJhengHeiBold" font-weight="bold"><tspan y="-293.2231" x="76.539 88.539608 96.0996 106.845607">RJ45</tspan></text>
<text xml:space="preserve" transform="matrix(1 0 -0 1 0 405)" font-size="18" font-family="MicrosoftJhengHeiBold" font-weight="bold"><tspan y="-293.2231" x="117.591609 135.59162 153.59162">&#x6c34;&#x6676;&#x982d;</tspan></text>
<text xml:space="preserve" transform="matrix(1 0 -0 1 0 405)" font-size="18" font-family="MicrosoftJhengHeiBold" font-weight="bold"><tspan y="-293.2231" x="176.025 185.565 196.3056">x10</tspan></text>
<text xml:space="preserve" transform="matrix(1 0 -0 1 0 405)" font-size="18" font-family="MicrosoftJhengHeiBold" font-weight="bold"><tspan y="-293.2231" x="270.039 288.039 306.039">&#x8cc7;&#x8a0a;&#x76d2;</tspan></text>
<text xml:space="preserve" transform="matrix(1 0 -0 1 0 405)" font-size="18" font-family="MicrosoftJhengHeiBold" font-weight="bold"><tspan y="-293.2231" x="328.539 338.079">x3</tspan></text>
<text xml:space="preserve" transform="matrix(1 0 -0 1 0 405)" font-size="18" font-family="MicrosoftJhengHeiBold" font-weight="bold"><tspan y="-293.2231" x="463.539 481.539 499.539 517.539">&#x8cc7;&#x8a0a;&#x63d2;&#x5ea7;</tspan></text>
<text xml:space="preserve" transform="matrix(1 0 -0 1 0 405)" font-size="18" font-family="MicrosoftJhengHeiBold" font-weight="bold"><tspan y="-293.2231" x="540.039 549.579">x3</tspan></text>
<text xml:space="preserve" transform="matrix(1 0 -0 1 0 405)" font-size="18" font-family="MicrosoftJhengHeiBold" font-weight="bold"><tspan y="-243.54312" x="76.539 94.539 112.539 130.539">&#x63d2;&#x5ea7;&#x84cb;&#x677f;</tspan></text>
<text xml:space="preserve" transform="matrix(1 0 -0 1 0 405)" font-size="18" font-family="MicrosoftJhengHeiBold" font-weight="bold"><tspan y="-243.54312" x="153.039 162.57901">x3</tspan></text>
<text xml:space="preserve" transform="matrix(1 0 -0 1 0 405)" font-size="18" font-family="MicrosoftJhengHeiBold" font-weight="bold"><tspan y="-243.54312" x="270.039 288.039 306.039 463.539 481.539 499.539">&#x7db2;&#x8def;&#x7dda;&#x539f;&#x5b50;&#x7b46;</tspan><tspan y="-193.86313" x="76.539 94.539 112.539 130.539">&#x5341;&#x5b57;&#x8d77;&#x5b50;</tspan></text>
<text xml:space="preserve" transform="matrix(1 0 -0 1 0 405)" font-size="18" font-family="MicrosoftJhengHeiBold" font-weight="bold"><tspan y="-193.86313" x="148.539">(</tspan></text>
<text xml:space="preserve" transform="matrix(1 0 -0 1 0 405)" font-size="18" font-family="MicrosoftJhengHeiBold" font-weight="bold"><tspan y="-193.86313" x="154.83899">&#x5927;</tspan></text>
<text xml:space="preserve" transform="matrix(1 0 -0 1 0 405)" font-size="18" font-family="MicrosoftJhengHeiBold" font-weight="bold"><tspan y="-193.86313" x="172.83899">)</tspan></text>
<text xml:space="preserve" transform="matrix(1 0 -0 1 0 405)" font-size="18" font-family="MicrosoftJhengHeiBold" font-weight="bold"><tspan y="-193.86313" x="270.039 288.039 306.039 324.039">&#x5341;&#x5b57;&#x8d77;&#x5b50;</tspan></text>
<text xml:space="preserve" transform="matrix(1 0 -0 1 0 405)" font-size="18" font-family="MicrosoftJhengHeiBold" font-weight="bold"><tspan y="-193.86313" x="342.039">(</tspan></text>
<text xml:space="preserve" transform="matrix(1 0 -0 1 0 405)" font-size="18" font-family="MicrosoftJhengHeiBold" font-weight="bold"><tspan y="-193.86313" x="348.339">&#x5c0f;</tspan></text>
<text xml:space="preserve" transform="matrix(1 0 -0 1 0 405)" font-size="18" font-family="MicrosoftJhengHeiBold" font-weight="bold"><tspan y="-193.86313" x="366.339">)</tspan></text>
<text xml:space="preserve" transform="matrix(1 0 -0 1 0 405)" font-size="18" font-family="MicrosoftJhengHeiBold" font-weight="bold"><tspan y="-193.86313" x="463.539 481.539 499.539 517.539">&#x4e00;&#x5b57;&#x8d77;&#x5b50;</tspan><tspan y="-144.18314" x="76.539 94.539 270.039 288.039 306.039 463.539 481.539 499.539">&#x5237;&#x5b50;&#x525d;&#x7dda;&#x9257;&#x58d3;&#x7dda;&#x9257;</tspan><tspan y="-94.503139" x="76.539 94.539 112.539 270.039 288.039 463.539 481.539 499.539 517.539 535.539">&#x659c;&#x53e3;&#x9257;&#x526a;&#x5200;&#x6578;&#x4f4d;&#x6e2c;&#x7dda;&#x5668;</tspan><tspan y="-44.823137" x="76.539 94.539 112.539 130.539 148.539 166.539 270.039 288.039 306.039">&#x6236;&#x4e0a;&#x6a5f;&#x7bb1;&#x9470;&#x5319;&#x6ce1;&#x68c9;&#x81a0;</tspan></text>
<text xml:space="preserve" transform="matrix(1 0 -0 1 0 405)" font-size="18" font-family="MicrosoftJhengHeiBold" font-weight="bold"><tspan y="-44.823137" x="463.539 477.1596 487.6536">USB</tspan></text>
<text xml:space="preserve" transform="matrix(1 0 -0 1 0 405)" font-size="18" font-family="MicrosoftJhengHeiBold" font-weight="bold"><tspan y="-44.823137" x="499.233 517.23306">&#x7db2;&#x5361;</tspan></text>
</svg>
